<?xml version="1.0" standalone="no"?>
<!DOCTYPE svg PUBLIC "-//W3C//DTD SVG 20010904//EN"
 "http://www.w3.org/TR/2001/REC-SVG-20010904/DTD/svg10.dtd">
<svg version="1.0" xmlns="http://www.w3.org/2000/svg"
 width="600.000000pt" height="900.000000pt" viewBox="0 0 600.000000 900.000000"
 preserveAspectRatio="xMidYMid meet">

<g transform="translate(0.000000,900.000000) scale(0.100000,-0.100000)"
fill="#000000" stroke="none">
<path d="M0 7890 l0 -1110 35 0 c21 0 35 -5 35 -12 0 -10 2 -10 8 -1 6 10 17
10 43 2 34 -10 317 -59 354 -62 11 0 23 -6 27 -12 5 -6 8 -1 8 10 0 13 3 16 8
8 4 -7 59 -21 122 -32 63 -11 142 -27 175 -35 72 -19 78 -20 69 -3 -6 9 -4 9
7 1 8 -6 23 -14 33 -18 16 -5 17 -4 6 9 -22 27 -4 26 23 -1 18 -18 37 -26 62
-26 19 0 35 -4 35 -8 0 -4 10 -8 23 -8 108 1 437 -53 437 -72 0 -4 12 -6 27
-4 15 1 32 0 38 -4 5 -4 23 -7 40 -8 40 -2 136 -24 157 -35 23 -12 31 -11 23
1 -3 6 -2 10 4 10 5 0 11 -5 13 -12 3 -8 8 -7 18 4 12 13 17 11 38 -11 13 -14
20 -20 17 -12 -5 9 1 8 19 -4 14 -10 26 -14 26 -10 0 4 7 2 15 -5 8 -7 15 -10
15 -8 0 3 21 1 48 -4 26 -6 58 -11 72 -13 14 -1 65 -14 114 -29 48 -14 94 -26
101 -26 6 0 17 -10 23 -22 l11 -23 0 23 c1 20 21 33 21 13 0 -15 52 -17 86 -4
17 7 34 9 38 6 11 -11 96 -13 96 -2 0 5 9 1 21 -10 20 -19 21 -27 17 -245 -2
-157 -7 -229 -15 -234 -6 -4 -12 -23 -13 -42 -3 -54 2 -60 10 -10 6 35 7 26 7
-45 0 -63 -2 -80 -7 -55 -4 19 -8 31 -9 26 0 -5 -8 -3 -16 4 -9 7 -13 21 -10
31 5 13 2 17 -7 14 -9 -3 -20 5 -28 20 -7 14 -24 28 -37 31 -13 4 -23 12 -23
20 0 14 -28 43 -73 76 l-27 20 -17 -39 c-9 -21 -18 -49 -19 -63 -1 -14 -7 -51
-13 -84 -6 -32 -8 -62 -5 -67 3 -5 0 -9 -5 -9 -6 0 -11 11 -11 24 0 17 -5 23
-17 21 -14 -2 -18 -11 -16 -46 0 -24 -1 -38 -4 -31 -6 15 -39 16 -48 2 -4 -6
-11 -7 -17 -4 -7 4 -8 2 -4 -4 9 -15 46 -16 46 -2 0 6 6 5 14 -2 12 -11 7 -14
-28 -20 -22 -4 -77 -10 -121 -13 -44 -4 -89 -8 -100 -10 -78 -11 -105 -19
-105 -31 0 -8 6 -14 14 -14 7 0 24 -8 37 -19 13 -10 42 -21 64 -25 74 -12 112
-17 147 -20 20 -2 42 -7 49 -12 7 -4 91 -7 186 -6 147 2 174 0 179 -13 4 -11
21 -15 56 -15 28 0 47 4 43 9 -10 18 15 22 72 12 32 -6 152 -14 268 -17 115
-3 218 -10 229 -16 12 -6 51 -8 95 -5 97 7 437 -15 434 -28 -1 -6 15 -10 35
-11 92 -1 182 -9 182 -16 0 -4 18 -8 40 -8 22 0 40 3 40 8 0 4 53 7 118 7 101
0 138 5 275 38 86 21 157 41 157 43 0 2 -12 4 -27 4 -16 -1 -134 10 -263 24
-129 13 -266 27 -305 30 -1099 102 -1165 108 -1165 119 0 6 23 7 59 4 155 -17
248 -19 255 -8 4 6 4 11 -1 11 -4 0 -9 19 -11 42 -1 23 -7 47 -13 54 -7 8 -6
14 2 19 8 6 7 10 -2 16 -11 7 -11 9 -1 9 10 0 10 5 1 23 -12 22 -12 22 9 3 12
-10 19 -23 15 -29 -3 -6 -1 -7 5 -3 6 4 22 0 34 -7 38 -24 75 -29 91 -12 13
13 16 13 21 -1 10 -25 6 -76 -8 -116 l-14 -38 34 0 c39 0 43 7 12 20 -20 7
-18 9 15 9 47 1 97 45 97 86 0 58 -50 115 -102 115 -21 0 -26 4 -23 20 7 35 8
200 1 207 -3 3 -6 26 -6 50 0 43 -12 57 -24 27 -3 -9 -6 -26 -6 -38 0 -16 -12
-28 -45 -44 -57 -28 -87 -80 -65 -115 12 -20 12 -21 -3 -9 -20 17 -35 8 -54
-32 -11 -24 -13 -25 -8 -6 15 60 17 98 6 104 -6 4 -29 -12 -53 -38 -22 -25
-45 -46 -50 -46 -5 0 -7 4 -4 8 3 5 -6 15 -19 22 -14 7 -25 22 -25 32 0 11 -7
18 -19 18 -29 0 -35 18 -9 23 l23 4 -22 2 c-13 0 -23 6 -23 12 0 13 -72 9 -83
-6 -6 -7 -10 -6 -14 3 -2 6 -9 10 -14 7 -5 -4 -3 -12 4 -20 9 -10 16 -10 27
-1 13 9 13 9 2 -5 -7 -10 -21 -15 -31 -12 -22 6 -41 -17 -51 -60 -5 -26 -4
-34 7 -34 19 0 56 54 47 68 -4 8 -3 9 5 5 7 -4 18 5 29 23 16 30 32 40 32 23
0 -5 -18 -34 -41 -65 -22 -32 -37 -62 -33 -69 4 -6 3 -8 -3 -5 -17 10 -53 -54
-43 -73 6 -11 4 -27 -6 -46 -22 -42 -33 -51 -43 -35 -5 8 -8 -7 -7 -38 0 -28
-2 -51 -6 -51 -7 0 -13 104 -9 139 2 7 -2 11 -7 7 -5 -3 -10 3 -11 12 -7 40
-7 523 0 533 5 8 12 8 25 0 11 -6 13 -11 7 -11 -26 0 -12 -18 20 -23 50 -10
172 -33 287 -56 58 -12 115 -23 127 -25 13 -3 25 0 28 5 4 5 14 9 23 9 13 0
14 -2 3 -9 -17 -11 -6 -17 47 -26 23 -4 42 -10 42 -15 0 -4 8 -6 18 -4 9 2 80
-10 157 -26 198 -42 205 -43 205 -31 0 6 10 11 23 11 18 0 19 -2 7 -10 -13 -8
-13 -11 3 -27 10 -11 17 -13 17 -5 0 7 5 12 11 12 5 0 7 -5 3 -12 -5 -8 -2 -9
9 -5 10 4 17 2 17 -4 0 -6 9 -9 20 -6 11 3 20 1 20 -4 0 -5 10 -9 21 -9 19 0
20 -2 8 -17 -8 -9 -9 -14 -3 -10 13 7 34 -61 34 -110 0 -53 17 -58 24 -7 16
121 17 124 37 124 14 0 19 -7 19 -25 0 -15 5 -24 13 -22 7 1 13 -10 15 -26 2
-15 12 -33 23 -40 17 -11 19 -24 19 -144 l0 -132 -32 -6 c-18 -3 -60 -6 -93
-8 l-60 -2 -13 -39 c-7 -21 -11 -40 -10 -42 8 -7 230 -18 235 -11 6 10 9 65
17 302 4 105 9 200 12 213 4 21 34 32 34 12 0 -5 -5 -10 -10 -10 -7 0 -10 -37
-8 -102 l3 -103 33 -16 c19 -8 33 -17 32 -20 -5 -11 24 -56 42 -68 24 -15 142
-15 368 -1 222 14 488 21 415 10 -33 -5 -89 -10 -124 -11 -57 -2 -62 -4 -46
-15 11 -8 28 -15 39 -15 61 -3 88 -11 106 -29 12 -12 15 -20 8 -20 -9 0 -8 -4
2 -10 12 -8 10 -10 -10 -9 -14 0 -34 4 -45 9 -18 8 -18 9 -2 9 10 1 15 6 12
12 -4 6 -13 8 -21 5 -8 -3 -14 -1 -14 4 0 6 -9 10 -21 10 -11 0 -17 -5 -14
-10 4 -6 10 -8 14 -5 5 2 6 -6 4 -19 -4 -21 0 -24 44 -30 98 -14 123 -25 123
-51 0 -14 6 -25 14 -25 9 0 12 9 10 28 -2 15 -1 19 2 10 3 -10 10 -18 16 -18
7 0 7 -4 -1 -13 -6 -8 -7 -18 -3 -22 4 -5 -1 -5 -10 -2 -14 5 -18 1 -18 -16 0
-16 3 -18 9 -9 4 8 12 13 17 12 4 -1 11 7 15 17 6 14 8 14 9 3 3 -25 -2 -55
-10 -60 -4 -3 -10 -26 -14 -52 -6 -40 -5 -48 8 -48 13 0 16 -13 15 -77 -1 -61
-3 -70 -9 -43 -7 32 -7 31 -9 -18 0 -30 3 -51 8 -48 11 7 19 -131 9 -148 -4
-6 -8 15 -8 47 0 32 -4 56 -8 53 -9 -6 -8 -204 2 -213 3 -4 6 18 6 47 0 70 7
61 11 -14 4 -57 3 -59 -21 -63 -38 -6 -272 -3 -294 4 -10 3 -16 1 -13 -4 4 -5
-18 -10 -49 -11 -30 -1 -60 -5 -66 -8 -6 -4 -37 -8 -67 -9 -31 -2 -59 -3 -62
-4 -13 -3 -29 -55 -29 -96 0 -38 4 -45 30 -59 27 -13 30 -13 30 2 0 12 3 13
11 5 17 -17 1 -52 -27 -59 -31 -8 -42 2 -27 25 10 16 8 20 -13 30 -25 11 -26
15 -29 81 -1 27 3 40 12 40 7 0 13 5 13 10 0 12 -99 10 -106 -2 -9 -13 -26 -9
-18 5 4 6 3 8 -2 4 -4 -4 -7 -23 -6 -42 2 -18 -1 -36 -7 -40 -6 -3 -11 -1 -11
4 0 11 -35 10 -46 -2 -13 -13 -19 -7 -19 16 0 19 4 22 31 19 28 -3 31 -1 29
20 -1 12 -3 38 -4 56 -1 25 -5 32 -21 32 -16 0 -20 -7 -21 -37 -1 -21 -2 -40
-2 -43 -1 -7 -47 -50 -47 -44 0 3 -7 -2 -16 -10 -8 -9 -12 -21 -9 -27 4 -5 7
-27 7 -47 0 -28 2 -32 8 -17 4 11 6 23 3 28 -2 4 -2 7 1 7 11 0 32 -56 28 -74
-3 -15 -6 -16 -13 -5 -7 12 -9 12 -9 0 0 -8 -7 -19 -15 -25 -11 -9 -15 -42
-16 -158 -3 -159 -2 -156 -56 -142 -20 5 -21 13 -22 85 0 43 4 81 9 84 6 4 7
13 1 23 -5 10 -11 37 -12 62 -3 40 -1 45 19 48 12 2 22 9 21 15 -3 26 2 37 17
37 10 0 12 4 7 13 -4 6 -6 20 -4 31 1 11 -2 16 -8 11 -6 -3 -9 -11 -5 -16 4
-7 -7 -8 -29 -4 -38 7 -80 -1 -72 -15 3 -5 1 -10 -5 -12 -15 -5 -22 -51 -9
-59 8 -4 4 -14 -10 -28 -21 -21 -29 -47 -11 -36 6 4 10 -20 10 -64 0 -72 -4
-79 -43 -72 -5 1 -6 -3 -2 -9 3 -5 15 -10 26 -10 13 0 19 -7 18 -22 0 -13 -3
-17 -6 -10 -2 6 -9 12 -15 12 -22 0 -35 29 -41 93 -7 79 -13 93 -33 76 -8 -7
-14 -30 -14 -59 0 -90 -11 -135 -34 -146 -13 -5 -20 -16 -18 -28 2 -11 -1 -15
-8 -11 -6 4 -9 14 -6 22 5 11 2 13 -9 9 -9 -3 -13 -2 -10 4 3 6 2 10 -3 10
-14 0 -21 30 -36 153 -12 90 -18 111 -37 128 -24 20 -70 19 -77 -2 -2 -6 -15
-3 -29 7 -32 21 -73 6 -73 -27 0 -20 46 -111 89 -179 9 -13 11 -21 5 -17 -6 4
-39 53 -74 110 -69 115 -93 130 -110 67 -5 -19 -10 -43 -10 -53 0 -31 -28 -87
-44 -87 -9 0 -16 4 -16 10 0 5 -7 7 -16 3 -8 -3 -13 -12 -10 -19 3 -8 2 -14
-3 -14 -4 0 -11 -23 -14 -52 -4 -28 -11 -56 -16 -61 -7 -7 -7 -17 0 -29 5 -10
7 -23 4 -28 -3 -6 0 -10 7 -11 7 -1 2 -5 -12 -9 l-25 -8 25 -2 c21 -1 18 -4
-15 -15 l-40 -13 35 -1 c26 -1 31 -4 20 -11 -8 -5 -29 -10 -47 -10 -17 0 -34
-4 -37 -9 -3 -5 -26 -5 -52 0 -32 6 -51 5 -61 -2 -8 -8 -37 -10 -78 -7 l-64 6
-7 -30 c-6 -29 -8 -30 -47 -25 -27 4 -36 2 -26 -4 9 -6 10 -9 2 -9 -7 0 -13
-7 -13 -16 0 -12 -9 -14 -47 -10 -35 4 -41 3 -23 -3 17 -6 20 -9 8 -10 -21 -1
-24 -17 -5 -25 6 -3 -1 -4 -18 -2 -16 3 -51 8 -78 11 -51 7 -56 25 -6 25 16 0
29 3 29 8 0 4 10 8 23 8 47 4 65 8 60 17 -3 4 -12 5 -22 2 -9 -4 -42 -9 -73
-11 -31 -2 -72 -6 -90 -9 -18 -3 -62 -10 -98 -15 -244 -39 -478 -80 -493 -86
-15 -5 -16 -9 -5 -15 10 -6 8 -9 -7 -9 -17 0 -17 -2 -5 -10 10 -7 11 -10 2
-10 -10 0 -10 -4 0 -20 17 -26 5 -34 -33 -21 -38 13 -86 -5 -81 -31 3 -22 -14
-26 -83 -18 l-60 7 53 2 c56 1 58 4 43 58 -8 26 -6 33 7 36 10 3 4 5 -12 6
-24 1 -27 -1 -16 -14 6 -8 10 -20 8 -27 -3 -8 -11 -5 -23 10 -11 12 -26 22
-34 22 -11 0 -10 -4 5 -15 15 -11 16 -14 3 -15 -8 0 -21 -6 -28 -12 -6 -7 -26
-13 -44 -13 -20 0 -31 -5 -30 -12 2 -7 -4 -10 -13 -6 -13 5 -13 8 -2 15 8 6
-1 8 -27 4 -22 -4 -71 -8 -110 -10 -38 -2 -54 -1 -35 1 37 5 67 23 37 23 -9 0
-92 -11 -184 -26 -92 -14 -184 -27 -204 -29 -21 -2 -72 -20 -115 -40 -44 -21
-104 -45 -134 -54 l-55 -17 73 -1 c41 -1 76 -4 80 -8 11 -10 -21 -25 -43 -19
-12 3 -41 -1 -65 -9 -25 -8 -72 -18 -105 -21 -124 -14 -212 -21 -263 -21 -46
0 -50 -2 -35 -13 16 -12 12 -13 -26 -7 -28 5 -41 4 -37 -3 4 -6 -21 -10 -67
-11 -39 -1 -88 -5 -107 -11 -48 -14 -123 -13 -115 1 5 7 -7 8 -40 3 -83 -12
-80 -13 -83 37 l-3 45 48 2 c115 5 157 18 166 51 4 17 -1 20 -32 23 -46 4
-174 -21 -183 -36 -4 -6 -8 -27 -8 -46 -1 -30 -2 -33 -12 -16 -6 10 -13 60
-16 110 -2 50 -8 96 -12 101 -9 11 14 37 24 28 3 -4 6 3 6 15 0 17 -6 22 -27
22 l-26 0 9 213 c4 116 8 242 7 280 -1 45 2 67 10 67 7 0 6 4 -3 10 -12 8 -12
11 3 27 9 11 26 49 37 85 41 135 103 164 168 79 18 -24 36 -57 39 -73 4 -22 8
-26 15 -16 7 9 8 7 3 -8 -3 -11 2 -54 10 -95 9 -41 18 -90 21 -109 13 -102 13
-100 47 -100 18 0 39 5 47 10 13 8 13 10 -2 10 -16 0 -33 51 -43 135 -3 22
-12 78 -20 124 -8 47 -13 87 -10 89 3 3 5 -1 5 -8 0 -7 3 -11 6 -8 9 10 -42
101 -73 130 -73 69 -156 64 -230 -14 -65 -68 -63 -51 -61 -705 2 -455 6 -591
15 -585 6 4 14 20 17 36 3 16 11 33 18 38 10 6 10 10 -2 18 -13 8 -13 10 2 10
11 0 18 10 21 33 2 21 4 13 6 -23 2 -91 7 -99 49 -93 46 6 360 60 462 79 168
31 177 28 60 -14 -173 -62 -380 -112 -575 -138 -58 -7 -95 -23 -55 -23 14 0
43 4 65 9 32 7 327 58 495 86 l35 6 -45 -32 c-25 -17 -83 -58 -130 -91 -151
-107 -259 -179 -268 -179 -4 0 -18 -9 -30 -20 -16 -15 -22 -32 -22 -64 0 -24
-6 -48 -13 -54 -7 -6 -14 -23 -15 -38 -1 -15 -11 -42 -22 -61 -18 -30 -18 -33
-2 -33 15 0 15 -2 2 -10 -28 -18 20 -11 170 24 80 19 327 78 550 131 223 53
473 112 555 131 277 66 570 135 630 149 203 46 477 115 491 123 9 5 25 7 35 5
11 -3 19 0 19 6 0 7 4 10 10 6 5 -3 91 14 192 39 101 24 198 47 216 51 17 4
32 11 32 16 0 5 -11 4 -26 -1 -35 -14 -44 -13 -38 4 5 12 -10 28 -62 64 -11 7
-13 10 -6 7 20 -10 14 13 -7 25 -26 13 -31 13 -31 -5 0 -25 -19 -17 -36 16
-12 24 -18 29 -24 18 -7 -11 -11 -9 -16 6 -5 11 -13 26 -20 33 -10 10 -14 8
-19 -10 -4 -13 -19 -35 -33 -50 -24 -26 -24 -28 -6 -28 13 0 20 -7 20 -19 0
-14 -10 -21 -37 -25 -31 -5 -36 -9 -32 -26 4 -15 14 -20 37 -20 24 0 27 -3 16
-10 -20 -13 -101 -12 -120 1 -12 9 -11 10 7 6 12 -3 27 1 34 9 6 8 10 14 8 15
-27 5 -45 8 -109 18 -91 14 -107 25 -25 17 61 -6 64 -3 11 9 -23 5 -27 8 -15
16 11 7 11 9 0 9 -13 0 -71 58 -71 73 0 12 28 8 33 -5 2 -7 8 -10 12 -6 4 4 0
15 -9 24 -14 13 -22 15 -42 6 -13 -7 -24 -18 -24 -26 0 -7 -7 -16 -15 -20 -26
-10 -41 98 -15 114 9 6 8 10 -6 19 -18 10 -18 12 -1 25 20 16 13 45 -12 47 -9
1 -5 4 9 9 l25 7 -25 11 -25 11 25 1 c21 0 22 2 10 11 -12 9 -12 10 3 5 10 -3
21 -6 23 -6 2 0 4 -7 4 -15 0 -9 10 -15 26 -15 19 0 25 -4 20 -15 -4 -12 4
-15 39 -15 35 0 43 3 39 15 -4 10 0 15 14 15 12 0 23 4 26 8 3 5 26 9 52 10
38 0 51 5 66 24 l18 23 0 -32 c0 -26 4 -33 19 -33 10 0 22 -7 25 -15 7 -19 36
-16 52 4 14 18 107 24 100 6 -6 -17 18 -27 33 -12 6 6 22 11 36 12 19 0 27 -6
34 -28 9 -24 13 -27 31 -17 12 6 49 8 97 5 98 -8 103 -10 103 -35 0 -14 7 -20
22 -20 12 0 18 -3 15 -7 -4 -3 1 -12 11 -19 13 -9 17 -29 18 -84 1 -39 4 -74
7 -77 3 -3 48 5 101 17 77 17 94 24 89 37 -5 13 -3 13 15 4 11 -6 27 -11 34
-11 7 1 -2 7 -21 15 -28 13 -31 17 -21 30 7 8 9 15 4 16 -15 1 30 18 49 18 16
1 15 -2 -6 -21 l-25 -22 26 -13 c26 -14 47 -8 23 6 -10 6 -9 10 4 14 9 4 13 3
10 -2 -6 -11 33 -26 42 -17 4 3 -2 6 -13 7 -18 0 -18 1 1 9 11 5 15 9 8 9 -6
1 -9 10 -6 21 6 23 43 27 43 4 0 -12 7 -10 33 9 49 36 58 40 51 23 -5 -12 0
-16 17 -16 19 0 21 2 9 10 -12 8 -10 10 10 11 l25 1 -25 7 -25 7 22 12 c12 7
29 12 37 12 10 0 16 9 16 24 0 19 7 26 30 31 17 4 28 11 24 16 -3 5 5 10 18
10 17 1 18 3 6 6 -10 2 -18 8 -18 13 0 4 9 6 20 3 26 -7 70 4 70 18 0 6 -6 7
-12 3 -17 -11 -108 -12 -108 -2 0 4 8 8 18 8 10 0 27 6 37 14 19 13 18 15 -15
23 -23 6 -36 16 -37 29 -2 10 0 13 3 7 9 -20 24 -15 17 5 -6 15 -5 15 10 4 9
-8 22 -12 29 -9 8 4 7 6 -4 6 -10 1 -18 6 -18 12 0 5 5 7 10 4 6 -3 11 4 11
17 1 17 3 18 6 6 2 -10 9 -18 14 -18 5 0 9 -9 9 -20 0 -21 18 -26 38 -10 9 7
9 7 2 -2 -14 -17 -12 -31 3 -22 6 4 9 4 5 -1 -4 -4 -2 -15 5 -23 9 -12 9 -16
0 -19 -7 -3 -13 -13 -13 -24 0 -21 20 -24 66 -10 16 5 55 14 87 21 43 9 57 15
53 26 -3 8 1 14 9 14 8 0 15 8 15 19 0 10 7 24 15 31 12 10 16 8 23 -11 l9
-23 6 23 c3 13 11 21 19 19 9 -3 14 -30 16 -86 3 -80 3 -82 28 -82 24 0 24 1
22 73 -3 71 -3 72 22 69 34 -4 40 -12 44 -63 4 -43 5 -44 36 -42 40 2 66 23
29 24 l-24 1 25 7 c21 6 25 12 22 43 -2 29 1 37 20 43 45 14 59 15 79 5 10 -6
19 -7 19 -3 0 14 50 14 51 0 0 -6 4 -3 8 7 9 22 42 30 53 13 6 -9 8 -9 8 0 0
6 23 14 53 18 75 9 146 34 159 55 11 17 13 17 25 -7 16 -32 17 -55 0 -72 -13
-13 -9 -13 103 15 30 8 63 14 73 14 11 0 15 4 11 12 -4 7 -3 8 4 4 20 -12 61
4 59 25 -1 10 -5 19 -10 19 -5 0 -4 7 3 15 7 8 23 15 36 15 23 0 28 9 25 38
-1 7 10 12 29 12 23 0 33 -5 37 -20 3 -11 10 -20 15 -20 5 0 7 -4 4 -9 -3 -5
1 -14 8 -20 10 -8 16 -9 21 -1 3 5 3 10 -2 10 -4 1 4 8 19 16 16 8 28 18 28
22 0 4 43 5 95 4 91 -4 95 -3 95 17 0 15 -7 21 -22 22 -22 0 -22 1 -3 9 17 6
20 16 19 56 -3 61 -20 108 -36 98 -7 -4 -8 -3 -4 4 4 7 -16 43 -47 84 -140
191 -220 304 -224 318 -4 14 16 15 164 14 321 -2 286 5 351 -63 31 -32 80 -86
107 -120 37 -45 55 -60 69 -57 13 4 16 2 8 -6 -12 -12 -5 -38 10 -38 6 0 8 7
4 15 -3 8 -1 15 3 15 5 0 12 -6 14 -12 3 -7 6 67 6 165 l1 178 -24 -25 c-28
-31 -41 -34 -24 -6 11 16 9 22 -9 40 -27 25 -33 25 -34 3 0 -10 -3 -13 -5 -6
-3 7 2 27 10 45 9 18 17 44 19 58 3 16 11 26 25 28 33 5 26 22 -8 22 -34 0
-40 15 -10 25 25 8 26 35 1 42 -10 3 -21 16 -24 29 -2 13 0 21 4 18 5 -3 9 4
9 16 0 11 7 23 15 26 8 4 15 13 15 21 0 10 7 14 20 10 20 -5 20 0 20 204 0
244 18 213 -151 253 -82 19 -132 25 -227 25 -163 -1 -178 13 -27 26 l120 10
-3 720 c-2 396 -5 721 -7 723 -2 2 -66 -2 -142 -8 -76 -6 -159 -12 -185 -13
-25 -1 -44 -5 -42 -8 5 -8 -144 -21 -217 -19 -59 2 -99 -7 -99 -21 0 -14 -48
0 -115 34 -37 18 -61 25 -63 18 -2 -6 -8 -11 -13 -11 -4 0 -6 7 -3 15 5 13 -2
15 -50 10 -32 -4 -56 -2 -56 3 0 5 -19 9 -42 9 -23 0 -44 5 -46 12 -2 6 -19
11 -37 11 -19 0 -37 5 -40 10 -3 6 -13 10 -21 10 -9 0 -12 -5 -8 -12 5 -7 3
-8 -6 -3 -7 4 -16 2 -21 -6 -15 -24 -10 -29 25 -29 19 0 37 -3 39 -7 3 -5 -21
-8 -53 -7 -49 1 -59 -2 -63 -18 -6 -21 -23 -20 -81 5 -21 9 -43 14 -49 10 -5
-3 -7 -1 -4 4 7 12 -50 36 -64 28 -4 -3 -12 3 -18 12 -7 13 -22 18 -60 18 -32
0 -45 3 -36 8 8 4 20 5 25 2 6 -3 10 -4 10 -1 0 9 -103 57 -108 51 -3 -3 10
-11 29 -19 19 -9 28 -15 22 -16 -17 0 -145 48 -186 71 -10 5 -22 7 -28 3 -16
-9 -61 5 -56 19 3 8 -10 13 -41 15 -25 2 -54 8 -65 13 -10 6 -41 11 -67 12
-57 2 -79 16 -29 18 34 2 34 2 -6 8 -26 4 -41 2 -43 -5 -2 -7 -17 -4 -42 9
-38 18 -55 32 -27 21 7 -2 24 0 38 5 18 7 20 10 6 10 -10 1 -15 6 -12 11 9 14
-8 12 -24 -2 -11 -11 -13 -10 -8 5 4 9 2 17 -3 17 -6 0 -10 -4 -10 -10 0 -5
-5 -10 -11 -10 -6 0 -8 7 -5 16 4 12 1 14 -13 9 -11 -3 -22 -1 -26 5 -3 6 -11
8 -16 5 -5 -4 -9 1 -9 11 0 14 -7 16 -46 11 -26 -2 -41 -1 -34 3 10 6 8 9 -6
14 -11 3 -7 4 8 2 15 -2 25 1 22 5 -3 5 -18 9 -35 9 -16 0 -29 5 -29 10 0 6
-9 10 -19 10 -11 0 -23 5 -26 10 -8 13 -58 13 -72 -1 -12 -12 -63 -2 -63 13 0
6 12 8 30 5 16 -4 30 -2 30 3 0 17 -17 19 -54 9 -32 -9 -40 -8 -51 8 -7 10
-11 20 -8 23 2 3 9 -3 14 -13 6 -9 15 -17 20 -17 6 0 7 5 3 12 -4 7 -3 8 4 4
7 -4 12 -2 12 3 0 6 -6 11 -12 11 -9 0 -8 4 2 10 11 8 8 9 -13 4 -23 -5 -26
-4 -20 11 5 15 2 17 -23 12 -25 -6 -26 -5 -8 4 17 9 35 5 90 -21 38 -17 81
-34 96 -37 16 -3 31 -10 34 -14 3 -5 25 -9 49 -9 36 0 43 -3 40 -17 -2 -15 4
-18 34 -18 20 0 41 -4 48 -10 7 -5 19 -16 27 -22 8 -7 20 -13 26 -13 5 0 10
-4 10 -9 0 -14 72 -44 104 -43 17 0 35 -3 41 -7 5 -5 24 -11 40 -14 29 -6 29
-6 -5 10 -138 64 -182 83 -194 83 -8 0 -21 7 -30 15 -20 21 -100 54 -147 61
-23 4 -36 11 -32 17 3 6 1 7 -5 3 -7 -4 -12 -3 -12 2 0 13 -68 43 -75 32 -3
-6 -11 -10 -16 -10 -6 0 -8 4 -4 9 3 6 -10 13 -29 16 -19 4 -37 13 -40 21 -7
18 -29 18 -69 0 -42 -17 -197 -56 -234 -59 -7 0 -13 -4 -13 -9 0 -5 -5 -6 -10
-3 -6 4 -8 11 -5 16 4 5 1 9 -4 9 -6 0 -11 -8 -11 -18 0 -12 15 -24 44 -36 25
-10 47 -25 50 -32 5 -12 2 -12 -15 -3 -16 8 -20 8 -14 0 5 -8 -1 -10 -19 -5
-21 5 -26 3 -25 -12 0 -11 3 -14 5 -7 7 16 34 5 34 -13 0 -18 -5 -18 -57 2
-43 17 -56 31 -28 31 8 0 15 -4 15 -9 0 -4 4 -8 10 -8 5 0 7 7 4 15 -4 8 -15
15 -26 15 -10 0 -17 4 -13 9 3 6 -4 9 -15 8 -11 -1 -20 -5 -20 -9 0 -4 -4 -8
-9 -8 -5 0 -7 9 -4 20 3 11 8 18 12 15 8 -4 61 38 61 50 0 4 -7 2 -15 -5 -12
-10 -18 -10 -30 0 -8 7 -15 18 -15 24 0 7 -18 20 -40 30 -30 13 -44 15 -60 6
-11 -6 -20 -8 -20 -4 0 3 -6 2 -13 -3 -14 -11 -37 -11 -37 0 0 4 0 11 0 17 0
5 8 6 17 3 12 -5 15 -2 11 9 -4 8 -1 15 7 15 7 0 11 -6 8 -14 -6 -15 13 -18
21 -4 3 5 15 7 26 4 12 -3 20 0 20 6 0 7 -4 9 -10 6 -5 -3 -18 -1 -27 5 -12 7
-13 10 -3 7 8 -2 23 0 34 5 13 7 16 7 12 -1 -8 -13 13 -14 33 -2 11 7 9 13 -8
30 -20 20 -48 30 -37 13 2 -4 -7 -7 -22 -6 -35 2 -34 1 -23 22 8 14 5 18 -12
19 -12 1 -27 -3 -34 -9 -7 -5 -19 -8 -27 -5 -19 7 -31 -24 -14 -36 10 -6 8 -7
-4 -4 -23 8 -45 -20 -30 -35 34 -34 -23 -45 -85 -18 -25 11 -63 23 -85 26 -38
7 -49 18 -25 28 6 3 3 4 -8 3 -12 -1 -19 3 -17 11 3 15 -13 16 -39 2 -13 -7
-19 -7 -19 0 0 5 6 10 14 10 7 0 19 6 25 14 9 11 25 8 94 -18 45 -17 85 -35
88 -40 4 -5 12 -5 18 -2 6 4 11 1 12 -6 0 -7 7 2 15 20 14 32 11 58 -6 47 -4
-3 -13 2 -20 10 -7 8 -29 15 -49 16 -36 1 -36 1 -8 11 32 12 27 28 -10 28 -18
0 -24 4 -19 15 3 9 1 15 -7 14 -26 -3 -38 1 -31 13 5 8 2 9 -9 5 -11 -4 -17
-1 -17 9 0 8 -12 19 -26 24 -33 13 -54 13 -34 0 21 -13 6 -12 -25 2 -27 12
-36 34 -9 24 8 -3 12 -2 9 4 -3 6 -13 10 -21 10 -8 0 -13 4 -10 9 4 5 -4 7
-16 3 -21 -5 -21 -6 -2 -14 13 -6 10 -7 -11 -2 -16 3 -36 12 -43 20 -8 9 -8
10 0 4 7 -6 18 -10 26 -10 12 0 12 3 2 15 -15 18 1 20 18 3 8 -8 12 -9 12 -1
0 6 -6 14 -12 16 -10 4 -10 8 0 15 11 7 10 11 -4 16 -9 3 -19 4 -22 1 -3 -3 1
-5 9 -5 10 -1 9 -4 -4 -14 -16 -12 -25 -12 -63 1 -49 17 -63 48 -16 37 l27 -6
-25 14 c-14 8 -27 12 -30 8 -14 -16 -126 14 -134 36 -7 17 16 18 32 2 7 -7 12
-8 12 -4 0 5 6 3 14 -3 10 -8 16 -9 21 -1 3 5 -1 13 -9 16 -9 3 -13 10 -10 15
3 5 -1 6 -9 3 -8 -3 -18 -1 -22 5 -3 6 -18 11 -33 12 l-27 1 25 7 c17 5 25 14
24 29 0 11 3 19 8 16 4 -3 13 -2 19 2 14 9 -60 44 -78 37 -7 -3 -13 0 -13 6 0
6 -7 11 -15 11 -8 0 -15 4 -15 9 0 5 -7 12 -16 15 -10 4 -13 2 -9 -7 4 -6 -2
-2 -12 9 -11 12 -30 25 -44 28 -13 4 -51 20 -84 36 -166 79 -263 123 -295 135
-19 7 -75 33 -124 59 -49 25 -97 46 -106 46 -9 0 -20 4 -25 9 -6 5 -80 39
-165 76 -232 100 -290 127 -290 135 0 17 -79 23 -342 27 l-278 4 0 -1111z
m240 945 c10 -12 10 -15 -4 -15 -9 0 -16 7 -16 15 0 8 2 15 4 15 2 0 9 -7 16
-15z m-30 -45 c0 -5 -4 -10 -10 -10 -5 0 -10 5 -10 10 0 6 5 10 10 10 6 0 10
-4 10 -10z m0 -99 c0 -39 -3 -72 -7 -74 -5 -3 -8 28 -9 69 0 41 3 74 8 74 4 0
8 -31 8 -69z m195 -170 c-9 -8 -36 -10 -30 -2 2 4 11 8 20 8 8 0 13 -3 10 -6z
m-4 -38 c-5 -10 -9 -22 -9 -26 0 -5 -3 -11 -6 -14 -7 -7 1 34 9 47 11 17 16
11 6 -7z m1113 -1 c2 -4 -4 -8 -14 -8 -10 0 -16 4 -14 8 3 4 9 8 14 8 5 0 11
-4 14 -8z m-1249 -30 c-3 -3 -11 0 -18 7 -9 10 -8 11 6 5 10 -3 15 -9 12 -12z
m774 -8 c14 -12 -19 -1 -35 12 -18 14 -18 14 6 3 14 -6 27 -13 29 -15z m-580
-22 c1 11 7 15 21 11 11 -3 20 -9 20 -14 0 -5 -7 -5 -17 -2 -10 4 -14 2 -10
-4 4 -7 0 -10 -10 -9 -10 2 -19 11 -20 22 -3 18 -2 18 6 -1 8 -16 10 -17 10
-3z m1008 2 c-3 -3 -12 -4 -19 -1 -8 3 -5 6 6 6 11 1 17 -2 13 -5z m195 -9 c9
4 18 0 21 -9 5 -12 0 -13 -26 -5 -18 5 -33 9 -34 9 -2 0 -3 5 -3 11 0 8 4 8
14 0 7 -6 20 -9 28 -6z m-945 -10 c0 -8 -4 -12 -9 -9 -5 3 -6 10 -3 15 9 13
12 11 12 -6z m-277 -15 c0 -5 -7 -7 -15 -4 -8 4 -15 8 -15 10 0 2 7 4 15 4 8
0 15 -4 15 -10z m626 -2 c4 -7 4 -10 -1 -6 -4 4 -15 2 -24 -5 -14 -11 -14 -10
-2 6 16 20 18 21 27 5z m779 -18 c3 -5 1 -10 -4 -10 -6 0 -11 5 -11 10 0 6 2
10 4 10 3 0 8 -4 11 -10z m-220 -18 c-3 -3 -11 0 -18 7 -9 10 -8 11 6 5 10 -3
15 -9 12 -12z m-471 0 c3 -5 -1 -9 -9 -9 -8 0 -12 4 -9 9 3 4 7 8 9 8 2 0 6
-4 9 -8z m670 -1 c11 -4 15 -10 9 -14 -5 -3 -19 0 -29 8 -20 15 -11 18 20 6z
m46 -11 c0 -5 -2 -10 -4 -10 -3 0 -8 5 -11 10 -3 6 -1 10 4 10 6 0 11 -4 11
-10z m-916 -36 c3 -8 2 -12 -4 -9 -6 3 -10 10 -10 16 0 14 7 11 14 -7z m91
-14 c3 -5 1 -10 -4 -10 -6 0 -11 5 -11 10 0 6 2 10 4 10 3 0 8 -4 11 -10z
m485 -53 c19 -10 24 -14 11 -11 -17 5 -21 3 -16 -6 5 -9 4 -11 -4 -6 -6 4 -8
12 -5 18 4 6 -1 8 -16 3 -13 -4 -20 -3 -17 2 3 5 -9 15 -28 21 -18 7 -39 19
-46 28 -11 14 1 9 121 -49z m-115 23 c3 -6 -1 -7 -9 -4 -18 7 -21 14 -7 14 6
0 13 -4 16 -10z m-390 -10 c-3 -5 -14 -10 -23 -9 -14 0 -13 2 3 9 27 11 27 11
20 0z m49 2 c3 -5 -1 -9 -9 -9 -8 0 -12 4 -9 9 3 4 7 8 9 8 2 0 6 -4 9 -8z
m306 -6 c0 -2 -7 -7 -16 -10 -8 -3 -12 -2 -9 4 6 10 25 14 25 6z m-515 -16 c3
-6 -1 -7 -9 -4 -18 7 -21 14 -7 14 6 0 13 -4 16 -10z m125 -12 c0 6 5 12 11
12 8 0 8 -5 -1 -15 -13 -16 -30 -11 -30 8 0 7 4 6 10 -3 6 -10 10 -11 10 -2z
m60 -9 c0 -14 -17 -10 -23 5 -4 10 -1 13 9 9 7 -3 14 -9 14 -14z m554 4 c4 -5
22 -13 39 -20 18 -6 25 -12 17 -12 -8 0 -33 8 -55 19 -22 11 -33 19 -24 20 9
0 19 -3 23 -7z m16 -43 c8 -5 11 -10 5 -10 -5 0 -17 5 -25 10 -8 5 -10 10 -5
10 6 0 17 -5 25 -10z m139 -24 c14 -8 49 -23 76 -34 28 -11 82 -34 120 -50 39
-17 105 -45 148 -62 43 -18 75 -36 70 -41 -11 -11 -99 16 -96 29 2 7 -8 7 -30
-1 -23 -8 -27 -12 -14 -15 21 -4 22 -18 2 -26 -8 -3 -14 0 -12 6 1 7 -7 13
-18 15 -16 3 -17 2 -5 -6 18 -12 4 -13 -25 -2 -17 7 -14 10 20 20 22 6 47 16
55 22 12 8 10 9 -9 4 -15 -5 -21 -3 -17 3 8 13 -17 22 -46 15 -18 -4 -20 -3
-8 6 12 8 9 12 -17 17 -18 4 -33 9 -33 13 0 4 -18 6 -39 6 -22 0 -38 2 -36 5
2 3 -1 12 -6 20 -6 11 -11 12 -17 3 -5 -8 -13 -8 -32 3 l-25 14 30 -5 c24 -4
23 -2 -10 10 -21 8 -42 20 -46 27 -4 6 -14 8 -24 5 -9 -4 -14 -3 -10 3 7 11
-30 8 -41 -3 -4 -4 -12 -7 -18 -7 -6 0 0 9 13 19 26 20 41 18 100 -13z m-375
-21 c-7 -18 7 -20 24 -3 18 18 15 1 -5 -29 -10 -15 -13 -24 -7 -20 7 4 18 -1
25 -11 13 -16 13 -16 -5 -2 -11 8 -22 14 -25 13 -3 -2 -7 2 -7 7 -3 24 -6 24
-20 0 -10 -17 -13 -18 -8 -5 3 11 7 27 7 35 0 8 5 18 11 22 15 11 16 10 10 -7z
m76 -39 c14 -16 18 -25 10 -21 -8 5 -23 10 -32 10 -26 2 -32 12 -17 28 8 8 14
14 14 13 0 0 11 -14 25 -30z m-3 -41 c0 -8 -4 -12 -9 -9 -5 3 -6 10 -3 15 9
13 12 11 12 -6z m86 3 c2 -7 1 -22 -4 -33 -5 -13 -8 -15 -8 -5 -1 13 -3 13
-12 0 -9 -12 -9 -11 -4 5 4 11 8 26 8 33 0 6 4 12 8 12 4 0 9 -6 12 -12z m-43
-58 c12 -8 11 -10 -7 -10 -12 0 -25 5 -28 10 -8 13 15 13 35 0z m415 0 c3 -6
-1 -7 -9 -4 -18 7 -21 14 -7 14 6 0 13 -4 16 -10z m72 4 c-3 -3 -12 -4 -19 -1
-8 3 -5 6 6 6 11 1 17 -2 13 -5z m-570 -10 c-3 -3 -12 -4 -19 -1 -8 3 -5 6 6
6 11 1 17 -2 13 -5z m668 -34 c-3 -5 -1 -10 4 -10 6 0 11 5 11 11 0 6 7 4 15
-5 17 -17 20 -46 4 -46 -5 0 -8 4 -5 8 2 4 1 14 -5 22 -5 8 -9 10 -9 4 0 -6
-7 -11 -15 -11 -8 0 -12 4 -9 9 3 4 -1 8 -8 8 -9 0 -9 3 2 10 19 12 23 12 15
0z m120 0 c-3 -5 -11 -10 -16 -10 -6 0 -7 5 -4 10 3 6 11 10 16 10 6 0 7 -4 4
-10z m-380 -13 c13 17 14 16 25 -12 6 -16 8 -40 5 -53 -4 -18 -2 -22 7 -16 8
4 10 3 5 -2 -5 -5 -9 -7 -10 -5 -1 2 -12 -1 -24 -8 -20 -10 -22 -9 -16 6 6 17
5 17 -14 1 -25 -23 -33 -23 -33 2 0 11 -3 19 -7 18 -5 -2 -10 2 -11 7 -2 6 -8
18 -14 29 -8 14 -7 17 3 11 9 -6 11 -3 6 9 -4 10 -3 15 4 11 5 -4 7 -15 4 -26
-4 -10 -2 -20 4 -20 6 -1 15 -2 20 -3 5 0 13 -5 18 -10 4 -5 3 -7 -3 -3 -6 3
-11 0 -11 -8 0 -11 4 -12 14 -4 16 14 17 46 1 51 -7 3 -9 11 -3 24 8 18 8 18
12 1 5 -18 5 -18 18 0z m-545 -1 c0 -3 -4 -8 -10 -11 -5 -3 -10 -1 -10 4 0 6
5 11 10 11 6 0 10 -2 10 -4z m135 -14 c-3 -3 -11 0 -18 7 -9 10 -8 11 6 5 10
-3 15 -9 12 -12z m545 -1 c0 -11 -6 -22 -12 -24 -7 -3 9 -4 37 -2 30 3 44 1
36 -4 -10 -6 -5 -11 18 -16 17 -3 31 -11 31 -16 0 -6 4 -8 9 -5 31 19 56 -35
29 -62 -19 -19 12 -15 33 4 12 10 25 14 36 9 15 -6 13 -10 -14 -21 -18 -8 -33
-19 -33 -24 0 -14 22 -12 46 4 17 12 20 12 20 -2 1 -21 8 -46 14 -52 3 -3 10
-14 16 -25 10 -18 8 -22 -13 -32 -20 -10 -24 -9 -20 1 5 13 -9 13 -51 0 -7 -2
-16 -4 -20 -4 -4 -1 -16 -9 -26 -18 -18 -16 -18 -16 -7 6 7 13 11 25 9 26 -85
53 -93 61 -89 89 0 4 -3 7 -9 7 -5 0 -10 -12 -10 -27 0 -30 -9 -27 -15 6 -2
13 2 24 9 27 15 6 16 28 2 41 -4 4 -6 1 -4 -7 2 -8 -3 -14 -10 -12 -8 1 -11
-2 -8 -7 4 -5 1 -13 -5 -17 -8 -4 -9 -3 -5 4 4 7 2 12 -4 12 -6 0 -9 3 -7 8 3
4 1 18 -4 31 -8 20 -11 22 -27 10 -9 -7 -14 -9 -10 -5 4 5 3 15 -3 22 -7 8 -6
14 2 20 7 4 9 3 5 -4 -3 -6 -2 -13 3 -17 12 -7 30 25 24 42 -2 6 0 14 6 17 6
4 8 13 4 21 -3 8 0 15 6 15 6 0 11 -9 11 -19z m450 10 c0 -5 -9 -7 -20 -4 -11
3 -20 7 -20 9 0 2 9 4 20 4 11 0 20 -4 20 -9z m40 -15 c0 -11 -19 -15 -25 -6
-3 5 1 10 9 10 9 0 16 -2 16 -4z m-230 -26 c0 -5 -2 -10 -4 -10 -3 0 -8 5 -11
10 -3 6 -1 10 4 10 6 0 11 -4 11 -10z m-487 -80 c3 -13 0 -20 -9 -20 -8 0 -14
9 -14 20 0 11 4 20 9 20 5 0 11 -9 14 -20z m399 -12 c-8 -8 -9 -4 -5 13 4 13
8 18 11 10 2 -7 -1 -18 -6 -23z m1113 -56 c-6 -7 -45 9 -45 18 0 4 11 3 24 -3
14 -7 23 -13 21 -15z m-1298 -14 c2 -17 0 -19 -7 -8 -5 8 -6 18 -4 22 8 12 10
10 11 -14z m743 12 c0 -5 -2 -10 -4 -10 -3 0 -8 5 -11 10 -3 6 -1 10 4 10 6 0
11 -4 11 -10z m-1229 -17 c13 -16 12 -17 -3 -4 -17 13 -22 21 -14 21 2 0 10
-8 17 -17z m1144 -13 c3 -6 -1 -7 -9 -4 -18 7 -21 14 -7 14 6 0 13 -4 16 -10z
m-282 -34 c10 3 17 13 17 21 0 8 5 11 10 8 8 -5 7 -12 -2 -22 -10 -12 -9 -18
7 -30 20 -15 20 -15 0 -9 -55 16 -120 45 -123 54 -1 5 15 1 36 -9 21 -11 46
-17 55 -13z m-382 -9 c-10 -9 -11 -8 -5 6 3 10 9 15 12 12 3 -3 0 -11 -7 -18z
m100 10 c-6 -8 -7 -18 -3 -22 4 -5 2 -5 -5 -1 -14 8 -6 36 9 36 7 0 6 -5 -1
-13z m535 -33 c-3 -7 2 -20 10 -29 18 -18 11 -19 -17 -4 -14 7 -18 16 -14 30
6 18 5 19 -14 10 -18 -10 -21 -9 -21 8 0 18 3 19 31 9 19 -6 28 -15 25 -24z
m-1724 12 c12 -17 -1 -24 -35 -19 -26 4 -30 2 -19 -8 6 -7 12 -20 12 -28 -1
-10 -6 -7 -15 9 -8 15 -10 29 -4 36 5 6 7 13 4 15 -2 3 8 5 23 5 15 0 30 -4
34 -10z m1844 5 c-10 -15 11 -58 28 -58 9 0 16 5 17 11 0 6 5 0 10 -13 5 -13
7 -32 4 -42 -5 -15 -2 -18 12 -13 12 4 7 -4 -12 -22 -16 -15 -29 -31 -27 -36
1 -4 -2 -8 -8 -8 -5 0 -10 5 -10 11 0 5 -4 8 -8 5 -5 -3 -7 -19 -6 -36 1 -17
-1 -29 -4 -25 -9 9 -12 96 -2 90 5 -3 12 0 16 7 4 7 4 10 -1 6 -4 -4 -14 3
-21 17 -16 31 -7 115 12 115 3 0 3 -4 0 -9z m297 -31 c79 -32 126 -67 91 -67
-8 0 -14 4 -14 8 0 5 -7 6 -15 2 -10 -3 -15 0 -13 8 2 10 -6 13 -27 11 -24 -2
-27 -1 -15 8 12 9 10 10 -9 5 -16 -5 -21 -4 -17 4 4 6 1 11 -6 12 -7 1 -32 3
-56 5 -25 2 -41 0 -37 -5 3 -5 0 -13 -6 -16 -7 -5 -10 -1 -7 11 2 10 14 21 28
25 17 5 19 7 7 8 -10 1 -15 6 -12 12 4 5 10 9 15 7 4 -2 46 -19 93 -38z
m-2093 21 c0 -4 10 -6 23 -4 30 6 109 -15 102 -27 -3 -4 4 -6 15 -3 12 3 20 0
20 -6 0 -7 5 -9 11 -5 15 9 86 -25 86 -42 0 -8 -7 -14 -14 -14 -9 0 -11 -5 -6
-12 21 -35 6 -56 -28 -38 -19 10 -20 10 -10 -8 8 -15 8 -22 -2 -25 -9 -4 -8
-8 3 -16 13 -9 13 -11 -1 -11 -9 0 -22 7 -29 15 -11 13 -15 13 -29 -4 -17 -19
-17 -19 -29 0 -7 11 -10 25 -6 32 5 9 3 9 -7 0 -7 -7 -19 -13 -27 -13 -8 0
-23 -10 -33 -22 -14 -16 -16 -24 -8 -35 9 -10 8 -13 -2 -13 -11 0 -11 -2 1
-10 13 -8 13 -10 -2 -10 -20 0 -28 19 -16 43 5 10 5 17 -1 17 -5 0 -12 -7 -15
-16 -4 -11 -13 -14 -27 -11 -17 5 -18 3 -7 -10 11 -14 10 -16 -14 -10 -17 5
-30 3 -34 -5 -5 -8 -10 -6 -15 8 -4 13 0 26 14 41 19 22 22 22 39 6 11 -10 18
-12 18 -4 0 6 -7 14 -15 17 -12 5 -13 9 -4 20 9 11 5 16 -21 25 -23 9 -28 14
-18 20 10 7 10 9 -2 10 -8 1 -20 1 -27 0 -6 -1 -14 3 -18 8 -3 6 -13 7 -23 4
-14 -5 -15 -3 -4 8 9 9 15 10 23 2 6 -6 33 -9 65 -6 35 3 54 1 54 -6 0 -6 7
-11 16 -11 9 0 12 5 8 12 -4 7 -3 8 4 4 7 -4 20 -9 31 -11 14 -3 18 1 14 16
-6 22 2 20 -90 28 -7 1 -13 6 -13 11 0 7 6 7 20 0 14 -8 20 -8 20 0 0 6 4 9 8
6 5 -3 9 1 9 9 0 8 -4 15 -9 15 -4 0 -8 8 -8 18 0 14 -2 15 -10 2 -6 -9 -5
-17 3 -22 14 -9 13 -9 -30 -11 -17 -1 -29 1 -26 6 2 4 10 7 18 7 7 0 17 9 20
20 6 19 35 29 35 11z m1640 -42 c0 -6 -5 -7 -11 -3 -8 5 -10 -1 -7 -19 3 -17
1 -24 -7 -21 -7 3 -12 20 -11 39 1 28 4 32 19 24 9 -5 17 -14 17 -20z m-676 5
c9 -24 7 -28 -9 -14 -17 14 -20 30 -6 30 5 0 12 -7 15 -16z m571 6 c3 -5 1
-10 -4 -10 -6 0 -11 5 -11 10 0 6 2 10 4 10 3 0 8 -4 11 -10z m-280 -8 c6 -4
11 -13 13 -20 2 -10 -2 -10 -18 0 -20 13 -27 28 -12 28 4 0 12 -4 17 -8z m785
-15 c24 -6 24 -5 6 8 -11 8 -15 15 -9 15 6 0 16 -6 22 -14 7 -8 34 -22 62 -32
27 -10 49 -22 49 -27 0 -4 4 -6 8 -3 4 2 14 1 22 -5 12 -7 12 -9 -4 -9 -15 0
-16 -3 -6 -15 19 -23 6 -18 -24 10 -15 14 -32 25 -39 25 -7 -1 -1 -7 13 -15
36 -20 20 -18 -44 6 -31 12 -56 27 -56 34 0 7 -11 16 -25 19 -15 4 -23 11 -19
17 4 7 9 7 13 2 3 -6 17 -13 31 -16z m-790 -17 c0 -5 -5 -10 -11 -10 -5 0 -7
5 -4 10 3 6 8 10 11 10 2 0 4 -4 4 -10z m260 6 c0 -2 -7 -7 -16 -10 -8 -3 -12
-2 -9 4 6 10 25 14 25 6z m1195 -6 c3 -6 -1 -7 -9 -4 -18 7 -21 14 -7 14 6 0
13 -4 16 -10z m-330 -64 c55 -22 102 -42 105 -46 3 -3 32 -15 64 -25 32 -11
66 -26 75 -33 15 -11 -100 27 -183 62 -45 19 -59 20 -31 3 24 -15 32 -39 9
-30 -9 3 -19 1 -23 -5 -4 -6 -17 -9 -29 -5 -12 3 -19 10 -15 15 3 6 0 8 -8 6
-8 -3 -25 4 -39 16 -15 13 -20 15 -11 4 12 -16 11 -17 -18 -7 -17 6 -28 15
-25 20 3 6 1 16 -6 24 -9 10 -7 15 10 20 11 3 17 11 14 17 -4 6 -3 9 2 7 5 -2
54 -22 109 -43z m-675 20 c0 -3 -4 -8 -10 -11 -5 -3 -10 -1 -10 4 0 6 5 11 10
11 6 0 10 -2 10 -4z m320 -10 c0 -3 -4 -8 -10 -11 -5 -3 -10 -1 -10 4 0 6 5
11 10 11 6 0 10 -2 10 -4z m70 -57 c0 -7 3 -10 6 -6 4 3 12 1 20 -6 32 -29 44
-37 44 -32 0 4 7 0 15 -9 23 -23 18 -28 -10 -10 -14 9 -25 12 -25 6 0 -5 15
-20 33 -32 23 -15 26 -20 10 -15 -19 5 -22 3 -16 -12 6 -15 5 -16 -9 -3 -8 8
-13 22 -10 30 5 12 3 13 -10 2 -13 -10 -17 -10 -21 2 -3 8 -1 17 6 19 7 2 9 7
6 11 -4 4 -13 0 -22 -8 -16 -17 -28 -11 -21 9 3 7 17 12 30 10 16 -1 22 1 16
7 -12 12 -63 18 -57 7 3 -4 1 -10 -4 -13 -12 -8 -61 14 -61 26 0 5 5 6 10 3
11 -7 13 5 10 44 -1 14 2 21 9 17 6 -4 11 -2 11 5 0 6 9 0 20 -14 11 -14 20
-31 20 -38z m-383 19 c-3 -7 -5 -2 -5 12 0 14 2 19 5 13 2 -7 2 -19 0 -25z
m272 14 c5 -10 7 -22 3 -28 -10 -13 -42 -14 -42 -2 0 7 -5 7 -13 0 -10 -8 -12
-5 -11 16 1 15 3 28 3 30 4 11 52 -2 60 -16z m-2036 -15 c4 3 7 4 7 2 0 -2
-14 -17 -31 -33 -25 -24 -30 -26 -27 -10 2 12 -4 19 -17 22 -12 2 -16 0 -9 -5
6 -4 13 -22 16 -40 l4 -32 -28 17 c-34 20 -35 32 -3 62 14 13 25 20 25 16 0
-4 8 -3 17 3 11 6 22 6 29 0 6 -5 14 -6 17 -2z m1517 -7 c-11 -11 -23 -20 -27
-20 -3 0 2 9 12 20 10 11 22 20 27 20 4 0 -1 -9 -12 -20z m439 -17 c3 -2 -6
-2 -19 0 -13 2 -26 9 -28 16 -3 10 0 10 19 1 13 -7 26 -14 28 -17z m-1659 3
c0 -3 -4 -8 -10 -11 -5 -3 -10 -1 -10 4 0 6 5 11 10 11 6 0 10 -2 10 -4z
m1452 -41 c-4 -5 -8 -2 -10 8 -2 9 -8 17 -13 17 -6 0 -7 5 -4 11 5 6 12 4 20
-8 7 -10 10 -22 7 -28z m152 29 c3 -8 2 -12 -4 -9 -6 3 -10 10 -10 16 0 14 7
11 14 -7z m980 0 c6 -15 4 -15 -11 -3 -10 7 -20 15 -22 16 -2 2 3 3 11 3 9 0
19 -7 22 -16z m-2721 -19 c-6 -17 -12 -18 -32 -6 -11 7 -10 11 5 19 23 13 35
7 27 -13z m2081 17 c3 -5 -1 -9 -9 -9 -8 0 -12 4 -9 9 3 4 7 8 9 8 2 0 6 -4 9
-8z m-2019 -12 c-3 -5 -12 -10 -18 -10 -7 0 -6 4 3 10 19 12 23 12 15 0z
m1727 -2 c-9 -9 -15 -9 -24 0 -9 9 -7 12 12 12 19 0 21 -3 12 -12z m-1638 -6
c3 -5 -1 -9 -9 -9 -8 0 -12 4 -9 9 3 4 7 8 9 8 2 0 6 -4 9 -8z m2075 -26 c23
4 71 -28 71 -48 0 -4 13 -22 29 -39 27 -28 29 -29 24 -7 -4 13 -11 26 -17 30
-7 5 -7 8 -1 8 19 0 30 -15 32 -43 2 -25 0 -27 -20 -21 -19 6 -20 5 -9 -9 12
-14 11 -15 -12 -4 -14 7 -26 19 -26 28 0 23 -11 30 -27 17 -11 -9 -16 -9 -22
1 -5 7 -10 12 -12 11 -2 -1 -12 2 -22 5 -9 4 -23 3 -30 -3 -8 -7 -16 -6 -24 3
-15 16 -2 28 20 19 11 -4 14 1 12 20 -2 14 -7 31 -11 38 -6 10 -5 10 7 2 8 -6
25 -10 38 -8z m-445 -5 c3 -5 -1 -11 -9 -14 -9 -4 -12 -1 -8 9 6 16 10 17 17
5z m156 -18 c0 -21 -3 -24 -9 -14 -5 8 -7 20 -4 28 8 21 13 15 13 -14z m44
-15 c-3 -5 2 -8 10 -8 22 0 20 -17 -3 -30 -28 -14 -27 -15 -27 34 0 38 2 42
12 28 7 -9 10 -20 8 -24z m-1730 -22 c-16 -115 -40 -192 -70 -223 -18 -19 -29
-16 -13 3 13 16 23 51 11 39 -4 -4 -7 -10 -6 -13 0 -4 -8 -16 -18 -26 -20 -21
-23 -42 -9 -50 11 -7 797 -204 831 -208 14 -2 30 -6 35 -9 6 -4 24 -9 40 -13
24 -5 26 -4 13 4 -10 6 -20 10 -24 10 -3 -1 -13 8 -23 18 -9 11 -28 22 -41 25
-21 4 -20 5 8 6 18 0 32 -4 32 -11 0 -6 3 -9 6 -6 3 4 0 16 -6 28 -9 16 -9 20
-1 15 7 -4 18 -1 26 5 8 6 20 9 27 5 7 -4 4 1 -7 10 -11 9 -30 14 -43 12 -12
-2 -25 0 -29 6 -4 6 -1 7 8 2 8 -5 11 -4 6 0 -10 12 -77 14 -77 3 0 -5 -5 -6
-11 -3 -6 5 -2 13 11 22 16 12 18 18 9 29 -6 7 -15 11 -20 8 -16 -9 -10 3 8
17 10 8 14 9 10 2 -4 -6 -3 -14 3 -18 11 -7 42 8 41 18 -3 20 1 25 19 30 11 3
20 0 21 -6 0 -8 2 -8 6 1 7 18 24 15 48 -8 23 -22 65 -35 65 -20 0 4 9 6 20 3
11 -3 20 -9 20 -14 0 -5 4 -9 10 -9 5 0 7 7 4 15 -4 8 -2 15 3 15 5 0 9 9 9
20 0 11 -4 20 -8 20 -4 0 -8 5 -8 10 0 6 7 10 15 10 12 0 13 4 5 19 -17 33
-12 46 11 25 11 -10 18 -26 16 -36 -3 -11 0 -18 9 -18 8 0 14 -5 14 -11 0 -5
4 -8 9 -5 15 10 32 -21 26 -47 -4 -13 -8 -44 -9 -68 -4 -48 -25 -114 -51 -153
-16 -25 -16 -25 22 -35 21 -6 56 -14 78 -19 22 -5 120 -31 219 -57 187 -49
279 -67 270 -54 -2 4 0 10 6 14 5 3 10 -2 11 -12 0 -10 4 -6 9 11 10 32 4 50
-12 40 -7 -5 -8 -2 -4 5 5 7 14 10 22 7 7 -3 16 0 20 6 4 6 3 8 -3 5 -6 -4
-13 0 -16 7 -3 8 -1 16 6 19 6 2 4 6 -5 10 -13 4 -16 1 -13 -14 2 -10 0 -19
-5 -19 -16 0 -17 25 -3 42 9 10 12 22 7 30 -11 17 -11 68 0 61 4 -3 5 5 1 18
-7 21 -6 22 8 10 14 -11 17 -11 21 0 8 26 3 47 -11 42 -9 -3 -11 0 -7 10 6 17
-26 19 -38 2 -5 -6 -8 -6 -8 1 0 6 7 17 15 24 8 7 15 23 15 36 0 17 6 24 19
24 11 0 22 -4 25 -9 3 -4 17 -6 31 -3 19 3 25 0 25 -14 0 -16 2 -17 10 -4 8
13 13 13 37 0 38 -21 38 -60 1 -78 -31 -14 -37 -37 -12 -46 8 -3 12 -2 9 4 -3
6 1 10 9 10 11 0 16 -10 16 -32 0 -49 -26 -161 -48 -211 l-19 -44 81 -20 81
-20 12 28 c7 15 17 31 24 34 6 4 3 -7 -6 -25 -9 -17 -14 -34 -11 -37 6 -7 108
-34 271 -74 72 -17 132 -33 134 -35 20 -18 -35 -8 -201 35 -255 66 -497 128
-803 206 -137 35 -356 91 -485 124 -129 33 -323 83 -430 111 -107 29 -316 83
-465 120 -750 189 -1055 269 -1075 280 -29 18 12 11 150 -26 236 -62 642 -164
652 -164 5 0 7 4 3 9 -3 6 3 18 14 28 10 10 22 28 25 41 4 12 11 20 16 17 18
-11 21 16 4 37 -10 14 -14 16 -11 6 3 -9 -1 -19 -10 -22 -9 -4 -17 1 -20 12
-2 10 -13 19 -24 19 -11 1 -33 13 -48 26 -27 22 -28 24 -10 35 24 15 39 15 39
1 0 -6 -7 -9 -15 -6 -8 4 -17 1 -21 -5 -4 -7 -3 -8 5 -4 6 4 14 0 17 -8 5 -14
8 -14 21 0 13 13 18 13 25 2 8 -10 9 -10 5 2 -2 8 -10 14 -16 13 -17 -4 -13
17 5 24 9 3 20 0 24 -8 5 -7 12 -10 15 -7 4 4 18 3 31 -2 17 -7 24 -6 24 3 1
8 5 7 13 -3 7 -8 25 -21 40 -28 17 -7 25 -17 21 -24 -4 -6 -3 -8 4 -4 6 3 14
2 17 -4 5 -8 11 -8 19 -1 7 6 15 8 18 5 3 -3 9 0 14 7 5 8 3 10 -6 4 -10 -6
-12 -4 -7 8 4 11 2 14 -9 10 -7 -3 -14 -1 -14 5 0 12 28 24 40 17 4 -3 10 2
13 9 4 9 -1 17 -11 19 -15 4 -15 5 1 6 22 1 33 -25 17 -44 -9 -11 -8 -14 9
-12 12 1 21 5 21 9 0 4 6 8 14 8 13 0 31 26 28 41 -1 3 10 4 23 1 23 -4 24 -8
19 -46z m2146 44 c8 -5 11 -10 5 -10 -5 0 -17 5 -25 10 -8 5 -10 10 -5 10 6 0
17 -5 25 -10z m165 0 c3 -5 2 -10 -4 -10 -5 0 -13 5 -16 10 -3 6 -2 10 4 10 5
0 13 -4 16 -10z m-835 -13 c15 -12 23 -47 11 -47 -16 1 -35 20 -38 39 -3 24 5
26 27 8z m-220 -1 c0 -11 -19 -15 -25 -6 -3 5 1 10 9 10 9 0 16 -2 16 -4z m25
-27 c11 -17 -1 -21 -15 -4 -8 9 -8 15 -2 15 6 0 14 -5 17 -11z m-1455 -35 c0
-19 -16 -10 -31 17 -10 19 -9 20 10 9 12 -6 21 -18 21 -26z m1805 6 c3 -5 1
-10 -4 -10 -6 0 -11 5 -11 10 0 6 2 10 4 10 3 0 8 -4 11 -10z m260 0 c3 -5 2
-10 -4 -10 -5 0 -13 5 -16 10 -3 6 -2 10 4 10 5 0 13 -4 16 -10z m73 1 c10 -6
9 -11 -4 -22 -12 -9 -15 -10 -10 -1 4 6 2 12 -3 12 -6 0 -11 5 -11 10 0 12 10
13 28 1z m182 -1 c0 -5 7 -10 15 -10 9 0 12 -6 8 -17 -5 -12 -3 -14 7 -8 8 5
11 4 7 -2 -9 -14 -54 -4 -61 13 -3 8 -1 14 5 14 6 0 7 5 4 10 -3 6 -1 10 4 10
6 0 11 -4 11 -10z m-146 -42 c-3 -4 -11 -5 -20 -1 -11 4 -12 8 -3 20 10 11 14
11 20 1 4 -6 6 -15 3 -20z m260 10 c-4 -7 -2 -8 4 -4 7 4 17 4 23 0 8 -5 8 -9
-1 -14 -8 -5 -7 -9 5 -13 9 -4 14 -3 11 2 -9 14 26 23 38 11 8 -8 5 -10 -9 -5
-11 3 -5 -2 13 -10 18 -9 37 -13 43 -10 5 4 16 -1 25 -10 9 -9 23 -14 31 -11
8 3 11 1 8 -4 -3 -6 -1 -10 5 -10 6 0 8 -4 5 -10 -3 -5 1 -10 10 -10 9 0 13 5
10 10 -11 17 11 11 35 -10 13 -11 28 -20 33 -20 6 0 2 7 -9 16 -18 14 -18 15
4 4 12 -6 20 -15 17 -21 -4 -5 0 -12 8 -15 9 -3 13 -13 10 -25 -3 -11 -11 -18
-17 -16 -41 15 -58 18 -52 9 3 -6 1 -14 -6 -18 -7 -4 -10 -3 -5 1 4 5 1 15 -7
24 -8 9 -16 25 -19 36 -4 19 -5 19 -6 -2 -1 -17 -6 -20 -23 -15 -16 4 -19 2
-13 -9 4 -8 -2 -4 -14 9 -19 19 -25 21 -39 10 -10 -8 -13 -9 -9 -1 4 6 3 14
-3 18 -5 3 -10 0 -10 -7 -1 -8 -6 -6 -15 6 -25 33 -24 14 1 -48 13 -33 22 -61
20 -63 -5 -6 -62 120 -58 130 1 4 -3 7 -9 7 -8 0 -8 4 1 14 10 13 8 13 -14 3
-17 -8 -21 -13 -11 -15 8 -2 15 -8 15 -12 0 -6 -12 -5 -26 1 -23 8 -25 7 -16
-4 12 -14 7 -27 -10 -27 -5 0 -7 4 -4 9 3 5 -3 20 -14 32 -18 21 -19 22 -14 4
6 -18 5 -17 -10 3 -10 12 -24 22 -32 22 -17 0 -19 16 -2 26 7 5 8 2 3 -7 -4
-8 6 1 22 20 20 24 34 32 43 26 11 -7 10 -10 -6 -16 -17 -7 -17 -8 4 -8 16 -1
22 5 22 20 0 11 5 17 10 14 6 -4 7 -11 4 -17z m-2640 -7 c4 -5 -3 -7 -14 -4
-23 6 -26 13 -6 13 8 0 17 -4 20 -9z m2241 -1 c3 -5 -1 -10 -9 -10 -9 0 -16 5
-16 10 0 6 4 10 9 10 6 0 13 -4 16 -10z m-45 -4 c0 -2 -7 -9 -15 -16 -13 -11
-14 -10 -9 4 5 14 24 23 24 12z m1220 -16 c8 -5 11 -10 5 -10 -5 0 -17 5 -25
10 -8 5 -10 10 -5 10 6 0 17 -5 25 -10z m-920 -26 c0 12 26 -18 34 -39 4 -11
4 -17 1 -13 -4 3 -18 0 -33 -8 -20 -10 -29 -11 -41 -1 -8 7 -17 12 -20 12 -3
0 -5 4 -3 9 1 4 -3 16 -10 25 -12 14 -11 15 4 2 23 -18 50 -7 41 16 -6 16 -5
16 10 4 9 -7 17 -10 17 -7z m1105 5 c-4 -6 2 -13 14 -16 12 -3 21 -9 21 -14 0
-12 -4 -11 -34 3 -20 9 -23 14 -15 25 14 16 23 18 14 2z m35 1 c0 -5 -2 -10
-4 -10 -3 0 -8 5 -11 10 -3 6 -1 10 4 10 6 0 11 -4 11 -10z m-2211 -31 c-22
-14 -29 -11 -29 11 0 18 3 19 21 9 17 -9 19 -13 8 -20z m2246 11 c3 -5 1 -10
-4 -10 -6 0 -11 5 -11 10 0 6 2 10 4 10 3 0 8 -4 11 -10z m-2502 -15 c-3 -9
-8 -14 -10 -11 -3 3 -2 9 2 15 9 16 15 13 8 -4z m38 -18 c-10 -9 -11 -8 -5 6
3 10 9 15 12 12 3 -3 0 -11 -7 -18z m1203 -25 c-1 -2 -11 5 -23 14 -14 13 -17
20 -9 25 10 7 39 -29 32 -39z m-1094 -3 c0 -20 -3 -38 -6 -42 -10 -9 -34 4
-34 19 0 8 -5 14 -11 14 -5 0 -7 5 -4 10 3 6 2 10 -4 10 -6 0 -8 7 -5 15 4 8
17 13 35 12 26 -2 29 -5 29 -38z m120 26 c0 -9 -6 -12 -16 -8 -13 5 -13 7 -2
14 17 11 18 11 18 -6z m1793 -9 c4 -10 0 -12 -14 -9 -10 3 -16 9 -13 14 8 13
21 11 27 -5z m-2098 -15 c3 -6 -4 -9 -15 -8 -11 1 -20 5 -20 9 0 11 28 10 35
-1z m63 -14 c-1 -2 3 -11 11 -20 9 -12 10 -17 2 -17 -7 0 -9 -5 -5 -12 6 -9 3
-9 -9 0 -9 8 -20 11 -26 8 -5 -3 -12 1 -15 10 -3 9 -2 12 5 9 14 -9 40 15 32
29 -3 6 -3 8 1 4 4 -3 6 -8 4 -11z m2012 3 c0 -5 -5 -10 -11 -10 -5 0 -7 5 -4
10 3 6 8 10 11 10 2 0 4 -4 4 -10z m-350 -30 c8 -5 11 -10 5 -10 -5 0 -17 5
-25 10 -8 5 -10 10 -5 10 6 0 17 -5 25 -10z m-1589 -14 c5 3 9 0 9 -6 0 -7 -7
-9 -16 -6 -9 3 -21 6 -27 6 -7 0 -6 4 3 10 10 6 16 6 18 0 2 -6 8 -8 13 -4z
m1784 -6 c-3 -4 0 -11 5 -13 6 -3 5 -4 -2 -3 -7 1 -15 11 -16 21 -3 11 0 15 7
10 6 -3 9 -10 6 -15z m-105 0 c4 0 10 -6 13 -14 6 -14 -5 -15 -35 -1 -22 9
-24 29 -2 21 9 -3 19 -6 24 -6z m-10 -41 c0 -6 -4 -7 -10 -4 -5 3 -10 11 -10
16 0 6 5 7 10 4 6 -3 10 -11 10 -16z m116 -5 c-18 -17 -26 -18 -26 -1 0 7 9
13 20 14 18 2 18 0 6 -13z m39 -25 c11 -17 2 -18 -19 -3 -17 12 -17 14 -4 14
9 0 20 -5 23 -11z m-1279 -109 c0 -11 -4 -20 -8 -20 -4 0 -8 2 -8 4 0 2 -3 11
-6 20 -4 10 -1 16 8 16 7 0 14 -9 14 -20z m1106 11 c2 7 4 -5 5 -25 1 -20 0
-36 -2 -36 -4 0 -35 61 -35 68 0 2 6 -1 14 -7 11 -9 15 -9 18 0z m90 -45 c-5
-20 -5 -20 -13 0 -13 33 -11 47 4 32 8 -7 12 -21 9 -32z m-244 -8 c4 -19 -25
-32 -34 -16 -5 7 -2 8 6 3 9 -6 10 -2 5 15 -5 16 -4 21 6 18 8 -3 15 -12 17
-20z m-3414 6 c9 -3 16 -15 16 -25 0 -18 -2 -19 -30 -4 -46 24 -34 47 14 29z
m3776 -18 c0 6 7 11 15 11 23 0 18 -11 -11 -24 -32 -15 -50 -7 -33 13 10 12
14 12 20 2 5 -7 9 -8 9 -2z m-50 -6 c0 -5 -8 -10 -17 -10 -15 0 -16 2 -3 10
19 12 20 12 20 0z m-1130 -15 c0 -8 -4 -15 -8 -15 -5 0 -9 7 -9 15 0 8 4 15 9
15 4 0 8 -7 8 -15z m929 -158 c32 -17 33 -17 27 0 -6 17 -5 17 8 0 11 -14 15
-15 25 -4 6 8 7 18 3 22 -4 5 -1 5 6 1 10 -6 10 -11 1 -22 -18 -22 4 -42 26
-24 19 16 20 0 4 -86 -12 -68 -33 -119 -62 -151 -11 -13 -18 -23 -14 -23 3 0
75 -18 159 -40 165 -43 218 -50 196 -26 -7 8 -16 12 -19 10 -4 -2 -9 8 -12 21
-2 14 0 28 5 31 6 4 5 10 -3 15 -8 5 -17 3 -21 -4 -4 -7 -8 -7 -8 -2 0 6 5 17
10 25 9 13 10 13 10 0 0 -13 1 -13 10 0 6 9 5 19 -3 28 -6 8 -12 24 -14 35 -2
16 -1 18 6 8 5 -8 16 -11 29 -7 16 6 21 1 26 -22 6 -24 49 -82 61 -82 7 0 1
33 -8 48 -5 6 -3 13 2 13 6 1 16 3 21 4 6 1 15 3 21 4 5 0 8 5 5 10 -7 10 -25
9 -43 -2 -8 -5 -13 -3 -13 5 0 9 16 14 48 15 33 2 43 0 32 -7 -13 -8 -12 -10
3 -10 10 0 17 -8 17 -20 0 -16 -7 -20 -37 -21 -31 -2 -33 -3 -10 -6 30 -5 27
-23 -4 -23 -11 0 -17 -5 -14 -10 4 -7 12 -7 25 0 24 13 30 13 30 0 0 -5 -9
-10 -20 -10 -23 0 -27 -18 -5 -26 13 -5 13 -10 0 -40 l-14 -34 37 -9 c205 -52
359 -95 366 -101 7 -7 -31 1 -222 45 -18 4 -22 2 -16 -7 4 -7 -2 -5 -13 5 -24
21 -40 23 -23 2 10 -12 10 -15 0 -15 -6 0 -14 10 -17 21 -6 21 -6 21 -25 -2
-11 -13 -17 -18 -13 -11 8 15 0 15 -26 2 -10 -6 -19 -8 -19 -6 0 3 12 12 27
20 l28 14 -45 12 c-25 6 -78 20 -119 31 -58 16 -76 18 -85 8 -8 -9 -8 -10 1
-5 19 10 108 -15 91 -26 -9 -6 -6 -7 10 -3 12 4 35 0 52 -8 16 -9 40 -13 52
-11 23 5 23 5 0 -6 -13 -5 -27 -8 -31 -5 -5 2 -23 0 -42 -5 -33 -10 -55 -5
-99 21 -8 5 -23 12 -32 15 -17 6 -22 16 -19 40 2 14 -85 37 -102 28 -7 -4 -8
-3 -4 2 7 7 -224 75 -298 87 -33 6 -99 29 -109 38 -5 4 8 5 29 2 31 -5 37 -4
29 8 -12 19 -14 39 -4 39 4 0 10 9 13 19 5 20 -17 36 -34 25 -5 -3 -9 1 -9 10
0 8 5 16 10 18 6 2 13 19 15 38 3 25 2 31 -5 20 -8 -12 -10 -10 -10 8 0 16 -4
21 -12 16 -8 -5 -7 0 2 11 13 16 15 16 18 2 2 -10 8 -17 13 -17 6 0 7 5 4 10
-4 6 5 5 20 -2 19 -8 24 -16 19 -32 -4 -17 -3 -18 5 -6 6 8 8 25 4 38 -4 16
-2 21 9 17 9 -4 20 4 28 20 7 14 16 22 19 18 3 -5 21 -16 40 -26z m-429 -77
c0 -5 -2 -10 -4 -10 -3 0 -8 5 -11 10 -3 6 -1 10 4 10 6 0 11 -4 11 -10z m222
-44 c7 -13 7 -17 -3 -14 -7 2 -14 17 -15 34 -2 16 0 22 3 14 3 -8 10 -23 15
-34z m38 32 c0 -4 -9 -8 -20 -8 -11 0 -20 4 -20 8 0 4 9 8 20 8 11 0 20 -4 20
-8z m684 -32 c23 5 26 3 26 -20 0 -30 -2 -31 -39 -12 -25 13 -31 13 -50 -1
-15 -10 -26 -12 -33 -5 -6 6 -6 12 3 17 8 5 10 4 5 -3 -11 -17 9 -15 24 3 10
12 10 18 -1 32 -13 15 -12 15 12 -1 18 -11 36 -15 53 -10z m-284 -6 c0 -5 -5
-10 -11 -10 -5 0 -7 5 -4 10 3 6 8 10 11 10 2 0 4 -4 4 -10z m85 -50 c3 -5 1
-10 -4 -10 -6 0 -11 5 -11 10 0 6 2 10 4 10 3 0 8 -4 11 -10z m-470 -140 c3
-5 1 -10 -4 -10 -6 0 -11 5 -11 10 0 6 2 10 4 10 3 0 8 -4 11 -10z m-875 -15
c0 -17 -2 -18 -24 -9 -23 9 -20 24 4 24 11 0 20 -7 20 -15z m-163 -1 c-3 -3
-12 -4 -19 -1 -8 3 -5 6 6 6 11 1 17 -2 13 -5z m1378 -34 c8 -13 -5 -13 -25 0
-13 8 -13 10 2 10 9 0 20 -4 23 -10z m55 -10 c0 -5 12 -10 28 -11 26 0 26 -1
5 -9 -13 -5 -23 -14 -23 -20 0 -6 -10 -4 -24 5 -15 10 -34 14 -52 10 -22 -5
-25 -4 -14 4 12 9 11 11 -10 12 -14 1 -18 3 -9 6 9 2 36 -3 60 -11 40 -14 72
-14 35 0 -17 7 -22 24 -6 24 6 0 10 -4 10 -10z m-1193 -6 c-3 -3 -12 -4 -19
-1 -8 3 -5 6 6 6 11 1 17 -2 13 -5z m100 -20 c-3 -3 -12 -4 -19 -1 -8 3 -5 6
6 6 11 1 17 -2 13 -5z m50 -10 c-3 -3 -12 -4 -19 -1 -8 3 -5 6 6 6 11 1 17 -2
13 -5z m150 -30 c-3 -3 -12 -4 -19 -1 -8 3 -5 6 6 6 11 1 17 -2 13 -5z m150
-30 c-3 -3 -12 -4 -19 -1 -8 3 -5 6 6 6 11 1 17 -2 13 -5z m63 -14 c18 -12 2
-12 -25 0 -13 6 -15 9 -5 9 8 0 22 -4 30 -9z m937 4 c-3 -3 -12 -4 -19 -1 -8
3 -5 6 6 6 11 1 17 -2 13 -5z m-840 -20 c-3 -3 -12 -4 -19 -1 -8 3 -5 6 6 6
11 1 17 -2 13 -5z m40 -10 c-3 -3 -12 -4 -19 -1 -8 3 -5 6 6 6 11 1 17 -2 13
-5z m50 -10 c-3 -3 -12 -4 -19 -1 -8 3 -5 6 6 6 11 1 17 -2 13 -5z m46 -11
c-7 -2 -19 -2 -25 0 -7 3 -2 5 12 5 14 0 19 -2 13 -5z m50 -10 c-7 -2 -19 -2
-25 0 -7 3 -2 5 12 5 14 0 19 -2 13 -5z m517 -154 c12 -23 20 -43 18 -45 -3
-2 -14 17 -26 41 -27 56 -20 60 8 4z m-1153 -15 c-3 -3 -12 -4 -19 -1 -8 3 -5
6 6 6 11 1 17 -2 13 -5z m-170 -129 c-7 -14 -16 -25 -20 -25 -8 0 -2 14 16 38
15 19 16 14 4 -13z m2954 -121 c10 -13 10 -17 -2 -25 -23 -14 -59 -10 -66 7
-12 31 44 46 68 18z m33 1 c3 -8 1 -15 -3 -15 -5 0 -11 7 -15 15 -3 8 -1 15 3
15 5 0 11 -7 15 -15z m-697 -307 c-2 -13 -4 -3 -4 22 0 25 2 35 4 23 2 -13 2
-33 0 -45z m-1190 -24 c-3 -3 -12 -4 -19 -1 -8 3 -5 6 6 6 11 1 17 -2 13 -5z
m-3637 -600 c0 -2 -9 0 -20 6 -11 6 -20 13 -20 16 0 2 9 0 20 -6 11 -6 20 -13
20 -16z m4350 -50 c0 -30 -4 -53 -8 -50 -12 7 -12 106 -1 106 5 0 9 -25 9 -56z
m-182 -8 c-8 -6 -15 -22 -14 -36 1 -21 -3 -25 -26 -25 -27 1 -41 -24 -15 -26
10 0 10 -2 0 -6 -7 -2 -13 -9 -13 -15 0 -6 8 -4 18 4 31 27 39 28 37 5 -1 -12
-3 -22 -4 -22 -10 0 -6 -37 5 -46 8 -6 15 -8 16 -3 2 12 5 46 7 67 1 10 9 17
22 17 18 0 19 -2 9 -15 -12 -15 -4 -21 23 -16 5 1 6 -3 2 -9 -3 -6 -11 -8 -17
-4 -6 4 -8 -3 -6 -17 1 -13 14 -29 28 -36 37 -18 49 -41 43 -78 -3 -19 -2 -42
2 -52 4 -10 8 -46 9 -80 l2 -63 -33 0 c-34 0 -41 8 -23 26 7 7 4 16 -10 29
-18 16 -23 17 -30 5 -9 -14 -15 -6 -11 14 1 5 -4 13 -11 17 -9 6 -8 12 5 27 9
10 14 22 10 26 -5 4 -2 6 6 4 25 -5 23 28 -2 39 -14 6 -27 23 -29 37 -3 14 -1
23 3 20 5 -3 9 3 9 14 0 10 -7 19 -15 19 -8 0 -15 -5 -15 -10 0 -5 -6 -5 -13
1 -7 6 -23 9 -35 6 -21 -6 -21 -4 -17 76 5 88 17 114 46 105 12 -4 22 1 30 17
9 17 14 19 17 9 3 -8 -2 -19 -10 -25z m-4134 -2 c3 -8 2 -12 -4 -9 -6 3 -10
10 -10 16 0 14 7 11 14 -7z m4193 -46 c-3 -8 -6 -5 -6 6 -1 11 2 17 5 13 3 -3
4 -12 1 -19z m-397 -30 c0 -19 -2 -20 -10 -8 -13 19 -13 30 0 30 6 0 10 -10
10 -22z m557 10 c4 -7 9 -33 10 -57 2 -25 6 -47 8 -50 3 -2 31 -6 63 -8 31 -2
63 -5 70 -8 8 -3 12 -33 12 -103 0 -91 1 -98 20 -98 19 0 20 6 17 100 -1 72 1
100 11 103 9 4 12 -25 12 -121 0 -138 1 -140 64 -116 17 6 26 6 26 -1 0 -5 -7
-12 -15 -15 -12 -5 -13 -9 -4 -21 10 -11 7 -19 -14 -41 -28 -28 -48 -30 -219
-24 -57 2 -58 2 -58 32 0 25 4 30 25 30 14 0 25 4 25 9 0 5 -26 7 -59 5 l-59
-3 -4 57 c-7 99 2 221 16 216 7 -3 19 3 27 12 12 14 12 18 0 22 -10 3 -11 6
-1 12 18 11 5 41 -15 34 -8 -3 -15 -1 -15 5 0 6 5 11 11 11 5 0 8 4 5 9 -4 5
0 12 6 14 21 9 26 8 35 -5z m669 -49 c8 -13 13 -159 6 -159 -3 0 -14 8 -25 18
-19 16 -20 16 -14 -1 4 -11 3 -16 -4 -12 -6 4 -8 14 -5 22 4 9 1 22 -5 29 -7
8 -7 14 -2 14 6 0 13 23 17 50 7 49 17 62 32 39z m-785 -12 c-6 -8 -7 -18 -3
-22 4 -5 2 -5 -5 -1 -14 8 -6 36 9 36 7 0 6 -5 -1 -13z m-279 -77 c7 0 8 -27
4 -82 -11 -130 -26 -119 -25 18 1 65 4 107 6 92 2 -16 9 -28 15 -28z m140 -11
c-17 -6 -22 -14 -17 -28 3 -11 0 -22 -7 -27 -7 -4 -10 -4 -6 1 11 11 -11 35
-26 29 -8 -3 -11 -15 -8 -29 2 -14 -2 -31 -12 -40 -15 -15 -16 -14 -16 19 0
19 5 38 11 42 6 3 9 14 6 24 -4 15 3 18 47 18 41 0 46 -1 28 -9z m-12 -79 c0
-5 -2 -10 -4 -10 -3 0 -8 5 -11 10 -3 6 -1 10 4 10 6 0 11 -4 11 -10z m3 -50
c3 -11 2 -18 -3 -15 -4 3 -10 14 -13 25 -3 11 -2 18 3 15 4 -3 10 -14 13 -25z
m-453 -50 c0 -5 -7 -7 -15 -4 -8 4 -15 8 -15 10 0 2 7 4 15 4 8 0 15 -4 15
-10z m497 -12 c-3 -8 -6 -5 -6 6 -1 11 2 17 5 13 3 -3 4 -12 1 -19z m864 2
l24 -19 -31 -1 c-35 0 -45 6 -37 26 7 19 16 18 44 -6z m-1091 -20 c0 -5 -4
-10 -10 -10 -5 0 -10 5 -10 10 0 6 5 10 10 10 6 0 10 -4 10 -10z m50 0 c0 -5
-4 -10 -10 -10 -5 0 -10 5 -10 10 0 6 5 10 10 10 6 0 10 -4 10 -10z m16 -55
c-8 -8 -19 -15 -24 -15 -6 0 -12 7 -16 15 -4 11 2 15 25 15 27 0 29 -2 15 -15z
m54 11 c0 -11 -19 -15 -25 -6 -3 5 1 10 9 10 9 0 16 -2 16 -4z m313 -16 c-3
-11 -16 -23 -29 -26 -35 -9 -185 -10 -190 -2 -3 5 14 9 38 9 24 1 48 2 53 4 6
1 16 3 23 3 6 1 12 9 12 17 0 11 12 15 49 15 44 0 49 -2 44 -20z m-546 4 c-3
-3 -12 -4 -19 -1 -8 3 -5 6 6 6 11 1 17 -2 13 -5z m303 -24 c13 -8 13 -10 -2
-10 -9 0 -20 5 -23 10 -8 13 5 13 25 0z m-864 -50 c8 0 14 -5 14 -11 0 -7 -9
-9 -22 -5 -13 3 -33 6 -45 6 -13 0 -23 4 -23 9 0 12 54 19 58 9 2 -5 10 -8 18
-8z m-221 -35 c-16 -8 -36 -14 -42 -15 -7 0 -13 -9 -13 -20 0 -17 -3 -18 -13
-8 -20 18 26 58 67 57 l31 -1 -30 -13z m233 -54 c-1 -16 -6 -28 -10 -25 -4 3
-17 -5 -29 -17 l-22 -22 5 21 c4 14 2 20 -4 16 -23 -14 -66 -13 -72 1 -5 14 0
17 67 30 9 2 21 -4 27 -13 8 -15 9 -14 10 5 0 18 7 26 28 32 1 1 1 -12 0 -28z
m262 4 c0 -27 -17 -34 -26 -10 -7 18 -30 20 -37 3 -3 -7 -6 -4 -6 7 -1 16 6
21 34 22 31 3 35 0 35 -22z m245 5 c8 -24 -3 -80 -15 -80 -8 0 -21 45 -25 83
-2 24 32 22 40 -3z m35 -12 c0 -5 -4 -8 -10 -8 -5 0 -10 10 -10 23 0 18 2 19
10 7 5 -8 10 -18 10 -22z m-740 -28 c0 -5 -2 -10 -4 -10 -3 0 -8 5 -11 10 -3
6 -1 10 4 10 6 0 11 -4 11 -10z m249 -31 c-19 -12 -59 -11 -59 0 0 10 49 20
64 13 4 -3 2 -8 -5 -13z m211 -14 c0 -9 -57 -34 -64 -28 -9 9 -7 25 2 19 4 -2
14 -1 22 5 16 9 40 12 40 4z m-1620 -15 c-13 -8 -12 -10 4 -10 11 0 17 -2 14
-5 -3 -3 -20 -2 -39 2 -33 7 -33 7 -9 14 37 10 47 10 30 -1z m80 -10 c11 -7
11 -10 2 -10 -7 0 -11 -4 -8 -9 3 -4 -7 -6 -22 -2 l-27 5 25 4 c23 4 24 5 5
13 -13 5 -15 8 -5 8 8 0 22 -4 30 -9z m470 0 c0 -5 -4 -10 -10 -10 -5 0 -10 5
-10 10 0 6 5 10 10 10 6 0 10 -4 10 -10z m-533 -26 c-3 -3 -12 -4 -19 -1 -8 3
-5 6 6 6 11 1 17 -2 13 -5z m10 -50 c-3 -3 -12 -4 -19 -1 -8 3 -5 6 6 6 11 1
17 -2 13 -5z m-540 -20 c-3 -3 -12 -4 -19 -1 -8 3 -5 6 6 6 11 1 17 -2 13 -5z
m47 -23 c3 -5 -3 -11 -13 -14 -14 -3 -18 -1 -14 9 6 16 19 18 27 5z m-77 -7
c-3 -3 -12 -4 -19 -1 -8 3 -5 6 6 6 11 1 17 -2 13 -5z m-159 -21 c-10 -2 -26
-2 -35 0 -10 3 -2 5 17 5 19 0 27 -2 18 -5z m179 1 c-3 -3 -12 -4 -19 -1 -8 3
-5 6 6 6 11 1 17 -2 13 -5z m297 -21 c-9 -37 -14 -41 -44 -32 -14 4 -19 7 -12
8 6 1 12 10 12 20 0 19 12 29 38 30 9 1 10 -7 6 -26z m-361 0 c-7 -2 -19 -2
-25 0 -7 3 -2 5 12 5 14 0 19 -2 13 -5z m54 -9 c-3 -3 -12 -4 -19 -1 -8 3 -5
6 6 6 11 1 17 -2 13 -5z m40 -10 c-3 -3 -12 -4 -19 -1 -8 3 -5 6 6 6 11 1 17
-2 13 -5z m1595 -56 c2 -20 0 -34 -4 -32 -4 3 -8 24 -7 47 1 47 6 41 11 -15z
m-1342 22 c8 -5 11 -10 5 -10 -5 0 -17 5 -25 10 -8 5 -10 10 -5 10 6 0 17 -5
25 -10z m438 -77 c-10 -2 -26 -2 -35 0 -10 3 -2 5 17 5 19 0 27 -2 18 -5z
m297 -48 c24 -12 25 -14 5 -8 -14 3 -33 6 -42 5 -10 0 -18 3 -18 9 0 13 20 11
55 -6z m148 -22 c-7 -2 -19 -2 -25 0 -7 3 -2 5 12 5 14 0 19 -2 13 -5z m-265
-24 c39 -15 24 -19 -17 -4 -34 11 -47 12 -91 0 -29 -8 -49 -11 -45 -7 3 4 25
12 48 18 41 12 58 10 105 -7z m82 -9 c0 -5 -9 -10 -20 -10 -11 0 -20 5 -20 10
0 6 9 10 20 10 11 0 20 -4 20 -10z m-140 -10 c8 -5 11 -10 5 -10 -5 0 -17 5
-25 10 -8 5 -10 10 -5 10 6 0 17 -5 25 -10z m-183 -6 c-3 -3 -12 -4 -19 -1 -8
3 -5 6 6 6 11 1 17 -2 13 -5z m273 -14 c11 -7 3 -10 -30 -10 -33 0 -41 3 -30
10 8 5 22 10 30 10 8 0 22 -5 30 -10z m-88 -19 c-12 -7 -62 -4 -62 5 0 2 17 4
38 4 23 0 32 -3 24 -9z"/>
<path d="M1430 8090 c0 -5 5 -10 11 -10 5 0 7 5 4 10 -3 6 -8 10 -11 10 -2 0
-4 -4 -4 -10z"/>
<path d="M1969 7888 c-5 -10 -5 -48 0 -48 17 1 33 20 28 34 -5 13 -24 22 -28
14z"/>
<path d="M2091 7814 c0 -11 3 -14 6 -6 3 7 2 16 -1 19 -3 4 -6 -2 -5 -13z"/>
<path d="M2091 7764 c10 -12 9 -21 -4 -43 -15 -25 -15 -27 4 -28 10 -1 19 1
20 5 8 52 5 71 -13 75 -16 5 -17 3 -7 -9z"/>
<path d="M2148 7729 c-34 -25 -37 -52 -6 -47 16 2 25 12 29 33 4 17 7 22 8 12
0 -10 5 -16 11 -12 10 6 3 35 -9 35 -3 0 -18 -10 -33 -21z"/>
<path d="M2120 7659 c0 -5 5 -7 10 -4 6 3 10 8 10 11 0 2 -4 4 -10 4 -5 0 -10
-5 -10 -11z"/>
<path d="M1037 7505 c-4 -8 -2 -17 3 -20 6 -4 10 3 10 14 0 25 -6 27 -13 6z"/>
<path d="M885 7482 c0 -18 6 -26 22 -28 11 -2 23 3 26 10 8 21 -21 28 -32 8
-13 -22 -14 -7 -2 17 7 12 6 18 -2 18 -7 0 -13 -12 -12 -25z"/>
<path d="M820 7421 c0 -7 -5 -9 -12 -5 -7 5 -8 3 -3 -5 5 -9 10 -10 18 -2 6 6
8 14 4 18 -4 3 -7 1 -7 -6z"/>
<path d="M3168 7523 c13 -3 19 -9 16 -15 -4 -7 -2 -8 5 -4 17 11 3 26 -22 25
-22 -2 -22 -2 1 -6z"/>
<path d="M3220 7510 c8 -5 22 -9 30 -9 10 0 8 3 -5 9 -27 12 -43 12 -25 0z"/>
<path d="M740 7438 c0 -4 4 -8 9 -8 6 0 12 4 15 8 3 5 -1 9 -9 9 -8 0 -15 -4
-15 -9z"/>
<path d="M3217 7389 c7 -7 15 -10 18 -7 3 3 -2 9 -12 12 -14 6 -15 5 -6 -5z"/>
<path d="M3206 7367 c3 -10 9 -15 12 -12 3 3 0 11 -7 18 -10 9 -11 8 -5 -6z"/>
<path d="M920 7336 c0 -2 9 -6 20 -9 11 -3 18 -1 14 4 -5 9 -34 13 -34 5z"/>
<path d="M924 7214 c3 -9 6 -18 6 -20 0 -3 4 -3 10 1 11 7 2 35 -12 35 -6 0
-7 -7 -4 -16z"/>
<path d="M950 7226 c0 -2 7 -7 16 -10 8 -3 12 -2 9 4 -6 10 -25 14 -25 6z"/>
<path d="M974 7178 c10 -16 23 -28 28 -28 7 0 6 5 -1 13 -6 8 -7 18 -3 23 4 5
3 6 -2 2 -5 -4 -16 -2 -24 5 -11 9 -11 4 2 -15z"/>
<path d="M905 7181 c3 -5 1 -12 -5 -16 -5 -3 -10 -10 -10 -14 0 -9 131 -44
138 -36 2 2 -7 7 -21 10 -13 4 -30 18 -38 31 -7 14 -19 22 -26 20 -7 -3 -15
-1 -18 4 -4 6 -11 10 -16 10 -6 0 -8 -4 -4 -9z"/>
<path d="M1045 7129 c-4 -6 -5 -12 -2 -15 2 -3 7 2 10 11 7 17 1 20 -8 4z"/>
<path d="M1990 7051 c0 -6 4 -13 10 -16 6 -3 7 1 4 9 -7 18 -14 21 -14 7z"/>
<path d="M2850 7019 c0 -5 5 -7 10 -4 6 3 10 8 10 11 0 2 -4 4 -10 4 -5 0 -10
-5 -10 -11z"/>
<path d="M3350 7209 c0 -5 4 -8 9 -4 5 3 12 1 15 -4 4 -5 -7 -7 -23 -5 -16 3
-32 0 -36 -5 -3 -7 0 -8 9 -5 9 3 16 2 16 -4 0 -12 38 -4 46 10 4 6 0 14 -7
19 -19 12 -29 11 -29 -2z"/>
<path d="M3776 6651 c-4 -7 -5 -15 -2 -18 9 -9 19 4 14 18 -4 11 -6 11 -12 0z"/>
<path d="M3622 6458 c2 -6 10 -13 16 -14 7 -1 8 0 2 3 -5 2 -8 9 -4 14 3 5 0
9 -6 9 -7 0 -10 -5 -8 -12z"/>
<path d="M4170 6230 c-11 -8 -7 -9 15 -4 37 8 45 14 19 14 -10 0 -26 -5 -34
-10z"/>
<path d="M4440 4500 c0 -11 5 -20 10 -20 6 0 10 9 10 20 0 11 -4 20 -10 20 -5
0 -10 -9 -10 -20z"/>
<path d="M4444 4399 c-7 -12 22 -46 32 -37 8 9 -5 48 -16 48 -5 0 -12 -5 -16
-11z"/>
<path d="M4677 4458 c-3 -47 -2 -87 4 -92 5 -6 9 25 9 82 0 51 -2 92 -4 92 -2
0 -6 -37 -9 -82z"/>
<path d="M4590 4346 c0 -22 27 -27 33 -5 4 14 0 19 -14 19 -10 0 -19 -6 -19
-14z"/>
<path d="M4800 4270 c0 -5 7 -10 15 -10 8 0 15 5 15 10 0 6 -7 10 -15 10 -8 0
-15 -4 -15 -10z"/>
<path d="M588 8993 c7 -3 16 -2 19 1 4 3 -2 6 -13 5 -11 0 -14 -3 -6 -6z"/>
<path d="M1186 8989 c3 -5 11 -9 19 -9 8 0 16 4 19 9 3 5 -5 9 -19 9 -14 0
-22 -4 -19 -9z"/>
<path d="M1664 8984 c9 -8 21 -12 27 -8 13 7 -7 24 -29 24 -10 0 -10 -4 2 -16z"/>
<path d="M1898 8993 c7 -3 16 -2 19 1 4 3 -2 6 -13 5 -11 0 -14 -3 -6 -6z"/>
<path d="M1945 8990 c4 -6 11 -8 16 -5 14 9 11 15 -7 15 -8 0 -12 -5 -9 -10z"/>
<path d="M1985 8990 c4 -6 10 -8 15 -5 5 3 19 1 30 -5 11 -6 20 -7 20 -2 0 6
-10 12 -22 16 -34 9 -50 7 -43 -4z"/>
<path d="M2165 8990 c3 -5 14 -10 23 -10 15 0 15 2 2 10 -20 13 -33 13 -25 0z"/>
<path d="M2507 8989 c7 -7 15 -10 18 -7 3 3 -2 9 -12 12 -14 6 -15 5 -6 -5z"/>
<path d="M2598 8993 c7 -3 16 -2 19 1 4 3 -2 6 -13 5 -11 0 -14 -3 -6 -6z"/>
<path d="M2669 8986 c18 -10 21 -15 10 -18 -8 -3 -2 -3 13 -1 34 5 56 -6 37
-18 -10 -6 -8 -9 9 -9 13 0 20 -4 17 -10 -3 -5 -1 -10 4 -10 15 0 14 19 -3 35
-15 15 -82 45 -100 45 -6 -1 0 -7 13 -14z"/>
<path d="M2798 8988 c5 -5 16 -8 23 -6 8 3 3 7 -10 11 -17 4 -21 3 -13 -5z"/>
<path d="M3130 8990 c0 -5 5 -10 10 -10 6 0 10 5 10 10 0 6 -4 10 -10 10 -5 0
-10 -4 -10 -10z"/>
<path d="M3165 8990 c3 -5 8 -10 11 -10 2 0 4 5 4 10 0 6 -5 10 -11 10 -5 0
-7 -4 -4 -10z"/>
<path d="M1548 8983 c6 -2 18 -2 25 0 6 3 1 5 -13 5 -14 0 -19 -2 -12 -5z"/>
<path d="M2425 8980 c3 -5 8 -10 11 -10 2 0 4 5 4 10 0 6 -5 10 -11 10 -5 0
-7 -4 -4 -10z"/>
<path d="M800 8970 c8 -5 20 -10 25 -10 6 0 3 5 -5 10 -8 5 -19 10 -25 10 -5
0 -3 -5 5 -10z"/>
<path d="M1230 8973 c0 -7 36 -24 104 -52 22 -9 -22 27 -51 43 -35 17 -53 20
-53 9z"/>
<path d="M1715 8970 c-3 -5 -1 -10 4 -10 6 0 11 5 11 10 0 6 -2 10 -4 10 -3 0
-8 -4 -11 -10z"/>
<path d="M1185 8960 c27 -12 43 -12 25 0 -8 5 -22 9 -30 9 -10 0 -8 -3 5 -9z"/>
<path d="M1950 8960 c0 -5 5 -10 11 -10 5 0 7 5 4 10 -3 6 -8 10 -11 10 -2 0
-4 -4 -4 -10z"/>
<path d="M717 8939 c7 -7 15 -10 18 -7 3 3 -2 9 -12 12 -14 6 -15 5 -6 -5z"/>
<path d="M2070 8940 c0 -5 7 -7 15 -4 8 4 15 8 15 10 0 2 -7 4 -15 4 -8 0 -15
-4 -15 -10z"/>
<path d="M957 8929 c7 -7 15 -10 18 -7 3 3 -2 9 -12 12 -14 6 -15 5 -6 -5z"/>
<path d="M1115 8921 c-3 -5 -2 -12 3 -15 5 -3 9 1 9 9 0 17 -3 19 -12 6z"/>
<path d="M2800 8920 c8 -5 20 -10 25 -10 6 0 3 5 -5 10 -8 5 -19 10 -25 10 -5
0 -3 -5 5 -10z"/>
<path d="M1374 8903 c3 -3 22 -7 42 -9 20 -1 33 0 30 3 -3 3 -22 7 -42 9 -20
1 -33 0 -30 -3z"/>
<path d="M1260 8880 c-9 -6 -10 -10 -3 -10 6 0 15 5 18 10 8 12 4 12 -15 0z"/>
<path d="M2014 8875 c26 -19 42 -19 26 0 -7 8 -20 15 -29 15 -13 -1 -13 -3 3
-15z"/>
<path d="M1315 8870 c-3 -5 -1 -10 4 -10 6 0 11 5 11 10 0 6 -2 10 -4 10 -3 0
-8 -4 -11 -10z"/>
<path d="M2365 8850 c-3 -5 1 -10 10 -10 9 0 13 5 10 10 -3 6 -8 10 -10 10 -2
0 -7 -4 -10 -10z"/>
<path d="M2400 8835 c0 -10 29 -24 34 -17 3 6 -3 12 -14 15 -11 3 -20 4 -20 2z"/>
<path d="M1330 8799 c0 -5 5 -7 10 -4 6 3 10 8 10 11 0 2 -4 4 -10 4 -5 0 -10
-5 -10 -11z"/>
<path d="M3330 8790 c8 -5 20 -10 25 -10 6 0 3 5 -5 10 -8 5 -19 10 -25 10 -5
0 -3 -5 5 -10z"/>
<path d="M3000 8775 c0 -10 -5 -13 -12 -9 -10 5 -10 4 -1 -6 7 -7 17 -9 26 -4
13 8 13 11 1 22 -12 11 -14 10 -14 -3z"/>
<path d="M3010 8740 c0 -5 5 -10 10 -10 6 0 10 5 10 10 0 6 -4 10 -10 10 -5 0
-10 -4 -10 -10z"/>
<path d="M2990 8716 c0 -2 7 -9 15 -16 9 -7 15 -8 15 -2 0 5 -7 12 -15 16 -8
3 -15 4 -15 2z"/>
<path d="M3231 8683 c7 -12 15 -20 18 -17 3 2 -3 12 -13 22 -17 16 -18 16 -5
-5z"/>
<path d="M3080 8670 c8 -5 20 -10 25 -10 6 0 3 5 -5 10 -8 5 -19 10 -25 10 -5
0 -3 -5 5 -10z"/>
<path d="M2495 8440 c-3 -5 -1 -10 4 -10 6 0 11 5 11 10 0 6 -2 10 -4 10 -3 0
-8 -4 -11 -10z"/>
<path d="M3490 8445 c0 -2 9 -9 20 -15 15 -8 20 -8 20 3 0 7 -9 13 -20 14 -11
1 -20 0 -20 -2z"/>
<path d="M2445 8420 c-13 -6 -15 -9 -5 -9 8 0 22 4 30 9 18 12 2 12 -25 0z"/>
<path d="M2375 8400 c-16 -7 -17 -9 -3 -9 9 -1 20 4 23 9 7 11 7 11 -20 0z"/>
<path d="M2310 8381 c-8 -5 -59 -24 -113 -42 l-99 -32 39 -13 c21 -8 47 -14
58 -14 17 0 17 -2 5 -10 -12 -8 -11 -10 6 -10 11 0 26 -6 33 -12 11 -11 12
-10 6 1 -5 9 -4 12 3 7 6 -4 23 -4 37 0 18 4 23 9 15 14 -7 4 -20 5 -30 3 -10
-3 -21 0 -24 6 -4 7 -1 8 8 5 25 -10 19 5 -6 17 -20 8 -19 9 7 3 16 -3 33 -10
36 -16 4 -6 13 -7 20 -3 8 5 11 4 6 0 -8 -10 66 -47 102 -51 13 -2 29 -8 34
-13 6 -6 20 -11 32 -11 11 0 47 -14 79 -30 60 -30 76 -31 76 -3 0 11 -3 13
-13 5 -8 -7 -18 -6 -31 4 -11 8 -14 14 -8 14 7 0 12 8 12 18 0 15 -2 15 -11 2
-8 -11 -12 -12 -16 -2 -2 6 -11 12 -19 12 -7 0 -11 6 -9 13 3 7 -18 24 -50 42
-30 16 -55 35 -55 42 0 7 -5 13 -11 13 -5 0 -8 -4 -5 -9 6 -10 -24 -25 -32
-16 -3 3 0 5 6 5 7 0 12 7 12 15 0 8 5 15 10 15 6 0 10 5 10 10 0 6 -9 10 -20
10 -13 0 -18 -5 -14 -15 4 -9 0 -15 -10 -15 -9 0 -16 8 -16 19 0 27 -31 38
-60 22z m50 -17 c0 -2 -11 -3 -24 -2 -14 1 -23 5 -20 9 4 7 44 0 44 -7z"/>
<path d="M1905 8350 c-9 -15 4 -30 25 -30 10 0 21 -4 24 -9 7 -11 54 -2 63 12
4 6 -2 8 -15 5 -12 -3 -26 0 -32 7 -6 8 -19 11 -27 8 -11 -4 -14 -2 -9 5 4 7
1 12 -8 12 -8 0 -18 -4 -21 -10z"/>
<path d="M2474 8335 c3 -22 13 -27 19 -11 3 8 0 17 -8 19 -7 3 -12 0 -11 -8z"/>
<path d="M2530 8322 c0 -4 9 -13 20 -20 12 -7 19 -16 16 -20 -2 -4 8 -8 22 -8
26 -2 26 -1 5 9 -13 5 -23 16 -23 22 0 7 -7 16 -16 19 -20 8 -24 8 -24 -2z"/>
<path d="M2595 8310 c3 -5 8 -10 11 -10 2 0 4 5 4 10 0 6 -5 10 -11 10 -5 0
-7 -4 -4 -10z"/>
<path d="M2049 8302 c11 -8 9 -11 -8 -17 -13 -4 -21 -9 -18 -11 2 -3 16 0 30
5 18 7 28 7 33 -1 4 -7 3 -8 -4 -4 -7 4 -12 3 -12 -2 0 -8 107 -62 122 -62 3
0 5 7 5 16 0 11 -7 14 -23 10 -13 -4 -25 -2 -29 3 -3 5 3 11 12 14 13 3 4 10
-27 24 -55 24 -101 39 -81 25z m91 -42 c0 -5 -4 -10 -9 -10 -6 0 -13 5 -16 10
-3 6 1 10 9 10 9 0 16 -4 16 -10z"/>
<path d="M2005 8290 c-3 -6 1 -7 9 -4 18 7 21 14 7 14 -6 0 -13 -4 -16 -10z"/>
<path d="M2628 8278 c5 -5 16 -8 23 -6 8 3 3 7 -10 11 -17 4 -21 3 -13 -5z"/>
<path d="M1970 8260 c0 -5 5 -10 11 -10 5 0 7 5 4 10 -3 6 -8 10 -11 10 -2 0
-4 -4 -4 -10z"/>
<path d="M2285 8246 l-30 -13 30 -8 c17 -4 41 -7 55 -6 19 1 22 0 10 -8 -12
-8 -9 -12 14 -20 15 -6 31 -9 36 -6 5 3 10 0 12 -6 2 -7 12 -7 33 1 27 11 28
13 10 20 -11 4 -36 5 -55 3 -22 -3 -30 -1 -22 4 9 7 6 13 -12 22 -13 8 -29 11
-34 7 -6 -3 -13 -2 -16 3 -4 5 2 12 11 14 12 3 13 5 3 5 -8 1 -28 -5 -45 -12z"/>
<path d="M2610 8250 c0 -5 5 -10 10 -10 6 0 10 5 10 10 0 6 -4 10 -10 10 -5 0
-10 -4 -10 -10z"/>
<path d="M3817 8249 c7 -7 15 -10 18 -7 3 3 -2 9 -12 12 -14 6 -15 5 -6 -5z"/>
<path d="M2650 8225 c-8 -9 -8 -15 -2 -15 12 0 26 19 19 26 -2 2 -10 -2 -17
-11z"/>
<path d="M2210 8221 c0 -6 8 -8 18 -4 9 3 14 3 10 -2 -9 -10 10 -35 26 -35 6
0 4 5 -4 10 -8 5 -15 15 -15 22 0 7 -8 14 -17 16 -10 2 -18 -1 -18 -7z"/>
<path d="M2680 8200 c8 -5 22 -9 30 -9 10 0 8 3 -5 9 -27 12 -43 12 -25 0z"/>
<path d="M2646 8173 c-3 -10 -9 -24 -12 -31 -4 -9 0 -10 20 -2 17 6 26 6 26 0
0 -6 17 -10 38 -10 l37 0 -25 20 c-14 11 -33 18 -42 16 -11 -2 -18 2 -18 10 0
20 -16 17 -24 -3z"/>
<path d="M2190 8170 c8 -5 22 -9 30 -9 10 0 8 3 -5 9 -27 12 -43 12 -25 0z"/>
<path d="M2478 8168 c9 -9 15 -9 24 0 9 9 7 12 -12 12 -19 0 -21 -3 -12 -12z"/>
<path d="M2260 8136 c0 -2 7 -7 16 -10 8 -3 12 -2 9 4 -6 10 -25 14 -25 6z"/>
<path d="M2714 8099 c-9 -15 5 -26 46 -34 24 -5 32 -4 25 3 -5 6 -21 12 -35
14 -14 2 -24 9 -22 16 3 15 -5 16 -14 1z"/>
<path d="M2830 8090 c0 -5 5 -10 10 -10 6 0 10 5 10 10 0 6 -4 10 -10 10 -5 0
-10 -4 -10 -10z"/>
<path d="M2590 8086 c0 -2 7 -7 16 -10 8 -3 12 -2 9 4 -6 10 -25 14 -25 6z"/>
<path d="M2675 8050 c27 -12 43 -12 25 0 -8 5 -22 9 -30 9 -10 0 -8 -3 5 -9z"/>
<path d="M2888 8053 c7 -3 16 -2 19 1 4 3 -2 6 -13 5 -11 0 -14 -3 -6 -6z"/>
<path d="M2720 8036 c0 -2 7 -9 15 -16 9 -7 15 -8 15 -2 0 5 -7 12 -15 16 -8
3 -15 4 -15 2z"/>
<path d="M2858 8023 c7 -3 16 -2 19 1 4 3 -2 6 -13 5 -11 0 -14 -3 -6 -6z"/>
<path d="M3010 7985 c0 -8 4 -15 10 -15 5 0 7 7 4 15 -4 8 -8 15 -10 15 -2 0
-4 -7 -4 -15z"/>
<path d="M2473 7955 c0 -8 4 -12 9 -9 5 3 6 10 3 15 -9 13 -12 11 -12 -6z"/>
<path d="M2365 7860 c3 -5 8 -10 11 -10 2 0 4 5 4 10 0 6 -5 10 -11 10 -5 0
-7 -4 -4 -10z"/>
<path d="M3250 7846 c0 -2 9 -6 20 -9 11 -3 18 -1 14 4 -5 9 -34 13 -34 5z"/>
<path d="M2637 7829 c8 -8 16 -8 30 0 16 9 14 10 -11 11 -22 0 -27 -3 -19 -11z"/>
<path d="M2698 7823 c7 -3 16 -2 19 1 4 3 -2 6 -13 5 -11 0 -14 -3 -6 -6z"/>
<path d="M3635 7670 c3 -5 8 -10 11 -10 2 0 4 5 4 10 0 6 -5 10 -11 10 -5 0
-7 -4 -4 -10z"/>
<path d="M3710 7520 c8 -5 20 -10 25 -10 6 0 3 5 -5 10 -8 5 -19 10 -25 10 -5
0 -3 -5 5 -10z"/>
<path d="M3780 7510 c8 -5 20 -10 25 -10 6 0 3 5 -5 10 -8 5 -19 10 -25 10 -5
0 -3 -5 5 -10z"/>
<path d="M3884 7460 c22 -11 42 -20 45 -20 12 0 -36 28 -59 34 -14 4 -8 -2 14
-14z"/>
<path d="M3867 7439 c7 -7 15 -10 18 -7 3 3 -2 9 -12 12 -14 6 -15 5 -6 -5z"/>
<path d="M3960 7422 c0 -5 12 -12 28 -14 15 -3 36 -8 47 -12 12 -4 10 -1 -5 7
-36 21 -70 30 -70 19z"/>
<path d="M4415 7250 c3 -5 8 -10 11 -10 2 0 4 5 4 10 0 6 -5 10 -11 10 -5 0
-7 -4 -4 -10z"/>
<path d="M3594 5970 c-48 -11 -90 -45 -113 -93 -25 -51 -26 -69 -7 -105 24
-47 28 -94 12 -142 -8 -24 -14 -45 -13 -46 1 -1 47 -6 102 -10 93 -7 99 -6 86
10 -16 19 -19 39 -27 146 -2 41 -7 105 -10 143 -4 44 -2 72 5 81 16 19 3 24
-35 16z"/>
<path d="M3637 5943 c-15 -14 -6 -76 18 -123 27 -53 78 -98 116 -102 21 -3 24
1 27 35 4 45 -32 130 -73 170 -26 25 -72 36 -88 20z"/>
<path d="M2727 5905 c-4 -8 -3 -16 1 -19 4 -3 9 4 9 15 2 23 -3 25 -10 4z"/>
<path d="M2681 5814 c0 -11 3 -14 6 -6 3 7 2 16 -1 19 -3 4 -6 -2 -5 -13z"/>
<path d="M4760 5670 c-25 -4 -38 -8 -30 -9 8 -1 36 -6 62 -10 44 -7 46 -6 37
11 -5 10 -13 17 -17 16 -4 0 -27 -4 -52 -8z"/>
<path d="M5042 5220 c0 -14 2 -19 5 -12 2 6 2 18 0 25 -3 6 -5 1 -5 -13z"/>
<path d="M5990 5022 c0 -13 -6 -22 -15 -22 -8 0 -15 -4 -15 -10 0 -5 7 -10 15
-10 15 0 32 46 21 57 -3 4 -6 -3 -6 -15z"/>
<path d="M4133 4963 c-7 -2 -13 -20 -13 -39 0 -27 4 -34 19 -34 13 0 21 -8 23
-22 2 -14 7 -2 12 29 10 67 0 83 -41 66z"/>
<path d="M4090 4863 c0 -21 5 -29 19 -29 14 0 17 5 12 25 -10 36 -31 39 -31 4z"/>
<path d="M3990 4855 c0 -8 7 -15 15 -15 8 0 15 7 15 15 0 8 -7 15 -15 15 -8 0
-15 -7 -15 -15z"/>
<path d="M5583 4803 c-7 -2 -13 -9 -13 -13 0 -14 61 -80 73 -80 6 0 1 10 -11
23 -12 13 -22 35 -22 50 0 27 -4 30 -27 20z"/>
<path d="M3250 4640 l0 -130 48 0 c70 0 123 11 129 27 8 19 -7 204 -16 199 -4
-3 -30 -8 -57 -12 -27 -3 -52 -8 -56 -11 -5 -2 -8 -37 -8 -78 0 -41 -4 -77
-10 -80 -6 -4 -10 33 -10 104 0 67 -4 111 -10 111 -6 0 -10 -50 -10 -130z m87
24 c-3 -3 -12 -4 -19 -1 -8 3 -5 6 6 6 11 1 17 -2 13 -5z"/>
<path d="M3961 4731 c-20 -15 -22 -22 -14 -46 l9 -27 24 26 c14 14 34 26 44
26 32 0 11 11 -23 12 -25 1 -29 4 -20 15 16 18 9 16 -20 -6z"/>
<path d="M5980 4600 c0 -5 5 -10 10 -10 6 0 10 5 10 10 0 6 -4 10 -10 10 -5 0
-10 -4 -10 -10z"/>
<path d="M4022 4470 c0 -14 2 -19 5 -12 2 6 2 18 0 25 -3 6 -5 1 -5 -13z"/>
<path d="M4141 4424 c0 -11 3 -14 6 -6 3 7 2 16 -1 19 -3 4 -6 -2 -5 -13z"/>
<path d="M5607 4410 c-27 -27 -8 -32 86 -25 82 7 111 14 66 16 -13 1 -28 2
-34 4 -5 1 -19 3 -30 4 -15 1 -17 3 -6 10 9 6 0 9 -25 9 -24 0 -46 -7 -57 -18z"/>
<path d="M5645 4215 c-8 -59 -3 -250 6 -260 8 -7 69 15 69 26 0 5 -4 9 -10 9
-6 0 -10 43 -10 109 0 112 -5 145 -21 135 -5 -3 -9 2 -9 10 0 8 -4 17 -9 21
-5 3 -13 -20 -16 -50z"/>
<path d="M5370 4230 c8 -5 20 -10 25 -10 6 0 3 5 -5 10 -8 5 -19 10 -25 10 -5
0 -3 -5 5 -10z"/>
<path d="M5965 4210 c-3 -5 1 -10 9 -10 9 0 16 5 16 10 0 6 -4 10 -9 10 -6 0
-13 -4 -16 -10z"/>
<path d="M5200 4190 c8 -5 20 -10 25 -10 6 0 3 5 -5 10 -8 5 -19 10 -25 10 -5
0 -3 -5 5 -10z"/>
<path d="M5402 4176 c-45 -13 -85 -26 -89 -29 -4 -4 3 -16 14 -26 17 -16 30
-18 82 -14 l61 6 0 -167 c0 -130 3 -167 13 -164 9 4 13 57 15 211 1 114 -1
207 -5 206 -5 0 -45 -11 -91 -23z"/>
<path d="M5925 4180 c3 -5 8 -10 11 -10 2 0 4 5 4 10 0 6 -5 10 -11 10 -5 0
-7 -4 -4 -10z"/>
<path d="M5991 4164 c0 -11 3 -14 6 -6 3 7 2 16 -1 19 -3 4 -6 -2 -5 -13z"/>
<path d="M5880 4125 c0 -32 4 -45 14 -45 8 0 16 6 19 13 8 21 -4 65 -19 71
-11 4 -14 -5 -14 -39z"/>
<path d="M5742 4133 c-21 -30 -22 -33 -6 -52 16 -18 19 -18 40 -5 15 10 24 12
29 5 3 -6 17 -11 31 -11 21 0 24 4 24 40 0 32 -4 40 -18 40 -10 0 -22 -3 -26
-7 -15 -15 -45 -12 -48 5 -3 13 -8 10 -26 -15z"/>
<path d="M2900 4121 c0 -6 4 -12 8 -15 5 -3 9 1 9 9 0 8 -4 15 -9 15 -4 0 -8
-4 -8 -9z"/>
<path d="M140 4086 c0 -7 7 -33 15 -56 8 -24 17 -52 20 -64 3 -12 7 -33 11
-47 5 -23 2 -28 -27 -38 -47 -16 -58 -14 -65 14 -9 37 -24 31 -24 -10 0 -26 3
-33 15 -29 8 4 15 2 15 -4 0 -16 24 -20 71 -12 30 6 46 5 51 -3 5 -8 8 -6 8 6
0 13 8 17 36 17 31 0 35 2 24 15 -8 9 -23 13 -39 10 -27 -5 -28 -2 -61 105
-18 61 -37 110 -41 110 -5 0 -9 -6 -9 -14z"/>
<path d="M2035 3990 c-8 -13 5 -13 25 0 13 8 13 10 -2 10 -9 0 -20 -4 -23 -10z"/>
<path d="M2768 3973 c7 -3 16 -2 19 1 4 3 -2 6 -13 5 -11 0 -14 -3 -6 -6z"/>
<path d="M1800 3960 l-35 -7 38 -2 c20 0 37 4 37 9 0 6 -1 9 -2 9 -2 -1 -19
-5 -38 -9z"/>
<path d="M2038 3963 c7 -3 16 -2 19 1 4 3 -2 6 -13 5 -11 0 -14 -3 -6 -6z"/>
<path d="M4041 3926 c-4 -17 -7 -32 -5 -34 1 -2 30 4 63 13 l61 18 -24 18
c-12 10 -37 17 -54 17 -27 -1 -34 -6 -41 -32z"/>
<path d="M1695 3940 c-18 -8 -18 -9 5 -9 14 0 34 4 45 9 18 8 18 9 -5 9 -14 0
-34 -4 -45 -9z"/>
<path d="M3955 3915 c-3 -8 -7 -22 -10 -30 -4 -15 12 -19 38 -9 9 3 12 14 9
30 -5 26 -30 33 -37 9z"/>
<path d="M2400 3910 c0 -13 11 -13 30 0 12 8 11 10 -7 10 -13 0 -23 -4 -23
-10z"/>
<path d="M4395 3910 c-3 -6 1 -7 9 -4 18 7 21 14 7 14 -6 0 -13 -4 -16 -10z"/>
<path d="M4348 3903 c7 -3 16 -2 19 1 4 3 -2 6 -13 5 -11 0 -14 -3 -6 -6z"/>
<path d="M3920 3801 c-190 -49 -489 -123 -665 -166 -348 -84 -1460 -358 -1645
-405 -114 -29 -1387 -344 -1530 -378 -73 -18 -75 -19 -78 -50 -4 -36 -3 -36
47 -22 20 6 292 73 606 150 1332 329 2003 499 2560 650 105 28 228 62 275 74
47 13 130 36 185 51 256 70 355 97 415 112 36 9 68 21 72 27 4 5 23 10 44 10
20 0 31 2 23 5 -8 2 4 10 26 17 112 34 -27 3 -335 -75z"/>
<path d="M2363 3869 c14 -8 22 -8 30 0 8 8 3 11 -18 11 -26 -1 -28 -2 -12 -11z"/>
<path d="M3908 3863 c7 -3 16 -2 19 1 4 3 -2 6 -13 5 -11 0 -14 -3 -6 -6z"/>
<path d="M3688 3818 c5 -5 16 -8 23 -6 8 3 3 7 -10 11 -17 4 -21 3 -13 -5z"/>
<path d="M3590 3790 c-11 -7 -5 -8 20 -4 43 8 51 14 19 14 -13 0 -31 -5 -39
-10z"/>
<path d="M888 3753 c7 -3 16 -2 19 1 4 3 -2 6 -13 5 -11 0 -14 -3 -6 -6z"/>
<path d="M790 3740 c-11 -8 -7 -9 15 -4 37 8 45 14 19 14 -10 0 -26 -5 -34
-10z"/>
<path d="M945 3740 c-16 -7 -17 -9 -3 -9 9 -1 20 4 23 9 7 11 7 11 -20 0z"/>
<path d="M698 3723 c7 -3 16 -2 19 1 4 3 -2 6 -13 5 -11 0 -14 -3 -6 -6z"/>
<path d="M2865 3720 c-3 -5 1 -10 10 -10 9 0 13 5 10 10 -3 6 -8 10 -10 10 -2
0 -7 -4 -10 -10z"/>
<path d="M2605 3695 c-25 -12 -26 -14 -9 -15 12 0 27 7 34 15 15 18 14 18 -25
0z"/>
<path d="M3141 3706 c2 -2 18 -6 34 -10 22 -5 26 -4 15 4 -14 9 -59 15 -49 6z"/>
<path d="M2548 3693 c7 -3 16 -2 19 1 4 3 -2 6 -13 5 -11 0 -14 -3 -6 -6z"/>
<path d="M458 3683 c6 -2 18 -2 25 0 6 3 1 5 -13 5 -14 0 -19 -2 -12 -5z"/>
<path d="M3138 3683 c6 -2 18 -2 25 0 6 3 1 5 -13 5 -14 0 -19 -2 -12 -5z"/>
<path d="M2518 3673 c6 -2 18 -2 25 0 6 3 1 5 -13 5 -14 0 -19 -2 -12 -5z"/>
<path d="M3760 3670 c0 -5 14 -10 32 -10 36 0 35 4 -4 14 -17 4 -28 2 -28 -4z"/>
<path d="M263 3653 c9 -2 23 -2 30 0 6 3 -1 5 -18 5 -16 0 -22 -2 -12 -5z"/>
<path d="M2995 3650 c-3 -5 1 -10 9 -10 9 0 16 5 16 10 0 6 -4 10 -9 10 -6 0
-13 -4 -16 -10z"/>
<path d="M2810 3410 c0 -5 12 -10 26 -10 l27 0 -8 -697 c-5 -384 -9 -727 -10
-763 -2 -36 -4 -186 -6 -335 -2 -220 -4 -246 -9 -140 l-5 130 -9 -75 c-6 -41
-9 -86 -7 -100 1 -14 -1 -22 -5 -18 -4 4 -13 0 -20 -10 -12 -15 -13 -12 -14
27 0 34 3 42 15 37 12 -4 15 2 14 27 -1 18 -3 24 -6 15 -2 -10 -11 -18 -19
-18 -8 0 -15 -10 -15 -22 -1 -13 -3 -30 -4 -38 -1 -8 -3 -25 -4 -37 0 -13 -7
-23 -14 -23 -10 0 -14 23 -14 98 -1 155 -5 186 -13 87 -4 -51 -14 -103 -24
-120 -9 -16 -16 -51 -16 -77 0 -27 -5 -48 -10 -48 -6 0 -10 6 -9 13 3 28 -3
131 -8 119 -4 -10 -10 -9 -26 5 -20 18 -20 18 -13 -10 6 -24 4 -28 -11 -25
-15 3 -18 12 -15 57 l3 54 -23 -15 c-17 -11 -24 -27 -26 -57 -3 -37 -14 -53
-25 -33 -2 4 -2 0 1 -8 15 -51 21 -104 12 -120 -6 -10 -9 -29 -7 -42 1 -14 -3
-22 -10 -20 -8 1 -13 -8 -13 -24 0 -14 4 -23 9 -19 5 3 12 1 16 -5 3 -5 -3
-10 -14 -10 -13 0 -21 -7 -22 -17 0 -15 -2 -15 -9 2 -4 11 -6 30 -3 41 2 12
-5 41 -16 65 -22 45 -26 69 -12 69 4 0 12 -19 17 -42 10 -48 28 -54 31 -11 2
28 1 28 -6 -2 l-7 -30 -7 34 c-10 47 -9 51 8 51 8 0 15 8 15 18 0 15 -2 15
-11 2 -8 -12 -9 -8 -8 15 1 17 1 41 0 55 l-2 25 -10 -23 c-10 -27 -29 -20 -29
10 0 29 -6 20 -13 -19 -6 -29 -4 -33 14 -33 12 0 19 -5 16 -12 -2 -7 -12 -12
-21 -10 -12 2 -16 -4 -14 -25 3 -48 -2 -83 -12 -83 -5 0 -7 34 -5 83 l3 82
-11 -78 c-7 -44 -15 -76 -19 -72 -7 8 -15 -17 -21 -70 -2 -16 -5 8 -6 54 0 46
-3 82 -5 80 -2 -2 -6 -46 -9 -97 -6 -113 -20 -138 -16 -30 2 42 0 80 -4 84 -4
4 -7 -20 -7 -54 0 -38 -4 -62 -11 -62 -7 0 -9 37 -5 119 5 104 4 120 -10 125
-9 4 -19 4 -22 1 -3 -3 -1 -5 4 -5 5 0 10 -54 10 -122 1 -77 -2 -116 -7 -103
-6 13 -7 6 -3 -21 3 -27 1 -45 -6 -49 -9 -5 -11 19 -10 91 2 101 -7 201 -20
209 -3 2 -3 -18 0 -45 4 -27 1 -112 -6 -187 l-12 -138 -1 105 c0 58 -4 124 -7
148 l-6 44 -18 -30 c-10 -16 -20 -38 -23 -48 -2 -10 -6 8 -7 41 l-2 60 -10
-45 c-5 -25 -7 -83 -4 -130 4 -57 3 -80 -4 -70 -7 11 -10 4 -10 -27 0 -24 -3
-43 -7 -43 -5 0 -8 31 -8 69 0 66 -7 92 -21 78 -4 -4 -1 -13 5 -21 14 -17 6
-76 -10 -76 -12 0 -12 17 1 25 17 11 1 23 -21 18 -16 -4 -20 -2 -17 8 3 8 12
13 21 11 13 -2 14 3 6 30 -15 54 -21 116 -12 130 5 8 10 -3 14 -32 l7 -45 -2
45 c-1 30 -5 44 -13 42 -10 -1 -13 19 -14 75 0 43 -4 86 -7 96 -4 9 -6 -50 -4
-133 2 -97 -1 -163 -8 -186 -16 -48 -21 -39 -9 15 5 24 7 46 4 50 -11 10 -25
-24 -25 -61 0 -21 -4 -38 -10 -38 -5 0 -10 -9 -10 -20 0 -11 5 -20 10 -20 6 0
9 -12 9 -27 -1 -17 -3 -21 -6 -11 -2 10 -9 18 -14 18 -10 0 -13 -33 -3 -42 3
-4 6 -36 7 -72 2 -54 0 -63 -10 -50 -7 10 -10 36 -7 64 2 26 0 60 -6 74 -7 18
-6 26 2 26 7 0 8 24 4 77 -4 43 -9 79 -11 82 -6 5 -9 -138 -6 -244 2 -44 0
-77 -5 -72 -4 4 -7 29 -6 55 1 35 -1 42 -8 27 -5 -13 -9 48 -9 164 -1 101 -3
182 -6 179 -4 -3 -6 -70 -6 -149 1 -163 -8 -281 -19 -274 -5 3 -9 55 -9 117
-1 61 -3 114 -6 117 -3 2 -5 -84 -5 -193 1 -195 9 -243 21 -123 l6 62 1 -79
c2 -69 0 -77 -15 -72 -9 4 -20 1 -25 -6 -5 -8 -6 -1 -3 17 4 24 3 26 -4 10
-14 -30 -14 -78 1 -69 8 5 9 0 6 -14 -4 -12 -2 -20 3 -16 5 3 9 -2 9 -11 0 -9
-4 -13 -10 -10 -6 3 -10 -4 -10 -17 0 -17 -3 -19 -9 -9 -7 11 -10 10 -14 -5
-6 -23 -1 113 9 214 3 41 2 78 -2 82 -5 5 -9 -20 -9 -58 -1 -37 -6 -100 -13
-141 -7 -40 -11 -101 -8 -135 3 -44 2 -50 -3 -21 l-7 40 -5 -35 c-3 -19 -7 12
-8 70 -2 69 -5 98 -11 85 -5 -11 -9 -32 -9 -47 -1 -19 -6 -28 -17 -28 -11 0
-14 -5 -9 -17 8 -22 8 -21 5 -58 l-2 -30 -10 35 c-5 19 -11 66 -14 104 -3 39
-7 72 -9 75 -5 4 -10 -153 -6 -173 1 -5 -1 -23 -6 -40 -7 -31 -7 -31 -14 14
l-6 45 -1 -42 c-3 -69 34 -67 41 2 l4 40 1 -42 c2 -32 -4 -49 -19 -64 -17 -17
-19 -28 -14 -60 4 -22 3 -39 -2 -39 -6 0 -9 -10 -7 -23 1 -12 3 -29 4 -37 1
-11 4 -9 10 5 8 19 9 19 9 -2 1 -13 -3 -23 -9 -23 -6 0 -10 -29 -10 -66 0 -41
4 -63 10 -59 13 8 13 -8 -1 -22 -6 -6 -13 -47 -16 -92 l-6 -81 647 0 c610 0
646 1 646 18 0 21 34 44 55 36 9 -4 15 0 15 10 0 9 16 23 37 31 29 12 34 18
24 28 -11 9 -14 9 -18 0 -6 -16 -63 -17 -63 -2 0 6 8 8 18 5 11 -3 32 7 56 29
22 19 43 32 47 29 5 -2 13 4 18 15 16 28 14 33 -9 21 -16 -9 -22 -8 -26 4 -3
8 0 21 7 29 11 12 16 11 33 -5 23 -21 45 -24 48 -5 0 6 2 17 3 22 2 6 3 16 4
24 1 20 14 5 18 -22 8 -53 28 -62 62 -26 11 12 24 18 30 14 17 -10 13 0 -11
26 -16 18 -20 20 -15 6 10 -26 -1 -41 -19 -26 -7 6 -12 15 -9 19 3 5 -8 20
-25 33 -16 14 -30 33 -30 41 0 20 -28 10 -53 -18 -10 -12 -27 -20 -38 -18 -14
2 -17 -1 -13 -12 7 -17 -11 -22 -21 -6 -4 7 -12 7 -25 0 -10 -5 -24 -10 -31
-10 -27 0 10 23 56 35 53 13 84 49 70 81 -6 16 -9 13 -17 -19 -6 -20 -16 -37
-23 -37 -20 0 -8 121 14 139 12 10 13 15 4 18 -10 3 -10 10 -2 25 6 11 9 33 7
49 -3 18 0 29 8 29 6 0 14 6 17 14 3 8 27 17 56 21 44 6 49 9 37 21 -8 8 -20
14 -26 14 -6 0 7 17 29 38 23 21 38 41 35 45 -4 4 7 10 24 13 18 4 32 14 35
25 3 10 12 19 20 19 9 0 18 13 22 30 7 33 14 37 33 18 9 -9 12 -6 12 15 0 15
3 26 8 25 4 -2 20 7 36 19 16 13 26 23 22 23 -4 0 8 14 25 31 22 22 38 30 55
26 23 -4 28 3 25 31 -1 7 11 12 31 13 l33 1 -30 8 -30 8 33 1 c17 0 32 6 32
12 0 5 4 7 10 4 5 -3 12 6 16 20 3 14 11 25 17 25 6 0 7 3 4 6 -3 4 4 15 17
25 25 20 41 25 32 10 -3 -4 7 -6 22 -3 24 5 24 6 7 13 -15 6 -16 8 -4 8 9 1
33 -6 54 -15 20 -8 40 -13 42 -10 3 3 -5 9 -18 15 -40 15 -75 32 -56 27 22 -7
49 3 41 15 -3 5 7 9 21 9 20 0 26 4 21 15 -4 11 3 19 19 25 14 5 25 18 25 27
0 10 12 24 28 31 28 13 102 75 102 86 0 9 62 68 90 86 13 8 30 23 39 33 8 9
21 17 28 17 7 0 13 5 13 10 0 6 7 10 15 10 8 0 15 6 15 14 0 8 11 17 24 20 14
3 26 12 28 19 3 15 112 107 126 107 4 0 34 25 66 55 32 30 66 56 75 58 9 2 15
8 14 14 -1 6 11 16 26 23 16 6 38 23 50 36 16 19 28 23 44 19 21 -7 21 -6 3 7
-17 14 -17 15 6 30 57 37 179 153 171 162 -4 3 -1 6 7 6 7 0 28 14 47 30 18
17 38 30 43 30 6 0 10 5 10 11 0 12 25 39 36 39 17 0 62 63 56 79 -6 14 -7 14
-10 -1 -2 -10 -12 -18 -23 -18 -10 0 -19 -4 -19 -10 0 -5 -4 -10 -9 -10 -6 0
-50 -25 -100 -55 -50 -30 -92 -55 -95 -55 -5 0 -253 -162 -271 -177 -5 -4 -22
-16 -37 -26 l-28 -17 -3 307 -2 308 -3 -315 -3 -315 -72 -49 c-39 -27 -126
-86 -192 -131 -66 -45 -163 -111 -215 -147 -52 -36 -120 -81 -151 -101 l-55
-35 2 721 c1 589 0 657 -6 367 -4 -195 -9 -519 -10 -720 -1 -201 -6 -373 -11
-382 -10 -19 -88 -75 -110 -80 -8 -2 -20 -11 -28 -21 -7 -10 -20 -16 -28 -13
-8 3 -11 2 -8 -3 6 -11 -80 -73 -89 -64 -3 4 -6 1 -6 -6 0 -9 -5 -7 -16 3 -8
9 -13 20 -9 26 3 6 -1 7 -9 4 -20 -8 -20 -13 2 -37 16 -20 16 -20 -2 -14 -14
6 -17 3 -12 -8 5 -13 -5 -20 -26 -16 -5 0 -8 -4 -8 -10 0 -5 -4 -8 -10 -4 -6
3 -6 15 0 29 5 15 5 27 -3 35 -7 7 -7 11 -1 11 6 0 11 6 11 14 0 7 -7 11 -17
9 -15 -4 -16 3 -12 52 4 55 -10 105 -30 105 -5 0 -4 -10 3 -21 7 -14 9 -47 4
-95 -7 -74 -24 -110 -26 -57 -2 27 -2 27 -6 3 -3 -14 -12 -33 -21 -43 -15 -17
-16 -17 -25 -1 -11 20 -17 174 -6 174 8 0 19 -52 19 -97 0 -19 4 -32 9 -29 13
8 7 141 -6 158 -7 7 -13 31 -16 53 l-4 40 -1 -42 c-1 -23 -6 -44 -11 -47 -12
-8 -25 69 -15 85 4 8 3 9 -4 5 -7 -4 -13 -26 -14 -49 l-1 -42 -7 50 c-6 46 -7
47 -8 13 -1 -21 -7 -38 -13 -38 -6 0 -9 -7 -5 -15 3 -8 1 -15 -4 -15 -6 0 -10
15 -11 33 0 26 -2 28 -8 12 -10 -23 -8 -55 3 -73 4 -6 3 -12 -2 -12 -5 0 -10
-21 -10 -46 -1 -26 -4 -49 -7 -52 -2 -3 -5 43 -4 102 0 59 -2 110 -5 114 -3 3
-6 -22 -6 -56 0 -84 -18 -79 -23 6 -2 41 -4 21 -5 -55 -1 -67 -5 -124 -10
-127 -4 -2 -6 13 -4 34 2 21 0 40 -5 43 -4 3 -9 -6 -9 -19 -1 -13 -5 -36 -8
-50 -6 -21 -9 -24 -21 -14 -8 7 -14 27 -14 44 l2 31 7 -35 c6 -28 8 -22 9 35
2 131 -20 184 -43 104 -10 -34 -10 -34 -14 -6 -5 39 -22 33 -22 -9 0 -19 -4
-33 -9 -30 -4 3 -8 25 -7 48 1 32 5 42 16 40 24 -6 40 29 38 82 -1 41 -2 44
-5 16 -3 -19 -9 -39 -15 -45 -6 -7 -8 13 -3 60 4 51 3 65 -5 53 -5 -9 -9 -25
-8 -35 0 -10 0 -40 0 -66 -3 -64 -22 -52 -22 14 0 27 -4 49 -9 49 -5 0 -12 8
-14 18 -4 14 -5 13 -6 -4 0 -11 4 -25 11 -32 8 -8 8 -15 -2 -27 -7 -8 -10 -26
-8 -40 3 -15 -1 -30 -10 -37 -13 -12 -15 -4 -10 67 3 44 2 69 -2 55 -12 -38
-12 -188 0 -170 8 13 10 12 10 -2 0 -20 -8 -22 -28 -9 -10 6 -13 31 -9 105 2
53 1 96 -4 96 -5 0 -9 -46 -10 -102 0 -57 -4 -112 -9 -123 -8 -18 -9 -18 -9 5
-1 20 -3 22 -11 10 -6 -9 -10 -10 -10 -3 0 6 7 19 16 28 19 19 11 70 -9 59 -7
-4 -4 1 5 12 12 14 17 35 16 72 -1 31 -5 47 -10 40 -10 -17 -10 -15 -9 137 0
72 2 459 3 862 3 725 3 732 -17 737 -30 8 -45 7 -45 -4z m57 -1802 c-3 -7 -5
-2 -5 12 0 14 2 19 5 13 2 -7 2 -19 0 -25z m100 -130 c-2 -13 -4 -5 -4 17 -1
22 1 32 4 23 2 -10 2 -28 0 -40z m-428 -132 c-9 -8 -10 -3 -5 23 3 18 7 52 8
75 1 26 3 18 5 -23 3 -41 0 -68 -8 -75z m538 72 c-2 -13 -4 -3 -4 22 0 25 2
35 4 23 2 -13 2 -33 0 -45z m-137 -38 c-8 -13 -9 -13 -13 0 -15 44 -16 69 -4
73 15 5 29 -52 17 -73z m100 44 c0 -8 -5 -12 -10 -9 -6 4 -8 11 -5 16 9 14 15
11 15 -7z m250 -66 c0 -21 -4 -38 -10 -38 -5 0 -10 24 -10 53 0 37 3 48 10 37
5 -8 10 -32 10 -52z m-120 48 c0 -3 -4 -8 -10 -11 -5 -3 -10 -1 -10 4 0 6 5
11 10 11 6 0 10 -2 10 -4z m89 -65 c-1 -31 -5 -67 -9 -81 -7 -23 -8 -23 -10
10 -2 19 -3 55 -3 80 0 38 -1 39 -4 10 -6 -48 -20 -59 -15 -12 5 53 9 62 27
56 11 -5 15 -20 14 -63z m-659 39 c25 -20 25 -21 5 -35 -14 -12 -19 -27 -18
-63 l1 -47 -7 45 -7 45 -5 -40 c-3 -23 -5 -7 -5 37 1 43 3 78 6 78 3 0 16 -9
30 -20z m37 -2 c-3 -8 -6 -5 -6 6 -1 11 2 17 5 13 3 -3 4 -12 1 -19z m73 12
c0 -5 -4 -10 -10 -10 -5 0 -10 5 -10 10 0 6 5 10 10 10 6 0 10 -4 10 -10z
m296 -27 c-10 -10 -19 5 -10 18 6 11 8 11 12 0 2 -7 1 -15 -2 -18z m21 -30
c-3 -10 -5 -4 -5 12 0 17 2 24 5 18 2 -7 2 -21 0 -30z m-317 18 c0 -6 -4 -13
-10 -16 -5 -3 -10 1 -10 9 0 9 5 16 10 16 6 0 10 -4 10 -9z m-73 -23 c-3 -8
-6 -5 -6 6 -1 11 2 17 5 13 3 -3 4 -12 1 -19z m-90 -130 c-2 -24 -4 -5 -4 42
0 47 2 66 4 43 2 -24 2 -62 0 -85z m60 60 c-2 -13 -4 -3 -4 22 0 25 2 35 4 23
2 -13 2 -33 0 -45z m230 -95 c-2 -32 -3 -8 -3 52 0 61 1 87 3 58 2 -29 2 -78
0 -110z m320 135 c-3 -8 -6 -5 -6 6 -1 11 2 17 5 13 3 -3 4 -12 1 -19z m-180
-10 c-3 -8 -6 -5 -6 6 -1 11 2 17 5 13 3 -3 4 -12 1 -19z m-214 -5 c-7 -2 -19
-2 -25 0 -7 3 -2 5 12 5 14 0 19 -2 13 -5z m547 -90 c0 -24 2 -43 5 -43 3 0
15 10 27 22 14 14 18 23 10 26 -20 6 -14 22 8 22 22 0 24 -25 5 -45 -24 -25
-75 -55 -75 -45 0 6 -4 8 -10 5 -5 -3 -10 -1 -10 5 0 7 9 9 23 5 12 -3 17 -3
11 2 -6 4 -14 31 -16 58 -3 28 -9 59 -13 70 -4 11 2 7 14 -10 13 -19 21 -46
21 -72z m-220 56 c0 -11 -4 -17 -10 -14 -5 3 -10 13 -10 21 0 8 5 14 10 14 6
0 10 -9 10 -21z m-423 -44 c-2 -72 -17 -72 -17 0 0 30 4 55 9 55 5 0 8 -25 8
-55z m383 45 c0 -5 -5 -10 -11 -10 -5 0 -7 5 -4 10 3 6 8 10 11 10 2 0 4 -4 4
-10z m-867 -69 c8 -70 -2 -59 -12 13 -4 31 -5 53 -1 49 4 -4 10 -32 13 -62z
m208 -16 c15 10 23 -25 9 -38 -9 -8 -11 -8 -7 -1 4 7 0 17 -8 24 -10 8 -14 28
-13 54 l1 41 4 -43 c2 -23 8 -40 14 -37z m1015 59 c19 -15 19 -15 -1 -6 -11 5
-27 12 -35 15 -13 5 -13 6 1 6 8 1 24 -6 35 -15z m-1255 -47 c-8 -8 -11 -4
-11 14 0 33 14 47 18 19 2 -12 -1 -27 -7 -33z m886 1 c-2 -13 -4 -5 -4 17 -1
22 1 32 4 23 2 -10 2 -28 0 -40z m211 -26 c-4 -2 -4 -11 -1 -20 3 -9 3 -14 -1
-11 -12 11 -16 53 -9 84 7 30 7 30 13 -10 3 -22 2 -41 -2 -43z m-841 36 c-3
-7 -5 -2 -5 12 0 14 2 19 5 13 2 -7 2 -19 0 -25z m30 0 c-3 -7 -5 -2 -5 12 0
14 2 19 5 13 2 -7 2 -19 0 -25z m203 12 c0 -5 -7 -10 -15 -10 -8 0 -15 5 -15
10 0 6 7 10 15 10 8 0 15 -4 15 -10z m-73 -32 c-3 -7 -5 -2 -5 12 0 14 2 19 5
13 2 -7 2 -19 0 -25z m647 -3 c3 -8 1 -15 -4 -15 -6 0 -10 7 -10 15 0 8 2 15
4 15 2 0 6 -7 10 -15z m-1067 -67 c-2 -13 -4 -3 -4 22 0 25 2 35 4 23 2 -13 2
-33 0 -45z m299 14 c-11 -10 -15 4 -8 28 l7 25 3 -23 c2 -13 1 -26 -2 -30z
m-159 -54 c-2 -18 -4 -4 -4 32 0 36 2 50 4 33 2 -18 2 -48 0 -65z m-120 0 c-2
-18 -4 -6 -4 27 0 33 2 48 4 33 2 -15 2 -42 0 -60z m-142 41 c11 -17 -1 -21
-15 -4 -8 9 -8 15 -2 15 6 0 14 -5 17 -11z m458 -9 c3 -11 1 -18 -4 -14 -5 3
-9 0 -9 -7 0 -7 -2 -10 -5 -8 -4 5 5 49 10 49 1 0 5 -9 8 -20z m777 11 c0 -5
-7 -11 -14 -14 -10 -4 -13 -1 -9 9 6 15 23 19 23 5z m-1000 -64 c0 -31 -3 -38
-10 -27 -13 20 -13 83 0 75 6 -3 10 -25 10 -48z m577 16 c-3 -10 -5 -4 -5 12
0 17 2 24 5 18 2 -7 2 -21 0 -30z m-760 -25 c-3 -8 -6 -5 -6 6 -1 11 2 17 5
13 3 -3 4 -12 1 -19z m-67 -8 c0 -11 -4 -20 -10 -20 -5 0 -10 9 -10 20 0 11 5
20 10 20 6 0 10 -9 10 -20z m100 0 c0 -5 -5 -10 -11 -10 -5 0 -7 5 -4 10 3 6
8 10 11 10 2 0 4 -4 4 -10z m-7 -101 c-4 -4 -6 13 -3 39 l5 47 3 -39 c2 -21 0
-42 -5 -47z m-186 -36 c-3 -10 -5 -2 -5 17 0 19 2 27 5 18 2 -10 2 -26 0 -35z
m113 27 c0 -5 -2 -10 -4 -10 -3 0 -8 5 -11 10 -3 6 -1 10 4 10 6 0 11 -4 11
-10z m-84 -56 c-4 -14 -9 -24 -12 -21 -3 2 -2 17 2 31 3 15 9 25 11 22 3 -3 2
-17 -1 -32z m21 -61 c-3 -10 -5 -2 -5 17 0 19 2 27 5 18 2 -10 2 -26 0 -35z
m-50 -20 c-3 -10 -5 -2 -5 17 0 19 2 27 5 18 2 -10 2 -26 0 -35z m20 5 c-3 -7
-5 -2 -5 12 0 14 2 19 5 13 2 -7 2 -19 0 -25z m1383 22 c0 -5 -4 -10 -10 -10
-5 0 -10 5 -10 10 0 6 5 10 10 10 6 0 10 -4 10 -10z m-1213 -77 c-3 -10 -5 -4
-5 12 0 17 2 24 5 18 2 -7 2 -21 0 -30z m1093 -63 c0 -5 -9 -10 -19 -10 -11 0
-23 5 -26 10 -4 6 5 10 19 10 14 0 26 -4 26 -10z m-1320 -70 c0 -5 -4 -10 -10
-10 -5 0 -10 5 -10 10 0 6 5 10 10 10 6 0 10 -4 10 -10z m-33 -42 c-3 -7 -5
-2 -5 12 0 14 2 19 5 13 2 -7 2 -19 0 -25z m1268 12 c3 -5 -1 -10 -9 -10 -9 0
-16 5 -16 10 0 6 4 10 9 10 6 0 13 -4 16 -10z m-25 -40 c-8 -5 -19 -10 -25
-10 -5 0 -3 5 5 10 8 5 20 10 25 10 6 0 3 -5 -5 -10z m-1219 -37 c-9 -16 -10
-14 -11 12 0 21 3 26 11 18 8 -8 8 -16 0 -30z m-154 -118 c1 -54 -2 -93 -7
-90 -5 3 -11 -7 -13 -22 -2 -16 -2 -8 1 17 6 52 5 135 -3 168 -3 14 -1 22 7
22 10 0 14 -26 15 -95z m120 53 c-3 -7 -5 -2 -5 12 0 14 2 19 5 13 2 -7 2 -19
0 -25z m-20 -10 c-3 -7 -5 -2 -5 12 0 14 2 19 5 13 2 -7 2 -19 0 -25z m1253
22 c0 -5 -2 -10 -4 -10 -3 0 -8 5 -11 10 -3 6 -1 10 4 10 6 0 11 -4 11 -10z
m-70 -31 c0 -5 -6 -9 -14 -9 -23 0 -46 11 -41 20 6 10 55 0 55 -11z m-1213
-31 c-3 -8 -6 -5 -6 6 -1 11 2 17 5 13 3 -3 4 -12 1 -19z m1160 6 c-3 -3 -12
-4 -19 -1 -8 3 -5 6 6 6 11 1 17 -2 13 -5z m130 -28 c-6 -17 -30 -13 -32 5 -2
12 3 15 16 12 11 -3 18 -11 16 -17z m-107 -1 c0 -8 5 -15 10 -15 6 0 10 7 10
15 0 8 7 15 15 15 8 0 15 -3 15 -7 -1 -15 -39 -58 -46 -51 -3 4 -15 3 -25 -3
-15 -7 -19 -6 -19 5 0 7 7 16 15 20 8 3 12 12 9 21 -3 8 -1 15 5 15 6 0 11 -7
11 -15z m-87 -10 c-3 -9 -8 -14 -10 -11 -3 3 -2 9 2 15 9 16 15 13 8 -4z
m-1116 -27 c-3 -8 -6 -5 -6 6 -1 11 2 17 5 13 3 -3 4 -12 1 -19z m1423 18 c0
-11 -19 -15 -25 -6 -3 5 1 10 9 10 9 0 16 -2 16 -4z m-135 -57 c-10 -15 -25
-10 -19 6 4 8 10 12 15 9 5 -3 7 -10 4 -15z m105 11 c0 -5 -4 -10 -9 -10 -6 0
-13 5 -16 10 -3 6 1 10 9 10 9 0 16 -4 16 -10z m-106 -72 c19 -38 20 -44 3
-29 -8 6 -17 8 -20 4 -7 -6 -10 10 -4 24 1 4 -16 13 -38 19 l-40 12 42 1 c37
1 43 -2 57 -31z m-1227 0 c-3 -8 -6 -5 -6 6 -1 11 2 17 5 13 3 -3 4 -12 1 -19z
m1173 -13 c0 -8 -4 -15 -10 -15 -5 0 -10 7 -10 15 0 8 5 15 10 15 6 0 10 -7
10 -15z m-1280 -31 c0 -22 -4 -33 -11 -29 -6 4 -10 1 -8 -6 3 -25 -1 -39 -10
-39 -12 0 -1 74 11 78 4 2 8 10 8 18 0 8 2 14 5 14 3 0 5 -16 5 -36z m27 -26
c-2 -13 -4 -5 -4 17 -1 22 1 32 4 23 2 -10 2 -28 0 -40z m1233 10 c0 -13 -23
-5 -28 10 -2 7 2 10 12 6 9 -3 16 -11 16 -16z m62 0 c-6 -6 -15 -8 -19 -4 -4
4 -1 11 7 16 19 12 27 3 12 -12z m-82 -28 c0 -5 -2 -10 -4 -10 -3 0 -8 5 -11
10 -3 6 -1 10 4 10 6 0 11 -4 11 -10z m-1242 -50 c-7 -11 -16 -20 -20 -20 -5
0 -3 9 4 20 7 11 16 20 20 20 5 0 3 -9 -4 -20z"/>
<path d="M5375 3355 c-49 -25 -82 -43 -72 -40 20 5 23 -15 5 -34 -7 -7 9 -3
35 8 27 12 66 24 87 27 36 6 38 9 42 45 2 22 1 39 -2 39 -3 0 -45 -21 -95 -45z"/>
<path d="M2100 3221 c0 -5 -8 -12 -17 -14 -14 -4 -12 -5 5 -6 13 -1 22 5 22
14 0 8 -2 15 -5 15 -3 0 -5 -4 -5 -9z"/>
<path d="M1996 3188 c5 -8 2 -9 -10 -5 -25 10 -72 -3 -54 -14 19 -12 30 -11
22 2 -5 8 0 10 17 6 14 -3 32 0 43 9 19 14 19 14 -3 14 -14 0 -20 -4 -15 -12z"/>
<path d="M4742 3180 c0 -14 2 -19 5 -12 2 6 2 18 0 25 -3 6 -5 1 -5 -13z"/>
<path d="M1820 3149 c0 -5 -5 -7 -12 -3 -7 4 -8 3 -4 -4 11 -18 56 -15 56 3 0
8 -9 15 -20 15 -11 0 -20 -5 -20 -11z"/>
<path d="M1870 3148 c0 -10 9 -9 35 2 17 8 16 8 -7 7 -16 -1 -28 -5 -28 -9z"/>
<path d="M4743 3105 c0 -27 2 -38 4 -22 2 15 2 37 0 50 -2 12 -4 0 -4 -28z"/>
<path d="M1715 3122 c-33 -8 -62 -19 -63 -23 -2 -5 -8 -6 -13 -3 -17 10 -56
-5 -56 -21 0 -9 5 -14 11 -12 10 4 133 41 185 56 52 15 -5 18 -64 3z"/>
<path d="M1531 3071 c-1 -9 -9 -11 -28 -6 -23 5 -25 4 -14 -9 15 -18 8 -20
-19 -6 -13 7 -21 7 -26 -2 -4 -6 -3 -8 2 -5 36 22 36 32 20 -1439 -19 -1682
-19 -1604 -6 -1604 6 0 10 10 11 23 1 21 1 21 9 -3 6 -19 8 -12 9 31 1 31 -4
61 -11 68 -10 11 -10 13 0 7 8 -5 12 0 12 14 0 12 -4 18 -10 15 -6 -4 -10 15
-9 52 1 48 3 52 8 23 3 -19 8 487 9 1125 2 638 7 1279 10 1425 l7 265 29 5
c28 5 50 30 26 30 -6 0 -8 -4 -5 -10 3 -5 2 -10 -4 -10 -5 0 -12 6 -14 13 -4
9 -6 9 -6 -2z m-54 -2993 c-3 -8 -6 -5 -6 6 -1 11 2 17 5 13 3 -3 4 -12 1 -19z"/>
<path d="M1340 3020 c0 -5 -9 -10 -19 -10 -11 0 -23 -5 -27 -11 -8 -13 27 -4
66 17 25 13 25 13 3 14 -13 0 -23 -4 -23 -10z"/>
<path d="M1236 2988 c5 -8 -2 -9 -27 -5 -24 5 -30 4 -19 -3 13 -8 12 -10 -4
-10 -11 0 -17 -2 -14 -5 3 -3 29 0 58 7 39 9 48 14 34 19 -28 11 -36 10 -28
-3z"/>
<path d="M3812 2980 c0 -14 2 -19 5 -12 2 6 2 18 0 25 -3 6 -5 1 -5 -13z"/>
<path d="M2 2950 c0 -14 2 -19 5 -12 2 6 2 18 0 25 -3 6 -5 1 -5 -13z"/>
<path d="M1100 2950 c-8 -5 -26 -7 -40 -4 -21 4 -22 4 -8 -6 13 -8 30 -7 65 4
33 10 40 15 23 15 -14 0 -32 -4 -40 -9z"/>
<path d="M1000 2920 c-11 -8 -7 -9 15 -4 37 8 45 14 19 14 -10 0 -26 -5 -34
-10z"/>
<path d="M960 2910 c-13 -8 -12 -10 3 -10 9 0 17 5 17 10 0 12 -1 12 -20 0z"/>
<path d="M903 2895 c0 -7 8 -10 19 -7 10 2 18 6 18 7 0 1 -8 5 -18 7 -11 3
-19 0 -19 -7z"/>
<path d="M735 2850 c-3 -5 -1 -10 4 -10 6 0 11 5 11 10 0 6 -2 10 -4 10 -3 0
-8 -4 -11 -10z"/>
<path d="M768 2853 c7 -3 16 -2 19 1 4 3 -2 6 -13 5 -11 0 -14 -3 -6 -6z"/>
<path d="M650 2829 c0 -5 9 -9 20 -9 11 0 20 2 20 4 0 2 -9 6 -20 9 -11 3 -20
1 -20 -4z"/>
<path d="M523 2797 c-24 -5 -43 -13 -43 -17 0 -9 75 11 86 23 4 4 5 6 3 6 -2
-1 -23 -6 -46 -12z"/>
<path d="M445 2770 c-3 -6 1 -7 9 -4 18 7 21 14 7 14 -6 0 -13 -4 -16 -10z"/>
<path d="M400 2756 c7 -7 13 -7 20 0 6 6 3 10 -10 10 -13 0 -16 -4 -10 -10z"/>
<path d="M320 2740 c-13 -8 -12 -10 3 -10 9 0 17 5 17 10 0 12 -1 12 -20 0z"/>
<path d="M261 2724 c0 -11 3 -14 6 -6 3 7 2 16 -1 19 -3 4 -6 -2 -5 -13z"/>
<path d="M170 2700 c8 -5 22 -9 30 -9 10 0 8 3 -5 9 -27 12 -43 12 -25 0z"/>
<path d="M120 2680 c-11 -8 -7 -9 15 -4 37 8 45 14 19 14 -10 0 -26 -5 -34
-10z"/>
<path d="M70 2670 c-8 -5 -10 -10 -5 -10 6 0 17 5 25 10 8 5 11 10 5 10 -5 0
-17 -5 -25 -10z"/>
<path d="M28 2653 c7 -3 16 -2 19 1 4 3 -2 6 -13 5 -11 0 -14 -3 -6 -6z"/>
<path d="M3022 1825 c0 -16 2 -22 5 -12 2 9 2 23 0 30 -3 6 -5 -1 -5 -18z"/>
<path d="M2892 1820 c0 -14 2 -19 5 -12 2 6 2 18 0 25 -3 6 -5 1 -5 -13z"/>
<path d="M2662 1740 c0 -14 2 -19 5 -12 2 6 2 18 0 25 -3 6 -5 1 -5 -13z"/>
<path d="M3030 1740 c0 -11 5 -20 10 -20 6 0 10 9 10 20 0 11 -4 20 -10 20 -5
0 -10 -9 -10 -20z"/>
<path d="M2201 1704 c0 -11 3 -14 6 -6 3 7 2 16 -1 19 -3 4 -6 -2 -5 -13z"/>
<path d="M2935 1710 c3 -5 8 -10 11 -10 2 0 4 5 4 10 0 6 -5 10 -11 10 -5 0
-7 -4 -4 -10z"/>
<path d="M2041 1624 c0 -11 3 -14 6 -6 3 7 2 16 -1 19 -3 4 -6 -2 -5 -13z"/>
<path d="M2443 1605 c0 -22 2 -30 4 -17 2 12 2 30 0 40 -3 9 -5 -1 -4 -23z"/>
<path d="M2811 1624 c0 -11 3 -14 6 -6 3 7 2 16 -1 19 -3 4 -6 -2 -5 -13z"/>
<path d="M2231 1595 c1 -40 1 -40 10 -10 5 18 5 33 -1 39 -7 7 -10 -4 -9 -29z"/>
<path d="M2272 1610 c0 -14 2 -19 5 -12 2 6 2 18 0 25 -3 6 -5 1 -5 -13z"/>
<path d="M3126 1615 c-3 -9 -6 -29 -5 -43 1 -22 3 -19 10 12 10 40 6 60 -5 31z"/>
<path d="M3927 1619 c7 -7 15 -10 18 -7 3 3 -2 9 -12 12 -14 6 -15 5 -6 -5z"/>
<path d="M2336 1604 c-3 -9 -6 -23 -6 -32 1 -12 5 -10 15 8 8 14 14 28 15 33
0 13 -18 7 -24 -9z"/>
<path d="M3271 1594 c0 -11 3 -14 6 -6 3 7 2 16 -1 19 -3 4 -6 -2 -5 -13z"/>
<path d="M2042 1580 c0 -14 2 -19 5 -12 2 6 2 18 0 25 -3 6 -5 1 -5 -13z"/>
<path d="M2768 1584 c-5 -4 -8 -26 -7 -48 0 -37 1 -39 10 -16 11 27 8 76 -3
64z"/>
<path d="M3385 1570 c-3 -5 -1 -10 4 -10 6 0 11 5 11 10 0 6 -2 10 -4 10 -3 0
-8 -4 -11 -10z"/>
<path d="M2674 1557 c-3 -8 -4 -30 -1 -49 3 -29 4 -28 7 12 2 42 3 43 10 15
l8 -30 1 27 c1 30 -16 47 -25 25z"/>
<path d="M2093 1520 c0 -25 2 -35 4 -22 2 12 2 32 0 45 -2 12 -4 2 -4 -23z"/>
<path d="M2443 1480 c0 -47 2 -66 4 -42 2 23 2 61 0 85 -2 23 -4 4 -4 -43z"/>
<path d="M2600 1544 c0 -8 5 -12 10 -9 6 3 10 10 10 16 0 5 -4 9 -10 9 -5 0
-10 -7 -10 -16z"/>
<path d="M3328 1520 c-2 -22 0 -40 4 -40 5 0 8 18 8 40 0 22 -2 40 -4 40 -2 0
-6 -18 -8 -40z"/>
<path d="M2002 1515 c0 -16 2 -22 5 -12 2 9 2 23 0 30 -3 6 -5 -1 -5 -18z"/>
<path d="M2042 1515 c0 -16 2 -22 5 -12 2 9 2 23 0 30 -3 6 -5 -1 -5 -18z"/>
<path d="M3425 1510 c-3 -5 -1 -10 4 -10 6 0 11 5 11 10 0 6 -2 10 -4 10 -3 0
-8 -4 -11 -10z"/>
<path d="M2225 1490 c-3 -5 -1 -10 4 -10 6 0 11 5 11 10 0 6 -2 10 -4 10 -3 0
-8 -4 -11 -10z"/>
<path d="M2402 1475 c0 -16 2 -22 5 -12 2 9 2 23 0 30 -3 6 -5 -1 -5 -18z"/>
<path d="M3490 1489 c0 -5 5 -7 10 -4 6 3 10 8 10 11 0 2 -4 4 -10 4 -5 0 -10
-5 -10 -11z"/>
<path d="M2501 1464 c0 -11 3 -14 6 -6 3 7 2 16 -1 19 -3 4 -6 -2 -5 -13z"/>
<path d="M3432 1460 c0 -14 2 -19 5 -12 2 6 2 18 0 25 -3 6 -5 1 -5 -13z"/>
<path d="M2062 1435 c0 -16 2 -22 5 -12 2 9 2 23 0 30 -3 6 -5 -1 -5 -18z"/>
<path d="M2296 1441 c-4 -7 -5 -15 -2 -18 9 -9 19 4 14 18 -4 11 -6 11 -12 0z"/>
<path d="M1952 1420 c0 -14 2 -19 5 -12 2 6 2 18 0 25 -3 6 -5 1 -5 -13z"/>
<path d="M3361 1425 c0 -11 -4 -31 -7 -45 -5 -19 -4 -22 5 -14 7 6 11 26 8 45
-2 19 -5 25 -6 14z"/>
<path d="M1901 1374 c0 -11 3 -14 6 -6 3 7 2 16 -1 19 -3 4 -6 -2 -5 -13z"/>
<path d="M1991 1370 c2 -44 -1 -56 -9 -43 -4 6 -7 -18 -7 -53 0 -35 3 -56 7
-47 3 10 7 35 7 55 1 20 6 38 12 40 8 3 8 14 0 38 -8 28 -10 30 -10 10z"/>
<path d="M2312 1360 c0 -19 2 -27 5 -17 2 9 2 25 0 35 -3 9 -5 1 -5 -18z"/>
<path d="M2350 1353 c0 -17 5 -35 10 -38 13 -8 13 35 0 55 -7 11 -10 7 -10
-17z"/>
<path d="M3490 1355 c0 -8 5 -15 10 -15 6 0 10 7 10 15 0 8 -4 15 -10 15 -5 0
-10 -7 -10 -15z"/>
<path d="M2091 1304 c0 -11 3 -14 6 -6 3 7 2 16 -1 19 -3 4 -6 -2 -5 -13z"/>
<path d="M2301 1304 c0 -11 3 -14 6 -6 3 7 2 16 -1 19 -3 4 -6 -2 -5 -13z"/>
<path d="M3514 1309 c-3 -6 -3 -13 0 -16 3 -4 6 0 6 8 0 12 2 12 9 0 5 -8 11
-9 15 -3 3 5 -1 12 -9 16 -8 3 -17 1 -21 -5z"/>
<path d="M2000 1270 c0 -19 3 -21 12 -12 9 9 9 15 0 24 -9 9 -12 7 -12 -12z"/>
<path d="M2251 1224 c0 -11 3 -14 6 -6 3 7 2 16 -1 19 -3 4 -6 -2 -5 -13z"/>
<path d="M3910 1150 c8 -5 20 -10 25 -10 6 0 3 5 -5 10 -8 5 -19 10 -25 10 -5
0 -3 -5 5 -10z"/>
<path d="M1882 1115 c0 -16 2 -22 5 -12 2 9 2 23 0 30 -3 6 -5 -1 -5 -18z"/>
<path d="M1883 1040 c0 -25 2 -35 4 -22 2 12 2 32 0 45 -2 12 -4 2 -4 -23z"/>
<path d="M1740 997 c0 -14 -4 -29 -10 -32 -14 -9 -12 -45 2 -42 7 1 15 -13 19
-33 4 -19 5 1 2 45 -6 78 -13 115 -13 62z"/>
<path d="M3530 970 c0 -5 5 -10 10 -10 6 0 10 5 10 10 0 6 -4 10 -10 10 -5 0
-10 -4 -10 -10z"/>
<path d="M1782 905 c0 -16 2 -22 5 -12 2 9 2 23 0 30 -3 6 -5 -1 -5 -18z"/>
<path d="M1802 870 c0 -19 2 -27 5 -17 2 9 2 25 0 35 -3 9 -5 1 -5 -18z"/>
<path d="M1842 865 c0 -16 2 -22 5 -12 2 9 2 23 0 30 -3 6 -5 -1 -5 -18z"/>
<path d="M4670 860 c8 -5 20 -10 25 -10 6 0 3 5 -5 10 -8 5 -19 10 -25 10 -5
0 -3 -5 5 -10z"/>
<path d="M1715 839 c-4 -6 -5 -12 -2 -15 2 -3 7 2 10 11 7 17 1 20 -8 4z"/>
<path d="M1751 824 c0 -11 3 -14 6 -6 3 7 2 16 -1 19 -3 4 -6 -2 -5 -13z"/>
<path d="M1761 774 c0 -11 3 -14 6 -6 3 7 2 16 -1 19 -3 4 -6 -2 -5 -13z"/>
<path d="M1783 735 c0 -33 2 -45 4 -27 2 18 2 45 0 60 -2 15 -4 0 -4 -33z"/>
<path d="M4885 780 c27 -12 43 -12 25 0 -8 5 -22 9 -30 9 -10 0 -8 -3 5 -9z"/>
<path d="M1716 764 c-7 -17 -8 -80 -2 -73 5 6 16 89 12 89 -2 0 -7 -7 -10 -16z"/>
<path d="M1742 750 c0 -14 2 -19 5 -12 2 6 2 18 0 25 -3 6 -5 1 -5 -13z"/>
<path d="M1732 700 c0 -14 2 -19 5 -12 2 6 2 18 0 25 -3 6 -5 1 -5 -13z"/>
<path d="M5090 700 c8 -5 20 -10 25 -10 6 0 3 5 -5 10 -8 5 -19 10 -25 10 -5
0 -3 -5 5 -10z"/>
<path d="M1623 645 c0 -22 2 -30 4 -17 2 12 2 30 0 40 -3 9 -5 -1 -4 -23z"/>
<path d="M1638 558 c-3 -82 -8 -123 -16 -126 -7 -2 -12 -8 -12 -13 0 -6 5 -7
10 -4 6 4 9 -20 8 -67 -1 -55 -3 -61 -5 -25 -2 26 -7 47 -11 47 -12 0 -14 -58
-3 -79 10 -19 14 -95 8 -148 -2 -18 0 -33 5 -33 4 0 8 -26 9 -57 0 -41 3 -51
8 -33 7 26 15 660 8 660 -3 0 -6 -55 -9 -122z"/>
<path d="M5170 670 c8 -5 20 -10 25 -10 6 0 3 5 -5 10 -8 5 -19 10 -25 10 -5
0 -3 -5 5 -10z"/>
<path d="M5228 648 c5 -5 16 -8 23 -6 8 3 3 7 -10 11 -17 4 -21 3 -13 -5z"/>
<path d="M3145 560 c-3 -5 -1 -10 4 -10 6 0 11 5 11 10 0 6 -2 10 -4 10 -3 0
-8 -4 -11 -10z"/>
<path d="M3182 545 c0 -16 2 -22 5 -12 2 9 2 23 0 30 -3 6 -5 -1 -5 -18z"/>
<path d="M5517 539 c7 -7 15 -10 18 -7 3 3 -2 9 -12 12 -14 6 -15 5 -6 -5z"/>
<path d="M1615 507 c-4 -10 -5 -21 -1 -24 10 -10 18 4 13 24 -4 17 -4 17 -12
0z"/>
<path d="M3200 510 c0 -5 5 -10 10 -10 6 0 10 5 10 10 0 6 -4 10 -10 10 -5 0
-10 -4 -10 -10z"/>
<path d="M1576 491 c-4 -7 -5 -15 -2 -18 9 -9 19 4 14 18 -4 11 -6 11 -12 0z"/>
<path d="M3162 489 c2 -6 8 -10 13 -10 5 0 11 4 13 10 2 6 -4 11 -13 11 -9 0
-15 -5 -13 -11z"/>
<path d="M3230 460 c0 -5 11 -10 25 -10 14 0 25 5 25 10 0 6 -11 10 -25 10
-14 0 -25 -4 -25 -10z"/>
<path d="M3137 454 c-8 -8 1 -24 14 -24 5 0 9 7 9 15 0 15 -12 20 -23 9z"/>
<path d="M1522 430 c0 -14 2 -19 5 -12 2 6 2 18 0 25 -3 6 -5 1 -5 -13z"/>
<path d="M1544 373 c0 -43 -2 -116 -3 -163 -4 -119 -2 -214 4 -208 11 10 19
448 8 448 -5 0 -9 -35 -9 -77z"/>
<path d="M3182 420 c-19 -31 -14 -46 8 -22 20 21 26 42 12 42 -4 0 -13 -9 -20
-20z"/>
<path d="M3230 425 c0 -8 5 -15 10 -15 6 0 10 7 10 15 0 8 -4 15 -10 15 -5 0
-10 -7 -10 -15z"/>
<path d="M3271 424 c0 -11 3 -14 6 -6 3 7 2 16 -1 19 -3 4 -6 -2 -5 -13z"/>
<path d="M1582 385 c0 -16 2 -22 5 -12 2 9 2 23 0 30 -3 6 -5 -1 -5 -18z"/>
<path d="M1417 384 c-4 -4 -7 -19 -6 -33 l0 -26 10 24 c10 26 8 47 -4 35z"/>
<path d="M1522 335 c0 -16 2 -22 5 -12 2 9 2 23 0 30 -3 6 -5 -1 -5 -18z"/>
<path d="M1582 305 c0 -16 2 -22 5 -12 2 9 2 23 0 30 -3 6 -5 -1 -5 -18z"/>
<path d="M1391 294 c0 -11 3 -14 6 -6 3 7 2 16 -1 19 -3 4 -6 -2 -5 -13z"/>
<path d="M1516 248 c-9 -34 -7 -88 3 -88 4 0 9 25 10 55 1 59 -3 69 -13 33z"/>
<path d="M1402 249 c2 -7 10 -15 17 -17 8 -3 12 1 9 9 -2 7 -10 15 -17 17 -8
3 -12 -1 -9 -9z"/>
<path d="M1410 200 c0 -5 5 -10 11 -10 5 0 7 5 4 10 -3 6 -8 10 -11 10 -2 0
-4 -4 -4 -10z"/>
<path d="M3170 200 c8 -5 30 -10 49 -10 45 0 37 6 -19 14 -31 4 -40 3 -30 -4z"/>
<path d="M1582 175 c0 -16 2 -22 5 -12 2 9 2 23 0 30 -3 6 -5 -1 -5 -18z"/>
<path d="M3288 193 c7 -3 16 -2 19 1 4 3 -2 6 -13 5 -11 0 -14 -3 -6 -6z"/>
<path d="M3325 180 c3 -5 12 -7 20 -3 21 7 19 13 -6 13 -11 0 -18 -4 -14 -10z"/>
<path d="M3145 160 c3 -5 13 -10 21 -10 8 0 14 5 14 10 0 6 -9 10 -21 10 -11
0 -17 -4 -14 -10z"/>
<path d="M1501 140 c0 -8 4 -22 9 -30 12 -18 12 -2 0 25 -6 13 -9 15 -9 5z"/>
<path d="M3080 141 c0 -5 8 -12 18 -15 19 -7 25 -46 8 -58 -16 -11 13 -28 44
-26 24 1 24 1 -2 5 -16 2 -28 9 -28 14 0 11 4 11 53 0 39 -9 50 2 25 27 -8 8
-9 12 -1 12 6 0 13 -6 16 -12 3 -10 7 -10 19 0 20 16 75 5 59 -11 -6 -6 -11
-18 -11 -26 0 -11 5 -8 16 7 13 20 14 28 3 53 -6 17 -15 26 -18 21 -3 -5 -31
-8 -61 -8 -48 1 -55 -1 -55 -19 0 -21 -29 -33 -40 -16 -3 6 -1 11 6 11 7 0 2
11 -11 25 -24 26 -40 32 -40 16z"/>
<path d="M3698 133 c7 -3 16 -2 19 1 4 3 -2 6 -13 5 -11 0 -14 -3 -6 -6z"/>
<path d="M3440 126 c0 -2 7 -7 16 -10 8 -3 12 -2 9 4 -6 10 -25 14 -25 6z"/>
<path d="M3335 110 c3 -5 10 -10 16 -10 5 0 9 5 9 10 0 6 -7 10 -16 10 -8 0
-12 -4 -9 -10z"/>
<path d="M3691 104 c0 -11 3 -14 6 -6 3 7 2 16 -1 19 -3 4 -6 -2 -5 -13z"/>
<path d="M3723 80 c0 -25 2 -35 4 -22 2 12 2 32 0 45 -2 12 -4 2 -4 -23z"/>
<path d="M1572 55 l1 -60 7 45 c4 25 4 52 -1 60 -5 9 -8 -8 -7 -45z"/>
<path d="M3752 80 c0 -14 2 -19 5 -12 2 6 2 18 0 25 -3 6 -5 1 -5 -13z"/>
<path d="M3070 80 c0 -5 5 -10 10 -10 6 0 10 5 10 10 0 6 -4 10 -10 10 -5 0
-10 -4 -10 -10z"/>
<path d="M1511 40 l1 -45 10 34 c6 23 6 37 -1 44 -8 8 -11 -2 -10 -33z"/>
<path d="M3246 71 c-5 -7 -3 -18 3 -24 14 -14 20 -6 11 17 -5 15 -9 16 -14 7z"/>
<path d="M1600 36 c0 -20 5 -36 10 -36 6 0 10 13 10 29 0 17 -4 33 -10 36 -6
4 -10 -8 -10 -29z"/>
<path d="M3041 54 c0 -11 3 -14 6 -6 3 7 2 16 -1 19 -3 4 -6 -2 -5 -13z"/>
<path d="M3326 55 c4 -8 10 -12 15 -9 11 6 2 24 -11 24 -5 0 -7 -7 -4 -15z"/>
<path d="M3692 50 c0 -14 2 -19 5 -12 2 6 2 18 0 25 -3 6 -5 1 -5 -13z"/>
<path d="M3380 50 l-25 -8 27 -1 c15 -1 30 4 33 9 7 11 0 11 -35 0z"/>
<path d="M3070 25 c0 -32 6 -32 12 0 3 14 1 25 -3 25 -5 0 -9 -11 -9 -25z"/>
<path d="M1331 24 c0 -11 3 -14 6 -6 3 7 2 16 -1 19 -3 4 -6 -2 -5 -13z"/>
<path d="M1422 20 c0 -14 2 -19 5 -12 2 6 2 18 0 25 -3 6 -5 1 -5 -13z"/>
<path d="M3102 20 c0 -14 2 -19 5 -12 2 6 2 18 0 25 -3 6 -5 1 -5 -13z"/>
<path d="M3180 34 c0 -3 7 -12 15 -20 13 -14 15 -13 15 5 0 12 -6 21 -15 21
-8 0 -15 -3 -15 -6z"/>
<path d="M3582 20 c0 -14 2 -19 5 -12 2 6 2 18 0 25 -3 6 -5 1 -5 -13z"/>
<path d="M3120 10 c0 -5 5 -10 11 -10 5 0 7 5 4 10 -3 6 -8 10 -11 10 -2 0 -4
-4 -4 -10z"/>
</g>
</svg>
