<?xml version="1.0" standalone="no"?>
<!DOCTYPE svg PUBLIC "-//W3C//DTD SVG 20010904//EN"
 "http://www.w3.org/TR/2001/REC-SVG-20010904/DTD/svg10.dtd">
<svg version="1.0" xmlns="http://www.w3.org/2000/svg"
 width="667.000000pt" height="1000.000000pt" viewBox="0 0 667.000000 1000.000000"
 preserveAspectRatio="xMidYMid meet">

<g transform="translate(0.000000,1000.000000) scale(0.100000,-0.100000)"
fill="#000000" stroke="none">
<path d="M0 8430 l0 -1569 38 -10 c20 -5 208 -49 417 -97 209 -48 412 -95 450
-104 l70 -16 -65 -1 c-36 0 -70 4 -77 9 -7 5 -16 7 -22 4 -5 -3 -60 6 -122 20
-63 15 -125 29 -139 31 -72 13 -184 37 -350 73 -101 22 -188 40 -192 40 -16 0
-7 -39 9 -44 10 -3 160 -35 333 -71 281 -59 478 -104 593 -136 35 -9 37 -12
21 -23 -27 -20 -7 -36 46 -36 60 0 70 -18 35 -64 l-25 -33 25 -13 c14 -7 25
-17 25 -21 0 -4 14 -22 31 -40 45 -48 71 -96 56 -103 -7 -2 -4 -5 6 -5 10 -1
16 -5 13 -9 -3 -5 23 -14 57 -22 40 -9 55 -16 43 -20 -10 -3 -17 -10 -17 -15
0 -6 -9 -14 -19 -20 -10 -5 -19 -14 -19 -20 -1 -5 -16 -10 -34 -11 -80 -1 -90
-3 -77 -19 8 -9 14 -72 17 -182 2 -92 8 -217 11 -278 8 -123 5 -168 -9 -160
-5 4 -9 1 -9 -4 0 -6 5 -11 10 -11 6 0 10 -5 10 -11 0 -5 -4 -7 -10 -4 -5 3
-10 -1 -10 -10 0 -9 4 -14 9 -11 5 4 7 -12 5 -34 -2 -22 -6 -58 -8 -80 -4 -37
-2 -40 12 -28 14 11 15 10 9 -5 -4 -10 -7 -32 -7 -48 0 -18 -4 -28 -10 -24 -5
3 -10 1 -10 -4 0 -15 27 -14 32 0 2 7 4 -33 5 -87 3 -333 17 -834 24 -834 13
0 15 22 7 94 -5 39 -6 145 -3 236 9 245 15 548 16 880 1 162 5 347 9 410 5 80
7 -4 8 -275 2 -366 10 -495 33 -495 4 0 10 190 13 423 7 441 12 541 27 531 5
-3 9 -18 9 -33 0 -15 5 -43 12 -62 12 -33 12 -33 18 -9 4 14 9 -155 13 -375
10 -571 9 -1413 -2 -1419 -5 -3 -163 -35 -352 -72 -274 -52 -348 -69 -366 -86
-21 -20 -22 -20 -17 0 7 25 -28 32 -173 38 l-102 4 -36 -31 c-19 -17 -35 -35
-35 -40 0 -11 -29 -40 -55 -55 -38 -22 -41 -40 -9 -69 16 -15 23 -23 16 -20
-11 6 -13 -2 -10 -31 l3 -38 -42 -1 c-26 -1 -44 4 -47 12 -3 7 -15 13 -26 13
-11 0 -20 4 -20 9 0 5 -9 7 -20 4 -11 -3 -20 -9 -20 -14 0 -5 -7 -9 -15 -9 -8
0 -15 -7 -15 -16 0 -13 3 -14 15 -4 21 18 36 4 25 -25 -7 -18 -5 -25 7 -29 8
-4 13 -13 9 -21 -3 -9 0 -15 10 -15 8 0 13 -4 10 -9 -4 -5 0 -11 6 -14 21 -7
4 -17 -20 -10 -12 3 -22 10 -22 17 0 6 -9 22 -20 36 l-20 25 2 -52 c1 -29 5
-53 9 -53 4 0 5 -9 2 -20 -4 -13 3 -27 18 -41 l24 -20 -26 4 c-25 3 -25 2 -13
-21 7 -14 18 -28 24 -32 23 -14 21 -100 -2 -100 -6 0 -17 8 -24 17 -11 15 -13
-273 -14 -1695 l0 -1712 2480 0 c1364 0 2480 4 2480 8 0 10 -82 58 -92 54 -5
-1 -8 10 -8 24 0 14 4 23 10 19 6 -4 8 -10 6 -14 -3 -4 18 -19 45 -34 27 -16
49 -32 49 -37 0 -5 7 -7 15 -4 8 4 15 1 15 -5 0 -6 11 -11 25 -11 43 0 28 16
-62 62 -58 30 -87 51 -85 61 1 8 -5 18 -14 21 -14 6 -15 4 -4 -9 12 -14 11
-15 -13 -4 -20 9 -23 14 -14 24 10 10 20 8 52 -12 22 -13 60 -33 85 -44 31
-14 40 -23 31 -28 -10 -6 -10 -10 -2 -16 7 -4 20 -1 29 7 15 11 15 11 5 -3
-11 -13 -9 -15 10 -15 12 1 22 -5 22 -13 0 -8 9 -17 20 -22 30 -11 37 -10 29
3 -6 10 -5 10 7 1 10 -8 60 -12 149 -12 90 0 127 3 112 9 -12 5 -30 6 -39 3
-12 -5 -15 -2 -10 10 9 25 -11 31 -25 7 -15 -24 -41 -26 -58 -5 -10 12 -10 15
2 15 8 0 20 -6 27 -13 11 -10 13 -8 8 11 -4 18 -2 22 9 18 8 -3 14 -2 14 2 0
11 -97 45 -108 38 -11 -7 -89 47 -114 78 -10 11 -18 15 -18 8 0 -9 -4 -10 -19
0 -10 6 -17 18 -14 25 3 7 -2 13 -10 13 -12 0 -27 -19 -27 -35 0 -2 16 -13 35
-25 19 -12 32 -26 29 -32 -4 -7 -9 -6 -14 1 -3 7 -22 20 -41 30 -19 10 -50 28
-69 40 -38 23 -83 43 -89 41 -2 -1 -7 2 -10 7 -7 11 -70 43 -83 43 -5 0 -1
-11 8 -25 22 -34 6 -31 -33 6 -32 29 -44 47 -24 34 5 -3 12 -1 15 4 4 5 2 12
-4 16 -6 4 -4 15 6 30 12 18 13 28 4 44 -15 29 9 28 41 0 13 -12 44 -30 69
-42 25 -11 49 -27 53 -34 13 -20 50 -53 60 -53 6 0 2 9 -8 20 -20 22 -14 26
16 10 26 -14 24 -3 -3 21 -22 19 -22 19 14 0 119 -64 183 -100 263 -149 50
-31 129 -75 176 -98 47 -24 91 -50 98 -58 10 -11 31 -16 73 -16 l60 0 -4 407
c-5 382 -6 407 -24 420 -10 7 -24 11 -32 8 -7 -2 -11 -1 -8 4 3 5 -29 23 -71
42 -42 18 -89 44 -105 57 -15 13 -32 21 -37 17 -6 -3 -28 4 -51 15 -37 19 -44
18 -41 -2 1 -11 -4 -10 -34 4 -14 6 -24 17 -21 24 5 12 -46 40 -144 81 l-35
14 25 -20 c14 -11 30 -21 36 -21 16 0 92 -38 99 -50 7 -12 -10 -6 -87 32 -32
15 -63 28 -68 28 -6 0 -10 6 -10 13 0 8 -3 7 -10 -3 -6 -9 -5 -17 3 -22 6 -4
8 -11 3 -15 -4 -4 -13 0 -20 9 -7 10 -16 15 -20 11 -3 -3 -16 -1 -29 5 -12 6
-39 18 -59 26 -37 15 -38 16 -37 65 1 28 -4 58 -11 66 -10 12 -10 15 4 15 9 0
24 -4 34 -9 9 -5 80 -40 157 -76 77 -37 142 -71 143 -76 2 -5 8 -7 13 -4 5 3
39 -10 76 -29 38 -19 113 -55 168 -81 55 -26 117 -56 138 -67 21 -11 42 -16
46 -12 3 5 3 313 0 684 -4 371 -7 881 -8 1132 -1 426 -2 457 -18 462 -10 3
-152 33 -316 66 -227 46 -302 58 -317 50 -15 -8 -18 -7 -15 2 4 10 -12 13 -64
13 -38 0 -67 -3 -65 -7 2 -3 -2 -9 -8 -11 -7 -3 2 -6 20 -6 17 -1 32 -5 32
-11 0 -5 11 -10 24 -10 14 0 28 -5 31 -10 8 -13 -75 -2 -90 11 -5 5 -23 8 -40
8 -27 -2 -27 -2 -5 -6 14 -3 29 -9 35 -14 5 -5 19 -9 32 -9 30 0 30 -17 1 -23
l-23 -4 23 -2 c13 0 21 -5 18 -10 -3 -4 6 -6 21 -3 17 3 24 1 19 -6 -3 -5 7
-15 24 -21 42 -14 37 -21 -8 -10 -20 5 -41 9 -46 9 -16 0 36 -40 53 -41 9 -1
3 -5 -14 -8 l-30 -8 43 -12 c55 -15 55 -34 0 -28 -24 2 -35 2 -26 0 9 -2 22
-10 28 -18 15 -18 -21 -13 -205 30 -77 18 -166 39 -197 46 l-58 12 -2 126 -2
126 -3 -120 c-2 -65 -8 -122 -14 -125 -5 -4 5 -37 25 -81 19 -41 48 -119 66
-174 30 -95 34 -102 78 -130 73 -49 83 -68 83 -165 1 -47 -4 -97 -9 -112 -11
-26 -12 -27 -39 -13 -34 18 -57 19 -47 3 4 -7 3 -8 -5 -4 -6 4 -18 0 -27 -8
-9 -9 -20 -14 -25 -10 -5 3 -43 -13 -83 -35 -86 -47 -150 -62 -159 -37 -5 13
0 16 25 16 17 0 28 3 24 7 -12 12 -76 10 -76 -2 0 -5 -4 -5 -8 2 -5 8 -46 11
-140 9 -73 -1 -135 1 -137 5 -3 3 -39 12 -82 18 -43 7 -91 19 -107 27 -16 8
-35 14 -43 14 -8 0 -11 5 -8 10 4 6 3 9 -2 8 -12 -4 -80 40 -87 57 -3 10 -16
13 -35 11 -22 -2 -31 1 -35 16 -2 11 -9 17 -15 13 -6 -3 -11 -1 -11 6 0 7 -3
10 -6 7 -12 -12 16 -46 73 -88 76 -57 85 -67 44 -44 -19 10 -69 52 -112 91
-42 40 -84 73 -93 73 -26 0 -20 62 25 256 59 256 110 403 146 422 22 12 168
16 234 7 38 -6 46 -4 46 9 0 10 -9 16 -21 16 -18 0 -19 -2 -6 -11 12 -8 10 -9
-10 -5 -14 3 -28 6 -32 6 -5 0 -8 5 -8 11 0 5 5 7 10 4 6 -3 10 3 10 15 0 19
4 21 33 15 75 -16 81 -15 40 4 -51 24 -55 33 -10 21 46 -12 156 -20 132 -10
-17 7 -16 9 10 11 34 2 74 1 125 -6 34 -4 35 -4 5 5 -16 5 -72 19 -122 31 -51
12 -93 24 -93 28 0 3 18 6 40 5 24 0 37 3 32 8 -16 16 -162 49 -185 43 -16 -5
-18 -4 -8 3 10 7 2 12 -30 17 -24 4 -99 20 -166 36 -68 15 -138 30 -156 32
-18 2 -37 6 -42 9 -8 5 -507 119 -625 143 -19 4 -37 11 -40 15 -3 4 -16 10
-29 11 -18 3 -26 -2 -30 -16 -4 -11 -13 -31 -22 -45 -71 -109 -109 -172 -109
-180 0 -22 -69 -56 -332 -160 -156 -62 -314 -126 -351 -142 -38 -16 -70 -28
-72 -26 -5 5 257 121 273 121 6 0 12 4 12 9 0 5 6 8 13 6 6 -2 26 7 44 20 17
12 37 22 44 22 7 0 9 3 6 7 -4 3 -17 2 -30 -4 -57 -27 -81 -33 -101 -28 -14 4
-17 3 -8 -3 9 -6 -4 -17 -49 -36 -64 -28 -98 -28 -38 -1 34 16 23 15 -41 -1
-41 -11 -14 8 53 36 34 15 61 31 60 36 -1 5 27 25 62 43 35 19 61 39 58 44 -3
6 -2 8 3 4 5 -3 32 5 59 18 28 13 56 24 63 24 6 1 12 6 12 12 0 6 6 9 13 6 6
-2 21 -1 32 4 14 5 7 7 -20 5 -50 -5 -107 -17 -120 -26 -20 -15 -63 -20 -67
-8 -3 7 -10 8 -17 3 -11 -6 -8 -11 10 -22 17 -10 18 -12 4 -8 -45 16 -55 17
-55 6 0 -7 5 -9 12 -5 7 4 8 3 4 -5 -5 -7 -20 -9 -41 -5 -18 3 -42 1 -53 -5
-11 -6 -34 -12 -51 -13 -17 -1 -31 -6 -31 -11 0 -5 -7 -7 -15 -3 -8 3 -15 1
-15 -3 0 -5 -8 -7 -19 -4 -10 3 -22 -1 -26 -8 -6 -8 -4 -10 5 -4 9 5 11 4 6
-4 -5 -7 -16 -9 -28 -5 -14 4 -18 2 -14 -5 4 -6 2 -11 -3 -11 -6 0 -11 7 -11
15 0 8 6 15 14 15 8 0 17 4 20 9 4 5 -4 7 -16 4 -41 -10 -6 13 49 33 29 10 53
21 53 25 0 4 6 6 13 6 6 -1 32 5 57 12 l45 13 -40 18 c-22 9 -76 25 -120 35
-86 20 -134 38 -75 29 l35 -5 -38 15 c-41 15 -65 33 -32 22 50 -15 137 -36
151 -36 9 0 12 5 8 12 -4 7 -3 8 5 4 6 -4 9 -11 6 -15 -5 -10 100 -41 136 -41
13 0 31 4 39 10 18 11 -3 20 -137 55 -54 14 -107 30 -118 35 -11 5 -49 16 -85
24 -36 8 -76 19 -90 25 -24 11 -24 11 5 6 103 -16 108 -14 33 12 -43 14 -78
30 -78 36 0 10 102 4 149 -9 16 -5 22 -4 17 4 -3 6 -31 16 -62 22 -85 18 -58
22 36 5 78 -14 114 -13 76 1 -9 3 -13 11 -10 16 4 6 -2 7 -17 3 -13 -4 -21 -4
-16 0 4 5 -10 17 -30 27 -21 10 -30 16 -21 14 10 -3 41 -8 70 -12 50 -6 52 -5
33 10 -11 8 -27 16 -35 16 -40 3 44 22 112 26 56 3 112 -3 205 -21 142 -28
153 -29 153 -16 0 11 -45 28 -97 36 -24 4 -45 11 -48 15 -3 5 -13 6 -22 3 -11
-4 -14 -3 -9 5 4 7 17 12 28 12 35 0 12 13 -39 22 -27 4 -55 10 -63 12 -8 3
-23 5 -32 5 -24 1 -23 37 0 50 10 5 56 19 102 31 76 19 93 20 162 10 79 -11
148 -6 148 12 0 6 7 8 15 4 10 -4 15 1 15 15 0 11 5 17 10 14 6 -3 10 -15 10
-26 0 -26 22 -20 26 6 2 11 10 25 18 31 9 6 16 16 16 23 0 6 5 11 11 11 5 0 8
-4 5 -9 -11 -18 27 -21 41 -4 13 17 13 16 4 -3 -6 -12 -7 -24 -4 -28 3 -3 -2
-6 -11 -6 -17 0 -17 -2 -2 -25 9 -13 16 -35 17 -47 1 -13 5 -5 11 20 9 42 28
58 28 25 0 -14 2 -15 9 -4 5 7 14 10 20 7 7 -4 11 1 11 13 0 10 -4 21 -9 23
-5 2 -11 19 -15 38 -4 26 -3 30 3 15 5 -11 10 -15 10 -9 1 13 41 27 41 15 0
-4 9 -17 20 -29 18 -19 19 -27 11 -59 -10 -34 -4 -64 6 -36 3 7 9 13 14 13 6
0 7 -4 4 -10 -3 -5 -2 -10 4 -10 14 0 25 46 15 62 -12 19 -14 37 -4 43 15 9
70 12 64 4 -3 -5 -16 -9 -30 -9 -27 0 -35 -34 -9 -44 9 -3 15 0 15 10 0 11 7
13 27 8 23 -6 25 -5 20 15 -4 17 -2 21 11 17 91 -24 117 -13 89 41 -15 26 -16
27 -24 8 -10 -25 -29 -29 -37 -9 -3 8 -2 12 3 9 5 -3 13 0 17 6 4 7 3 9 -3 6
-6 -4 -19 1 -29 9 -10 9 -12 12 -4 8 10 -5 12 -4 5 3 -5 6 -75 20 -155 32
-229 35 -210 29 -210 63 l0 30 103 -6 c56 -3 152 -12 212 -19 82 -11 115 -12
130 -3 18 10 16 11 -20 17 -39 6 -39 6 -7 8 30 1 32 3 18 16 -8 8 -19 15 -25
15 -6 0 -11 5 -11 11 0 5 4 8 9 5 5 -4 20 -2 33 3 17 7 18 10 6 10 -10 1 -18
8 -18 16 0 11 11 15 40 15 45 0 47 -2 24 -24 -14 -15 -14 -16 5 -16 47 0 37
55 -12 64 -18 3 -72 8 -122 11 -49 3 -106 8 -126 10 -33 4 -37 2 -41 -20 -3
-14 -1 -25 3 -25 5 0 9 -18 9 -41 0 -32 -3 -40 -17 -37 -9 2 -19 10 -21 18 -4
13 -3 13 11 2 14 -12 16 -11 14 7 0 11 -5 17 -9 15 -4 -3 -8 0 -8 5 0 6 6 11
13 12 6 0 2 4 -10 9 -13 5 -23 14 -23 20 0 6 -4 9 -9 6 -9 -6 -17 31 -25 104
-2 19 -5 128 -5 243 l-1 207 -160 0 -160 0 0 30 0 30 130 1 c72 1 135 3 140 4
6 1 22 3 36 4 21 1 25 5 21 20 -3 11 1 22 8 24 8 4 10 -3 7 -19 l-4 -24 133 1
c74 0 141 3 149 7 8 4 15 17 16 30 1 28 -4 28 -15 -1 -6 -16 -9 -4 -10 44 -1
41 -8 80 -19 103 l-19 38 -13 -31 c-11 -28 -17 -31 -56 -31 l-44 0 0 -75 c0
-43 -4 -75 -10 -75 -5 0 -10 6 -10 13 -1 14 -93 107 -107 107 -5 0 -8 15 -8
33 1 17 3 104 5 192 2 170 8 188 12 41 3 -82 5 -89 24 -92 20 -3 39 24 35 49
-1 5 3 6 8 3 5 -4 12 -2 16 4 3 5 -1 10 -10 10 -9 0 -13 4 -10 10 3 5 19 8 35
6 30 -3 34 3 33 41 -1 7 4 10 9 7 5 -4 25 9 44 27 19 18 34 29 35 23 0 -5 4 0
8 10 7 19 8 19 13 -1 3 -11 1 -27 -4 -34 -7 -10 -8 -9 -3 6 4 14 3 17 -5 9
-15 -15 4 -64 25 -64 8 0 15 3 16 8 3 26 4 93 1 84 -2 -7 -8 -12 -14 -12 -6 0
-6 6 2 15 7 8 16 12 21 10 4 -3 26 3 48 15 22 11 49 20 60 20 11 0 21 4 23 10
2 5 50 16 108 24 59 9 76 13 40 10 -36 -3 -195 -7 -355 -9 -159 -3 -335 -7
-390 -10 -64 -4 -192 2 -355 15 -602 49 -784 67 -764 73 20 7 287 49 502 79
69 10 82 14 76 27 -16 39 -16 61 0 61 10 0 15 4 11 9 -3 5 4 13 15 16 17 6 19
9 9 22 -10 12 -10 16 2 24 8 5 19 7 26 4 18 -6 58 18 58 35 0 9 8 14 20 13 36
-4 47 4 35 27 -8 16 -8 20 4 20 8 0 18 9 21 20 3 11 11 20 16 20 5 0 9 10 9
22 0 21 0 21 15 2 13 -17 14 -17 15 -1 0 21 40 24 40 2 0 -9 6 -12 17 -8 11 4
12 8 5 11 -22 7 -13 33 11 31 37 -3 57 0 57 11 0 6 -18 10 -40 10 -22 0 -40
-4 -40 -10 0 -5 -18 -10 -39 -10 -29 0 -41 5 -44 18 -4 14 -6 13 -12 -6 -5
-15 -13 -21 -22 -18 -8 3 -22 6 -31 6 -13 0 -12 3 4 15 16 13 17 16 4 24 -8 6
-16 7 -18 3 -1 -4 -22 -6 -47 -4 -28 3 -45 0 -45 -7 0 -6 -7 -11 -16 -11 -9 0
-12 5 -8 12 5 8 0 9 -17 4 -13 -5 -51 -13 -84 -19 -33 -5 -62 -13 -65 -17 -8
-11 -51 -19 -44 -8 4 6 -9 7 -33 4 -35 -5 -36 -5 -8 4 17 5 36 8 44 5 8 -3 17
-2 20 4 3 5 22 11 41 15 19 3 82 17 140 31 58 14 137 32 175 40 39 8 228 51
420 95 193 43 551 123 797 177 l447 98 3 74 3 75 335 81 c319 79 497 121 1119
270 151 36 281 63 288 61 8 -3 12 -2 9 2 -4 7 70 28 134 38 8 2 44 9 80 18 35
8 68 13 71 10 4 -2 9 0 11 6 1 5 18 12 36 16 l32 6 3 -253 c1 -140 2 -396 2
-569 0 -595 18 -2020 26 -2020 11 0 18 45 24 154 3 55 7 102 10 104 3 3 6
-168 7 -379 1 -211 2 -413 4 -449 4 -93 19 -2855 19 -3417 l0 -473 288 0 287
0 0 5000 0 5000 -2001 0 c-1264 0 -1998 -4 -1994 -10 3 -5 -15 -28 -41 -52
-48 -44 -73 -61 -59 -38 5 9 4 11 -4 6 -6 -4 -9 -11 -6 -16 3 -5 -16 -26 -43
-47 -27 -21 -59 -49 -73 -61 -48 -45 -95 -84 -149 -124 -30 -23 -57 -44 -60
-47 -3 -3 -20 -14 -37 -24 -33 -18 -33 -18 -33 5 0 13 14 37 30 55 16 17 26
34 21 37 -4 3 -16 -3 -26 -14 -33 -36 -66 3 -38 46 13 20 14 27 4 34 -11 6
-11 12 0 31 7 13 12 28 11 32 -1 5 2 6 8 2 14 -8 40 13 50 41 5 11 43 49 85
83 70 56 74 61 48 61 -30 0 -60 -19 -128 -82 -69 -63 -185 -159 -185 -153 0
12 92 150 118 178 14 15 20 27 14 27 -7 0 -12 -4 -12 -8 0 -5 -25 -33 -55 -63
-53 -53 -84 -67 -92 -41 -3 6 1 12 7 12 7 0 9 8 5 19 -4 13 1 27 14 40 12 12
21 24 21 28 0 3 7 15 17 25 15 17 15 18 -5 18 -11 0 -30 -12 -42 -27 l-22 -28
7 28 7 27 -1016 0 -1016 0 0 -1570z m2727 1512 c-21 -23 -22 -39 -3 -23 12 10
15 2 18 -46 2 -32 -1 -61 -6 -64 -4 -4 -5 -12 -1 -19 5 -9 4 -11 -3 -6 -7 4
-14 -3 -18 -18 -3 -13 -15 -27 -27 -30 -12 -3 -38 -19 -57 -35 -29 -25 -32
-32 -20 -40 8 -5 19 -8 25 -5 5 3 1 -1 -9 -8 -11 -7 -46 -39 -78 -70 -32 -31
-103 -87 -157 -124 -87 -58 -103 -65 -131 -59 -28 6 -30 9 -17 23 16 20 34 50
23 40 -4 -3 -16 1 -25 10 -16 15 -16 20 -4 46 8 15 10 25 4 22 -6 -4 -11 0
-10 11 0 19 86 95 187 166 31 23 100 75 152 116 52 41 104 74 115 74 11 -1 14
1 6 4 -9 4 -5 12 15 29 35 28 43 30 21 6z m83 12 c0 -3 -9 -17 -20 -31 l-20
-26 0 26 c0 21 4 25 17 20 11 -4 14 -3 9 5 -4 7 -2 12 3 12 6 0 11 -3 11 -6z
m-830 -54 c0 -5 -2 -10 -4 -10 -3 0 -8 5 -11 10 -3 6 -1 10 4 10 6 0 11 -4 11
-10z m830 -28 c0 -5 -9 -17 -20 -27 -16 -14 -20 -15 -20 -4 0 16 19 39 32 39
4 0 8 -4 8 -8z m0 -54 c0 -16 -3 -19 -11 -11 -6 6 -8 16 -5 22 11 17 16 13 16
-11z m3565 10 c-4 -15 -14 -772 -15 -1148 l0 -245 -20 25 c-19 23 -21 24 -34
8 -7 -10 -16 -15 -20 -11 -4 4 -4 -1 0 -11 5 -12 4 -17 -3 -13 -12 8 -11 -88
1 -100 5 -4 7 -1 3 8 -4 12 1 18 19 22 21 4 23 2 12 -12 -7 -9 -8 -13 -4 -9 5
4 16 2 25 -5 14 -10 14 -10 4 3 -9 12 -8 21 2 39 12 23 13 20 14 -38 0 -55 -1
-61 -14 -51 -12 10 -15 9 -15 -7 0 -15 -7 -19 -37 -18 -32 0 -39 -4 -41 -23
-2 -13 -13 -27 -25 -33 -12 -5 -37 -18 -55 -29 -18 -11 -31 -16 -28 -11 4 5 2
12 -3 15 -11 7 -22 -18 -13 -30 4 -5 -1 -1 -10 9 -10 11 -18 25 -18 33 0 7 -4
15 -9 19 -6 3 -8 -5 -6 -17 3 -13 -4 -37 -15 -53 -11 -17 -20 -25 -20 -19 0 5
6 16 12 22 12 12 6 12 -41 3 -2 -1 4 -12 13 -26 22 -34 20 -42 -5 -14 l-20 24
11 -24 c9 -17 9 -26 0 -35 -8 -8 -10 -7 -5 5 4 10 2 20 -4 24 -8 4 -9 -5 -6
-27 l6 -34 -59 -12 c-88 -18 -95 -17 -90 16 4 28 4 28 -49 26 -33 -2 -53 2
-53 8 0 6 -9 1 -20 -12 -11 -13 -20 -28 -20 -34 0 -6 -5 -4 -10 4 -9 13 -11
13 -20 0 -8 -12 -10 -9 -10 13 0 35 -8 35 -126 -8 -107 -39 -113 -40 -96 -23
17 17 15 39 -8 68 l-19 25 -21 -49 c-16 -35 -19 -51 -11 -59 8 -8 -14 -19 -81
-42 l-93 -30 0 -65 c0 -43 4 -64 11 -63 9 2 137 40 267 79 14 4 17 -1 17 -28
0 -18 -8 -45 -18 -59 -36 -54 -95 -119 -103 -114 -7 5 -7 13 1 50 5 25 -2 33
-25 31 -14 -2 -24 -7 -23 -12 2 -5 7 -8 11 -6 5 1 5 -2 2 -8 -5 -8 -13 -6 -26
6 -10 9 -16 21 -13 25 3 5 -2 6 -10 3 -9 -3 -13 -10 -10 -15 3 -5 0 -9 -6 -9
-6 0 -8 -5 -4 -12 6 -10 5 -10 -7 -1 -22 18 -69 -5 -69 -32 0 -32 -16 -48 -40
-42 -13 3 -23 0 -27 -9 -7 -18 -23 -18 -23 0 0 8 -10 13 -22 12 -16 -1 -22 4
-20 15 1 10 -9 21 -28 29 -16 7 -30 16 -30 20 0 4 -9 10 -20 13 -11 3 -23 6
-25 7 -3 0 -20 7 -39 15 -32 14 -36 13 -45 -3 -9 -14 -10 -10 -11 18 0 51 26
146 56 201 31 56 114 144 177 187 100 69 236 90 328 51 l49 -21 65 42 c36 23
65 46 65 50 0 4 -8 14 -17 22 -79 69 -234 88 -364 45 -112 -38 -194 -90 -284
-181 -90 -92 -135 -162 -172 -267 -22 -64 -25 -86 -21 -174 3 -91 6 -105 37
-158 36 -63 72 -95 147 -129 39 -18 68 -22 146 -23 62 0 91 -3 80 -9 -28 -16
-157 -8 -211 14 -56 21 -125 63 -136 80 -5 8 -11 8 -21 -1 -12 -10 -13 -9 -8
5 5 12 0 19 -15 23 -16 4 -21 13 -21 38 0 19 -8 41 -17 51 -12 11 -18 36 -20
73 -1 31 -8 74 -15 96 -11 33 -18 41 -41 43 -16 2 -35 -2 -43 -9 -11 -9 -14
-9 -15 2 0 10 -2 10 -5 2 -3 -7 -12 -9 -20 -6 -8 3 -14 -1 -15 -8 0 -8 -7 3
-16 24 -8 20 -18 37 -23 37 -11 0 -43 -77 -36 -88 3 -6 1 -14 -5 -18 -8 -4 -9
-3 -5 4 4 7 3 12 -3 12 -5 0 -13 -4 -16 -10 -3 -5 -13 -10 -22 -10 -9 0 -38
-13 -65 -30 -26 -16 -55 -30 -63 -30 -8 0 -19 -8 -24 -17 -6 -10 -11 -14 -11
-10 0 9 -30 -18 -30 -27 0 -3 8 -6 18 -6 16 0 18 -8 16 -67 -2 -42 -7 -67 -13
-65 -6 1 -11 -3 -11 -9 0 -6 9 -8 20 -4 12 4 20 2 20 -5 0 -6 -4 -8 -10 -5
-12 8 -13 -5 -1 -24 6 -9 6 -22 -1 -34 -9 -17 -8 -19 8 -13 17 6 17 6 1 -12
-14 -15 -15 -21 -3 -38 17 -24 30 -78 18 -70 -6 3 -12 -3 -15 -14 -3 -11 -1
-18 4 -14 5 3 10 -3 11 -13 2 -33 3 -38 11 -51 5 -7 3 -14 -5 -17 -43 -15
-142 -44 -198 -59 -36 -10 -83 -24 -105 -31 -22 -8 -57 -17 -77 -21 l-38 -6 0
301 c0 295 0 300 -21 312 -17 9 -35 6 -94 -15 -40 -14 -76 -26 -80 -26 -7 0
-2 57 10 110 3 14 9 50 12 80 3 30 10 61 16 68 6 8 6 12 -1 12 -5 0 -10 10
-10 23 -1 23 -9 72 -12 72 -1 0 -4 13 -6 30 -2 20 0 25 5 16 5 -8 7 -21 4 -30
-5 -12 -3 -13 6 -5 10 10 10 17 0 35 -7 13 -12 29 -10 34 1 6 -1 6 -5 2 -5 -5
-9 -24 -10 -44 -2 -19 -8 -41 -14 -47 -8 -8 -9 -6 -4 8 5 14 4 17 -5 11 -10
-6 -11 -3 -2 13 15 28 14 57 -3 71 -11 10 -16 6 -24 -16 -6 -15 -11 -22 -11
-14 -1 8 -8 23 -18 33 -18 20 -4 25 15 6 9 -9 12 -9 12 0 0 7 6 12 13 12 8 0
13 10 13 23 -1 15 4 21 14 18 44 -12 72 -13 66 -3 -3 6 -2 13 3 16 5 4 13 1
17 -5 5 -8 3 -9 -6 -4 -8 5 -11 4 -7 -2 3 -5 29 -9 58 -7 51 2 75 13 52 21
-20 7 -15 23 6 23 11 0 23 5 26 10 3 6 -3 10 -14 10 -17 0 -19 5 -15 41 5 37
3 40 -15 34 -12 -4 -21 -2 -21 4 0 6 15 11 34 11 l34 0 -5 -42 c-5 -31 -3 -39
6 -33 8 4 10 17 7 34 -5 17 -4 21 3 12 7 -11 11 -10 20 5 6 11 11 14 11 7 0
-6 -4 -15 -10 -18 -5 -3 -10 -15 -10 -26 0 -25 40 -27 41 -1 0 9 6 1 13 -18
13 -35 13 -35 25 -12 8 16 18 21 29 17 9 -3 13 -3 10 1 -4 3 -1 13 7 21 8 8
15 19 15 26 0 6 -6 2 -14 -8 -13 -18 -14 -18 -21 4 -4 12 -5 25 -2 28 3 2 -2
13 -11 24 -12 14 -18 16 -25 6 -6 -8 -7 -7 -4 5 8 24 -4 30 -19 10 -12 -15
-15 -15 -23 -2 -8 12 -13 12 -23 2 -9 -9 -8 -15 6 -25 16 -12 17 -15 3 -20
-18 -7 -31 33 -22 64 7 21 30 26 40 9 5 -8 11 -8 20 0 10 9 16 6 25 -9 13 -25
40 -28 40 -5 0 14 -2 15 -17 3 -15 -12 -16 -12 -10 4 4 10 3 16 -2 13 -18 -12
-32 21 -21 49 12 33 -1 53 -19 31 -8 -10 -9 -16 -1 -21 5 -3 10 -11 10 -17 0
-7 -5 -6 -15 2 -11 9 -19 7 -40 -14 -14 -14 -25 -21 -25 -16 0 5 12 18 26 29
14 11 23 25 19 30 -3 6 2 22 11 36 11 16 12 25 5 25 -7 0 -9 5 -5 11 4 8 9 7
15 -2 6 -10 9 -10 9 -2 0 16 -17 26 -25 14 -3 -6 -11 -9 -18 -7 -7 1 -9 1 -4
-1 13 -8 -3 -22 -18 -16 -10 3 -15 -1 -15 -13 0 -16 -2 -17 -10 -4 -7 11 -9 5
-6 -22 4 -30 1 -36 -11 -31 -10 4 -11 8 -4 13 8 5 9 14 1 31 l-10 24 3 -25 c1
-17 -2 -24 -12 -22 -11 2 -10 -2 3 -22 9 -14 16 -33 15 -43 -1 -12 -3 -10 -8
7 -8 28 -41 41 -41 16 0 -9 -7 -16 -15 -16 -8 0 -15 5 -15 10 0 6 -5 10 -11
10 -7 0 -9 -9 -6 -21 5 -17 2 -20 -14 -16 -10 3 -21 1 -24 -4 -3 -4 -13 -5
-22 -2 -11 4 -14 3 -9 -5 4 -7 3 -12 -3 -12 -5 0 -14 8 -20 18 -9 15 -11 14
-19 -8 -17 -47 -22 -55 -17 -27 3 15 1 27 -5 27 -5 0 -10 -8 -11 -17 0 -14 -2
-13 -9 5 -14 33 -20 27 -9 -10 11 -40 11 -38 -1 -38 -5 0 -10 12 -10 26 0 20
-4 25 -17 20 -9 -4 -41 -9 -72 -12 -30 -3 -57 -7 -60 -9 -2 -3 -11 1 -19 8
-13 10 -14 9 -8 -1 6 -10 1 -11 -21 -7 l-28 6 25 -16 25 -16 -25 7 c-14 4 -43
7 -65 6 -45 -1 -46 -1 355 192 102 50 322 157 490 239 168 82 359 175 425 207
66 32 284 139 484 239 200 99 369 178 375 174 6 -3 8 -2 3 2 -10 11 70 48 85
39 6 -4 9 -3 5 2 -3 5 6 14 19 21 18 8 23 8 18 0 -3 -7 1 -4 10 7 9 11 20 15
28 10 7 -4 10 -4 6 1 -9 10 62 46 75 38 6 -3 7 -1 3 5 -8 13 29 26 45 16 8 -5
9 -3 4 6 -6 10 -4 12 9 7 9 -4 14 -3 11 2 -10 16 15 23 32 9 11 -8 14 -9 10
-1 -10 16 -2 21 273 162 226 116 274 136 265 109z m-3581 -34 c3 -8 2 -13 -3
-9 -5 3 -12 -1 -14 -7 -3 -7 -6 -3 -6 10 -1 25 14 30 23 6z m-31 -185 c4 -73
10 -135 15 -138 4 -3 6 -17 4 -31 -1 -14 -4 -240 -5 -502 -1 -345 -5 -478 -13
-478 -18 0 -20 53 -14 503 5 411 4 427 -14 433 -10 4 -22 0 -27 -7 -5 -8 -16
-14 -25 -14 -11 0 -17 -10 -19 -33 -2 -18 -8 -39 -16 -48 -11 -13 -9 -14 14
-3 15 7 27 16 27 21 0 4 5 8 12 8 6 0 1 -11 -12 -25 -20 -21 -21 -27 -9 -41
12 -14 10 -19 -16 -41 -17 -13 -43 -35 -58 -49 -16 -14 -39 -30 -53 -36 -13
-6 -24 -15 -24 -20 0 -4 -7 -8 -15 -8 -9 0 -26 -7 -39 -15 -20 -14 -25 -14
-35 -1 -7 8 -10 20 -6 25 4 7 -1 8 -12 4 -10 -3 -15 -3 -11 1 4 5 2 20 -3 34
-8 20 -7 23 4 16 7 -5 4 -1 -6 8 -18 17 -18 18 10 43 31 28 308 215 318 215 3
0 3 -4 0 -10 -3 -5 -2 -10 3 -10 5 0 10 60 11 133 l2 132 -23 -25 c-13 -14
-31 -26 -40 -26 -25 -2 -23 0 22 31 32 22 40 34 40 58 0 24 -3 28 -12 19 -7
-7 -16 -12 -22 -12 -5 0 -1 6 9 14 11 8 23 13 26 10 3 -2 9 -63 12 -135z
m2767 37 c0 -2 -7 -7 -16 -10 -8 -3 -12 -2 -9 4 6 10 25 14 25 6z m-2830 -37
c0 -5 -7 -9 -15 -9 -8 0 -15 -5 -15 -12 0 -6 -3 -9 -6 -6 -8 9 -59 -45 -59
-62 -1 -18 17 -33 25 -20 3 4 14 2 24 -6 19 -14 19 -14 -1 -14 -26 0 -37 -24
-18 -40 11 -9 12 -16 2 -31 -6 -10 -17 -19 -23 -19 -7 0 -19 -11 -28 -25 -9
-14 -44 -39 -77 -55 -33 -17 -62 -37 -66 -45 -3 -8 -11 -15 -19 -15 -8 0 -14
-5 -14 -11 0 -5 -4 -7 -10 -4 -5 3 -10 2 -10 -3 0 -16 -39 -21 -51 -6 -9 11
-8 14 2 15 10 0 11 2 1 6 -6 2 -9 10 -5 16 4 6 0 8 -9 5 -9 -4 -15 0 -15 9 0
8 11 19 24 24 13 5 23 14 23 21 0 9 -3 9 -10 -2 -7 -12 -10 -12 -16 4 -7 18
-8 18 -21 0 -13 -18 -14 -17 -11 8 4 29 98 110 228 197 36 24 78 54 94 66 28
22 76 31 76 14z m-20 -42 c0 -2 -15 -13 -32 -26 l-33 -22 28 25 c26 24 37 31
37 23z m-15 -107 c3 -5 -1 -10 -10 -10 -9 0 -13 5 -10 10 3 6 8 10 10 10 2 0
7 -4 10 -10z m-9 -305 c-8 -9 -19 -16 -23 -16 -13 -1 -33 -21 -33 -33 0 -6 4
-5 9 3 8 12 61 24 61 13 0 -1 -12 -14 -27 -28 -30 -28 -26 -41 9 -24 22 11 22
11 3 -5 -11 -9 -33 -23 -50 -31 l-30 -15 25 21 c24 21 19 22 -25 4 -10 -4 -15
0 -15 10 0 9 5 16 11 16 6 0 8 8 4 20 -5 15 4 26 36 50 44 32 71 41 45 15z
m-98 -71 c-4 -11 -28 -14 -28 -4 0 8 22 20 28 14 2 -1 2 -6 0 -10z m302 -643
c47 -6 99 -13 115 -15 17 -2 55 -11 85 -19 30 -9 71 -18 90 -21 20 -3 85 -30
146 -60 213 -104 319 -189 374 -300 l30 -59 0 -259 0 -258 25 6 c24 6 25 4 25
-35 0 -34 -4 -43 -25 -53 -24 -11 -25 -15 -25 -96 l0 -84 25 6 c24 6 25 5 25
-49 0 -50 -2 -55 -25 -61 -16 -4 -25 -13 -25 -26 0 -77 -129 -177 -305 -236
-78 -26 -243 -58 -375 -73 -120 -14 -380 -18 -425 -7 -16 4 -59 9 -95 12 -76
6 -168 26 -297 62 -87 25 -94 25 -143 11 -52 -15 -95 -13 -84 5 4 6 -3 8 -17
4 -13 -3 -18 -3 -11 0 6 3 10 10 6 15 -3 5 -1 9 5 9 5 0 22 5 37 10 l27 11
-49 32 c-75 49 -138 117 -151 162 -14 47 -18 226 -17 665 l0 315 28 62 c37 82
136 176 238 226 41 20 82 37 91 37 9 0 18 4 21 9 7 11 91 31 151 37 22 2 56 8
75 14 19 5 49 11 65 13 66 6 305 -1 385 -12z m998 -26 c-3 -3 -9 2 -12 12 -6
14 -5 15 5 6 7 -7 10 -15 7 -18z m125 1 c4 -9 0 -13 -11 -11 -9 2 -21 4 -27 4
-5 1 -3 6 5 11 20 13 27 12 33 -4z m-225 -61 c-3 -3 -9 2 -12 12 -6 14 -5 15
5 6 7 -7 10 -15 7 -18z m-35 1 c3 -8 -2 -20 -11 -27 -14 -11 -15 -11 -5 0 6 7
9 20 6 27 -3 8 -3 14 0 14 3 0 7 -6 10 -14z m67 -41 c5 3 11 1 15 -5 9 -15 28
-12 19 3 -5 9 -4 9 6 0 10 -9 10 -15 1 -26 -15 -18 -4 -47 18 -47 14 0 14 -2
1 -11 -11 -8 -12 -12 -2 -16 6 -2 12 -11 12 -19 0 -9 -4 -13 -9 -10 -5 4 -12
0 -14 -6 -6 -14 -7 -9 -11 44 -1 16 -9 36 -19 45 -16 16 -17 16 -17 0 0 -9 -4
-17 -10 -17 -5 0 -6 7 -3 17 5 11 3 14 -6 8 -10 -6 -11 -3 -2 13 8 16 7 21 -4
26 -8 3 -15 10 -15 16 0 6 7 4 16 -4 8 -9 19 -14 24 -11z m180 -55 c0 -5 -4
-10 -10 -10 -5 0 -10 5 -10 10 0 6 5 10 10 10 6 0 10 -4 10 -10z m60 -5 c-14
-17 -30 -20 -30 -6 0 5 8 12 18 14 9 3 19 5 21 6 2 0 -2 -6 -9 -14z m1759
-229 c-2 -2 -13 8 -23 22 l-19 27 24 -22 c12 -12 21 -24 18 -27z m45 28 c3 -8
2 -12 -4 -9 -6 3 -10 10 -10 16 0 14 7 11 14 -7z m210 -10 c5 -14 4 -15 -9 -4
-17 14 -19 20 -6 20 5 0 12 -7 15 -16z m-137 -50 c-3 -3 -12 -4 -19 -1 -8 3
-5 6 6 6 11 1 17 -2 13 -5z m-2179 -59 c0 -16 -2 -15 -8 5 -11 34 -11 60 0 35
5 -11 8 -29 8 -40z m1202 -179 c0 -3 -4 -8 -10 -11 -5 -3 -10 -1 -10 4 0 6 5
11 10 11 6 0 10 -2 10 -4z m11 -23 c-12 -20 -14 -14 -5 12 4 9 9 14 11 11 3
-2 0 -13 -6 -23z m442 -7 c-10 -13 -20 -22 -22 -20 -4 4 29 44 36 44 2 0 -4
-11 -14 -24z m-1523 -69 c0 -18 -46 -39 -95 -43 -39 -3 -38 -2 25 25 36 16 66
29 68 30 1 1 2 -5 2 -12z m-3 -49 c-3 -8 -6 -5 -6 6 -1 11 2 17 5 13 3 -3 4
-12 1 -19z m509 -40 c4 -7 4 -10 -1 -6 -4 4 -14 3 -21 -3 -8 -7 -14 -6 -20 2
-4 7 -3 9 4 5 6 -3 13 -2 17 4 8 13 12 13 21 -2z m871 -144 c-3 -3 -12 -4 -19
-1 -8 3 -5 6 6 6 11 1 17 -2 13 -5z m-904 -47 c4 3 7 -1 7 -11 0 -21 -16 -12
-30 17 -10 20 -10 20 3 5 8 -10 17 -15 20 -11z m151 -135 c2 -4 -5 -9 -17 -9
-17 -2 -19 0 -7 7 18 12 18 12 24 2z m-77 -8 c-3 -3 -12 -4 -19 -1 -8 3 -5 6
6 6 11 1 17 -2 13 -5z m0 -20 c-3 -3 -12 -4 -19 -1 -8 3 -5 6 6 6 11 1 17 -2
13 -5z m-657 -334 c0 -5 -8 -10 -17 -10 -15 0 -16 2 -3 10 19 12 20 12 20 0z
m-39 -25 c-1 -6 -4 -10 -8 -10 -5 -1 -26 -10 -49 -21 -30 -15 -41 -17 -41 -7
0 7 8 13 18 13 9 0 27 9 40 20 25 20 41 22 40 5z m-211 -43 c-8 -3 -20 -12
-26 -20 -7 -9 -18 -13 -28 -9 -10 4 -19 1 -22 -7 -3 -7 -23 -19 -44 -26 -33
-11 -41 -11 -54 3 -21 20 -20 24 7 30 12 3 39 12 61 20 21 8 57 14 80 14 22 0
34 -2 26 -5z m-1540 -12 c0 -5 -7 -7 -15 -4 -8 4 -15 8 -15 10 0 2 7 4 15 4 8
0 15 -4 15 -10z m1643 -4 c4 -10 0 -12 -15 -8 -15 4 -17 7 -6 13 17 11 15 11
21 -5z m-336 -50 c-30 -28 -71 -38 -94 -21 -22 16 -1 29 46 27 20 -1 43 3 51
8 25 16 24 11 -3 -14z m38 -6 c3 -5 -1 -10 -10 -10 -9 0 -13 5 -10 10 3 6 8
10 10 10 2 0 7 -4 10 -10z m-265 -40 c-24 -15 -36 -11 -14 4 10 8 21 12 24 10
2 -3 -2 -9 -10 -14z m-965 -44 c68 -33 38 -45 -50 -20 l-65 19 32 12 c18 6 33
12 33 12 0 1 23 -10 50 -23z m762 -11 c0 -8 -6 -15 -14 -15 -7 0 -13 -4 -13
-9 0 -5 -8 -7 -18 -4 -11 2 -36 -3 -57 -11 -20 -9 -47 -16 -59 -16 -17 0 -15
4 14 22 71 44 147 61 147 33z m-829 -22 c35 -6 44 -23 13 -23 -11 0 -27 -3
-35 -6 -12 -4 -15 -2 -10 9 3 10 -4 19 -23 26 -24 10 -24 10 -3 6 14 -3 40 -8
58 -12z m4190 -449 c136 -179 133 -171 75 -179 -27 -3 -66 -10 -88 -15 -22 -5
-54 -11 -71 -14 l-31 -5 -6 97 c-9 127 -9 247 0 255 8 9 -1 19 121 -139z
m-4183 16 c-11 -5 -29 -8 -40 -8 -16 0 -15 2 5 8 34 11 60 11 35 0z m57 -7
c-6 -2 -9 -10 -5 -16 4 -7 0 -8 -11 -4 -10 4 -23 7 -29 8 -7 1 -1 5 13 9 28 9
52 11 32 3z m-155 -9 c-3 -3 -12 -4 -19 -1 -8 3 -5 6 6 6 11 1 17 -2 13 -5z
m-164 -11 c-7 -2 -19 -2 -25 0 -7 3 -2 5 12 5 14 0 19 -2 13 -5z m-46 -9 c-3
-3 -12 -4 -19 -1 -8 3 -5 6 6 6 11 1 17 -2 13 -5z m503 -10 c0 -14 -3 -14 -15
-4 -8 7 -15 14 -15 16 0 2 7 4 15 4 8 0 15 -7 15 -16z m-565 -4 c-11 -5 -29
-8 -40 -8 -16 0 -15 2 5 8 34 11 60 11 35 0z m-345 -4 c0 -3 -4 -8 -10 -11 -5
-3 -10 -1 -10 4 0 6 5 11 10 11 6 0 10 -2 10 -4z m780 -106 c0 -5 -2 -10 -4
-10 -3 0 -8 5 -11 10 -3 6 -1 10 4 10 6 0 11 -4 11 -10z m4048 -95 c4 -9 21
-18 37 -21 16 -3 30 -6 31 -7 1 -1 4 -134 7 -294 7 -331 16 -299 -77 -287
l-46 7 0 308 c0 300 1 309 20 309 10 0 23 -7 28 -15z m-3994 -601 c3 -8 2 -12
-4 -9 -6 3 -10 10 -10 16 0 14 7 11 14 -7z m3923 -101 c-3 -10 -5 -2 -5 17 0
19 2 27 5 18 2 -10 2 -26 0 -35z m-4820 -25 c-3 -8 -6 -5 -6 6 -1 11 2 17 5
13 3 -3 4 -12 1 -19z m4973 -386 l0 -379 -57 -63 -58 -64 -5 435 -5 434 55 6
c30 3 58 6 63 7 4 1 7 -168 7 -376z m-3480 346 c0 -12 -20 -20 -36 -14 -8 3
-13 10 -9 15 6 11 45 10 45 -1z m65 -38 c3 -5 2 -10 -4 -10 -5 0 -13 5 -16 10
-3 6 -2 10 4 10 5 0 13 -4 16 -10z m-808 -47 c-3 -10 -5 -4 -5 12 0 17 2 24 5
18 2 -7 2 -21 0 -30z m-140 -90 c-3 -10 -5 -4 -5 12 0 17 2 24 5 18 2 -7 2
-21 0 -30z m203 -118 c0 -14 -38 -55 -51 -55 -6 0 -4 21 6 55 4 16 45 16 45 0z
m-70 -20 c0 -8 -2 -15 -4 -15 -2 0 -6 7 -10 15 -3 8 -1 15 4 15 6 0 10 -7 10
-15z m-273 -142 c-3 -10 -5 -4 -5 12 0 17 2 24 5 18 2 -7 2 -21 0 -30z m288
-53 c3 -6 -1 -7 -9 -4 -18 7 -21 14 -7 14 6 0 13 -4 16 -10z m4362 -233 c-2
-23 -3 -1 -3 48 0 50 1 68 3 42 2 -26 2 -67 0 -90z m-3517 -23 c0 -21 -4 -33
-10 -29 -5 3 -10 19 -10 36 0 16 5 29 10 29 6 0 10 -16 10 -36z m84 30 c21 -8
22 -74 1 -74 -8 0 -12 6 -9 13 2 7 0 24 -5 38 -9 24 -10 24 -16 -8 -10 -44
-32 -42 -37 2 -4 32 -2 35 23 35 15 0 34 -3 43 -6z m-456 -20 c20 -6 22 -13
22 -65 0 -33 -2 -59 -5 -59 -7 0 -603 -127 -706 -150 -126 -29 -119 -32 -119
49 l0 69 -37 9 c-43 11 -88 1 452 98 303 54 352 60 393 49z m3889 -56 c-3 -8
-6 -5 -6 6 -1 11 2 17 5 13 3 -3 4 -12 1 -19z m-4867 3 c22 -6 18 -8 -23 -15
-27 -4 -51 -5 -55 -2 -3 3 3 6 14 6 16 0 17 2 4 10 -12 8 -10 10 10 9 14 -1
36 -4 50 -8z m-50 -73 c0 -5 5 -6 10 -3 6 3 10 -1 10 -9 0 -10 6 -13 15 -10
18 7 20 -7 3 -25 -10 -11 -10 -13 0 -7 9 5 12 -4 12 -32 0 -36 -3 -40 -32 -46
-17 -3 -32 -5 -33 -4 -2 2 -6 38 -10 81 -6 68 -5 76 9 71 9 -3 16 -10 16 -16z
m4793 -442 c12 -3 32 -6 45 -6 12 0 22 -6 22 -14 0 -15 -37 -118 -143 -393
l-54 -143 -6 113 c-4 61 -7 257 -7 434 l0 322 58 75 57 76 3 -229 c2 -227 3
-229 25 -235z m124 427 c-3 -10 -5 -4 -5 12 0 17 2 24 5 18 2 -7 2 -21 0 -30z
m-3757 -17 c0 -3 -4 -8 -10 -11 -5 -3 -10 -1 -10 4 0 6 5 11 10 11 6 0 10 -2
10 -4z m3757 -28 c-3 -8 -6 -5 -6 6 -1 11 2 17 5 13 3 -3 4 -12 1 -19z m-3493
-27 c7 -10 -18 -34 -27 -25 -7 8 3 34 13 34 5 0 11 -4 14 -9z m-287 -13 c0 -7
4 -22 9 -33 7 -19 7 -19 -9 -3 -9 9 -17 24 -17 32 0 19 16 22 17 4z m113 6 c0
-3 -7 -12 -15 -20 -8 -9 -15 -13 -15 -11 0 3 -3 12 -6 21 -4 12 0 16 15 16 12
0 21 -3 21 -6z m-1195 -76 c-2 -23 -25 -36 -67 -37 -17 -1 -28 4 -28 12 0 18
33 34 91 46 3 0 5 -9 4 -21z m1015 12 c0 -5 -4 -10 -10 -10 -5 0 -10 5 -10 10
0 6 5 10 10 10 6 0 10 -4 10 -10z m-913 -46 c-3 -3 -12 -4 -19 -1 -8 3 -5 6 6
6 11 1 17 -2 13 -5z m-210 -10 c-3 -3 -12 -4 -19 -1 -8 3 -5 6 6 6 11 1 17 -2
13 -5z m156 -1 c-7 -2 -19 -2 -25 0 -7 3 -2 5 12 5 14 0 19 -2 13 -5z m-68
-13 c-16 -4 -41 -8 -55 -8 -22 0 -22 1 5 8 17 4 41 8 55 8 22 0 22 -1 -5 -8z
m65 -10 c-17 -11 -149 -34 -156 -27 -4 4 123 34 156 36 13 1 13 0 0 -9z m105
-3 c-11 -8 -48 -20 -82 -27 -35 -7 -60 -16 -58 -20 3 -5 -6 -3 -20 3 -23 11
-18 13 58 28 58 11 75 17 57 21 -17 4 -11 6 20 7 40 1 43 0 25 -12z m-25 -37
c-14 -4 -34 -8 -45 -8 -16 0 -15 2 5 8 14 4 34 8 45 8 16 0 15 -2 -5 -8z
m-947 -23 c12 -19 12 -26 2 -40 -17 -23 -35 -21 -35 3 0 24 -13 26 -30 5 -7
-9 -15 -13 -18 -10 -5 5 48 63 59 64 4 1 13 -9 22 -22z m774 17 c-3 -3 -12 -4
-19 -1 -8 3 -5 6 6 6 11 1 17 -2 13 -5z m100 -10 c-3 -3 -12 -4 -19 -1 -8 3
-5 6 6 6 11 1 17 -2 13 -5z m4810 -56 c-2 -13 -4 -3 -4 22 0 25 2 35 4 23 2
-13 2 -33 0 -45z m-5769 -11 c28 0 52 -3 52 -9 0 -5 4 -7 8 -4 5 3 22 -8 37
-24 25 -26 28 -37 27 -90 0 -55 2 -61 29 -81 16 -11 29 -27 29 -35 0 -8 8 -14
18 -14 14 0 15 -2 2 -10 -8 -5 -11 -10 -7 -10 14 0 -14 -40 -28 -40 -20 0 -19
27 2 39 15 8 15 11 3 25 -7 10 -20 14 -28 11 -9 -3 -12 0 -9 9 3 8 -1 20 -9
27 -12 10 -18 8 -30 -9 -26 -37 -68 -52 -144 -52 -79 0 -83 2 -120 73 -14 26
-26 43 -28 38 -2 -6 -10 -7 -18 -4 -7 3 -11 10 -7 16 4 6 0 8 -9 5 -24 -10
-14 35 18 79 48 66 63 74 114 66 25 -4 69 -7 98 -6z m5763 -492 c-7 -74 -8
-54 -6 110 5 278 9 329 12 140 2 -88 -1 -200 -6 -250z m-6211 289 c0 -8 -6
-11 -15 -8 -8 4 -15 12 -15 20 0 8 6 11 15 8 8 -4 15 -12 15 -20z m1545 16 c3
-6 -1 -7 -9 -4 -18 7 -21 14 -7 14 6 0 13 -4 16 -10z m-1435 -106 c0 -70 -12
-104 -35 -104 -8 0 -15 -4 -15 -9 0 -5 -9 -11 -20 -14 -28 -7 -25 12 4 23 13
5 27 14 31 20 10 16 12 140 2 140 -4 0 -5 -4 -2 -10 3 -5 1 -10 -4 -10 -6 0
-11 7 -11 15 0 9 9 15 25 15 24 0 25 -2 25 -66z m171 35 c13 -11 18 -18 12
-14 -8 4 -13 0 -13 -10 0 -9 4 -14 9 -11 17 11 -2 -45 -21 -58 -12 -9 -16 -16
-9 -21 16 -9 14 -45 -2 -45 -8 0 -19 11 -25 24 -9 20 -8 25 5 30 10 4 13 14
10 28 -4 12 -1 28 5 35 8 10 8 20 0 38 -14 30 -2 32 29 4z m299 -2 c0 -2 -12
-14 -27 -28 l-28 -24 24 28 c23 25 31 32 31 24z m1017 -13 c-3 -3 -12 -4 -19
-1 -8 3 -5 6 6 6 11 1 17 -2 13 -5z m50 -20 c-3 -3 -12 -4 -19 -1 -8 3 -5 6 6
6 11 1 17 -2 13 -5z m-1424 -39 c4 -8 3 -16 -1 -19 -4 -3 -9 4 -9 15 -2 23 3
25 10 4z m1783 -4 c-5 -8 -56 -3 -56 5 0 2 14 4 31 4 16 0 28 -4 25 -9z
m-1848 -47 c-4 -3 -12 5 -18 18 -12 22 -12 22 6 6 10 -10 15 -20 12 -24z m219
-1 c10 -16 25 -34 33 -40 13 -11 12 -14 -7 -19 -13 -3 -23 -13 -23 -20 0 -16
-26 -19 -35 -4 -4 6 -11 8 -16 4 -5 -3 -8 -1 -7 4 2 6 -1 10 -6 10 -12 0 -26
23 -26 44 0 15 41 46 62 48 4 0 15 -12 25 -27z m131 -13 l27 -1 -28 -24 c-39
-34 -57 -32 -57 6 0 24 3 30 16 25 9 -3 28 -6 42 -6z m1429 4 c-3 -3 -12 -4
-19 -1 -8 3 -5 6 6 6 11 1 17 -2 13 -5z m-1760 -23 c53 9 106 -23 96 -60 -6
-23 -33 -37 -33 -17 0 16 -27 29 -41 20 -12 -7 -12 9 1 22 6 6 1 10 -16 12
-14 1 -33 6 -43 12 -10 5 -21 6 -25 3 -13 -13 -35 -11 -29 2 6 17 42 24 65 13
9 -5 21 -8 25 -7z m-133 -74 c-3 -8 3 -20 12 -28 14 -11 18 -11 22 -1 7 22 32
-7 31 -37 -1 -17 -3 -20 -6 -8 -6 21 -26 22 -43 2 -17 -20 -40 -2 -40 31 0 13
-4 24 -10 24 -5 0 -10 7 -10 15 0 9 9 15 25 15 16 0 23 -4 19 -13z m336 -19
c0 -5 -9 -8 -20 -8 -13 0 -20 7 -20 20 0 18 2 19 20 8 11 -7 20 -16 20 -20z
m1540 8 c0 -3 -4 -8 -10 -11 -5 -3 -10 -1 -10 4 0 6 5 11 10 11 6 0 10 -2 10
-4z m-1958 -28 c-7 -7 -12 -8 -12 -2 0 14 12 26 19 19 2 -3 -1 -11 -7 -17z
m1731 5 c3 -5 -8 -8 -25 -9 -20 -1 -25 2 -16 7 16 11 35 11 41 2z m-78 -13
c11 -5 15 -9 8 -9 -6 -1 -20 -4 -30 -7 -15 -5 -15 -4 -3 5 19 14 0 14 -34 1
-32 -12 -35 -3 -3 10 27 11 37 11 62 0z m2288 3 c-7 -2 -21 -2 -30 0 -10 3 -4
5 12 5 17 0 24 -2 18 -5z m2128 -356 c-17 -48 -26 -85 -20 -82 5 4 9 11 9 17
0 6 17 40 37 75 34 57 40 63 70 63 20 0 33 -5 33 -12 0 -17 -46 -218 -81 -353
-15 -60 -47 -193 -69 -295 -23 -102 -44 -187 -46 -189 -10 -10 -3 499 8 554
14 74 13 98 -2 203 l-12 84 49 151 48 152 3 -140 c2 -133 1 -145 -27 -228z
m-6041 329 c0 -8 -7 -16 -15 -20 -15 -5 -21 14 -8 27 11 12 23 8 23 -7z m1410
-70 c0 -2 -7 -7 -16 -10 -8 -3 -12 -2 -9 4 6 10 25 14 25 6z m354 -18 c-3 -4
-9 -8 -15 -8 -5 0 -9 4 -9 8 0 5 7 9 15 9 8 0 12 -4 9 -9z m-54 -87 c0 -5 -11
-12 -24 -15 -13 -3 -32 -8 -43 -12 -10 -3 -2 4 17 15 39 23 50 25 50 12z m-90
-35 c0 -2 -7 -7 -16 -10 -8 -3 -12 -2 -9 4 6 10 25 14 25 6z m4597 -303 c-1
-54 -3 -10 -3 97 0 107 2 151 3 98 2 -54 2 -142 0 -195z m-4831 131 c-3 -26
-6 -154 -6 -286 0 -157 -3 -237 -10 -233 -6 4 -10 -7 -9 -27 1 -31 1 -32 9 -8
l8 25 2 -25 c1 -14 3 -35 4 -46 3 -30 -11 -64 -26 -64 -9 0 -9 3 2 10 13 9 13
10 0 10 -13 0 -13 1 0 10 12 8 13 13 3 30 -10 14 -13 90 -15 272 0 161 -3 225
-7 176 -4 -43 -9 -79 -11 -81 -15 -11 -165 -78 -188 -84 -24 -6 -26 -5 -13 10
7 10 11 17 8 17 -3 0 -151 -61 -328 -135 -308 -129 -388 -154 -390 -122 0 8
-2 8 -5 1 -3 -6 -15 -9 -27 -7 -16 3 -43 -11 -93 -49 -38 -30 -77 -57 -87 -61
-23 -9 -13 -27 14 -27 13 0 18 4 13 12 -4 6 -3 8 4 4 6 -3 27 3 46 15 20 11
36 18 36 14 0 -4 7 -2 15 5 9 7 18 10 22 7 6 -7 -57 -37 -76 -37 -6 0 -9 -6
-7 -12 1 -7 1 -10 -1 -6 -3 5 -14 3 -24 -3 -11 -6 -32 -8 -47 -5 -21 5 -35 -1
-60 -24 -19 -16 -31 -34 -27 -39 4 -7 -1 -8 -11 -4 -11 4 -15 2 -11 -4 4 -6 1
-13 -7 -16 -12 -5 -14 13 -13 100 l2 106 110 45 c61 25 343 141 629 258 285
118 522 212 526 209 4 -3 8 13 8 34 1 34 -2 39 -19 36 -30 -6 -39 -15 -39 -39
0 -27 35 -10 -395 -189 -554 -230 -754 -309 -767 -301 -7 4 -10 4 -6 -1 5 -5
-9 -16 -31 -25 l-38 -18 2 -756 c1 -416 5 -759 8 -762 4 -4 18 1 32 10 14 9
25 12 25 7 0 -5 -14 -14 -30 -21 -37 -16 -47 -49 -26 -91 16 -32 14 -50 -7
-48 -9 0 -9 2 1 6 21 8 13 21 -22 33 l-35 11 -1 810 c0 549 3 809 10 809 5 0
10 7 10 15 0 8 4 15 9 15 5 0 11 7 15 15 4 12 2 13 -14 3 -18 -12 -40 -5 -27
8 3 3 216 91 474 194 257 104 560 227 673 273 113 47 213 86 224 86 17 1 18
-4 12 -45z m-56 -414 l0 -160 -39 -19 c-30 -16 -41 -17 -52 -8 -11 10 -11 9
-1 -4 9 -13 0 -21 -66 -53 -69 -34 -123 -54 -109 -40 3 3 8 5 12 4 10 -2 32
25 40 49 7 23 14 71 10 71 -1 0 -145 -70 -320 -155 -327 -159 -367 -173 -414
-143 -21 13 -38 2 -142 -94 -34 -32 -68 -58 -76 -58 -7 0 -13 -4 -13 -9 0 -5
-11 -11 -25 -13 -14 -3 -25 -1 -25 3 0 5 5 9 10 9 6 0 10 5 10 11 0 6 -7 9
-15 5 -17 -6 -22 29 -5 39 6 4 7 -1 3 -12 -6 -16 -5 -16 11 -4 22 18 17 57 -6
53 -11 -2 -19 4 -20 15 -1 10 -5 -31 -8 -92 l-6 -110 -1 145 c-1 80 -3 151 -5
158 -4 16 209 115 230 107 7 -2 11 -1 8 4 -3 4 6 13 20 20 29 13 45 14 43 4
-7 -45 35 -39 166 23 28 13 84 38 125 55 41 18 104 45 140 61 84 38 115 52
173 77 26 11 47 24 47 30 0 5 10 7 22 3 14 -3 19 -2 14 7 -4 7 2 15 16 20 13
6 19 10 14 10 -6 1 -1 8 10 16 26 20 -3 21 -32 1 -24 -17 -225 -98 -231 -93
-8 9 230 117 257 117 10 0 20 3 22 8 2 5 176 91 206 101 1 1 2 -71 2 -159z
m-220 90 c0 -13 -129 -72 -144 -67 -13 5 105 68 142 76 1 1 2 -4 2 -9z m-235
-103 c-11 -6 -45 -21 -75 -33 -30 -12 -64 -25 -75 -29 -11 -5 -17 -4 -12 0 9
10 157 74 172 74 6 0 1 -5 -10 -12z m2665 -27 c0 -5 -2 -10 -4 -10 -3 0 -8 5
-11 10 -3 6 -1 10 4 10 6 0 11 -4 11 -10z m-2875 -60 c-53 -24 -70 -24 -25 0
19 11 42 19 50 19 8 0 -3 -9 -25 -19z m-75 -30 c-8 -5 -19 -10 -25 -10 -5 0
-3 5 5 10 8 5 20 10 25 10 6 0 3 -5 -5 -10z m3100 -32 c0 -11 -7 -10 -40 7
-40 21 -38 26 5 12 19 -6 35 -14 35 -19z m-3188 -6 c-18 -10 -30 -20 -27 -23
3 -3 -5 -5 -18 -5 -12 1 -21 -4 -20 -10 1 -7 -6 -10 -18 -7 -26 7 -19 13 44
39 63 27 84 30 39 6z m828 -182 c0 -146 -2 -170 -15 -170 -9 0 -26 -9 -38 -20
-12 -11 -28 -18 -36 -15 -9 3 -12 3 -8 -1 4 -4 -7 -16 -24 -26 -31 -19 -32
-19 -57 4 -15 13 -21 16 -14 6 7 -9 9 -18 5 -20 -4 -3 -3 -3 4 -2 7 2 15 -1
18 -6 4 -6 1 -10 -6 -10 -7 0 -21 -7 -31 -17 -17 -15 -27 -5 -10 11 4 4 8 20
8 34 3 42 3 44 17 36 9 -5 9 -4 -1 7 -13 14 -23 11 -142 -57 -71 -40 -110 -62
-334 -184 -199 -108 -238 -119 -293 -82 -15 9 -24 13 -21 7 3 -5 -13 -29 -36
-53 -38 -38 -44 -41 -61 -28 -18 13 -18 14 5 26 21 11 22 10 16 -6 -6 -17 -5
-16 16 1 13 11 25 22 28 24 3 2 -5 0 -17 -3 -12 -4 -24 -2 -28 4 -3 5 -1 10 5
10 6 0 8 10 4 24 -4 17 -1 25 12 30 16 6 16 8 -6 19 -34 18 -36 35 -3 31 27
-4 27 -3 3 5 -14 4 -24 13 -22 20 1 7 -2 10 -8 6 -6 -3 -8 -10 -5 -15 3 -5 1
-12 -5 -15 -7 -4 -5 -13 7 -23 21 -20 19 -72 -2 -72 -21 0 -27 17 -13 40 11
18 10 23 -6 36 -11 8 -14 14 -7 14 7 0 10 4 6 10 -3 5 -12 7 -20 4 -8 -4 -12
-10 -9 -15 3 -5 0 -9 -6 -9 -6 0 -9 -4 -5 -9 3 -5 -8 -8 -24 -6 -18 2 -34 -2
-41 -11 -7 -8 -22 -14 -34 -14 -24 0 22 26 326 184 122 63 213 104 220 100 7
-4 10 -4 6 1 -11 12 -2 17 337 190 171 87 314 162 320 166 5 5 13 9 17 9 4 0
8 -76 8 -170z m-230 144 c0 -28 -60 -71 -82 -58 -6 4 -8 3 -5 -3 8 -13 -66
-47 -85 -40 -9 4 -8 6 4 6 9 1 25 14 34 30 16 27 92 77 122 80 6 0 12 -6 12
-15z m2837 10 c-3 -3 -12 -4 -19 -1 -8 3 -5 6 6 6 11 1 17 -2 13 -5z m-3437
-18 c0 -2 -7 -7 -16 -10 -8 -3 -12 -2 -9 4 6 10 25 14 25 6z m871 -86 c6 -5
15 -196 10 -236 -2 -19 -31 -26 -31 -8 0 8 4 13 9 9 5 -3 13 -1 16 5 4 6 1 9
-7 8 -10 -2 -13 25 -15 127 -1 72 1 123 4 115 3 -8 10 -17 14 -20z m-491 -1
c-25 -17 -116 -62 -107 -53 11 12 100 62 112 63 6 0 3 -4 -5 -10z m30 -29 c-8
-5 -19 -10 -25 -10 -5 0 -3 5 5 10 8 5 20 10 25 10 6 0 3 -5 -5 -10z m-170
-45 c-14 -8 -29 -14 -35 -14 -5 0 1 6 15 14 14 8 30 14 35 14 6 0 -1 -6 -15
-14z m-65 -25 c-3 -5 -12 -10 -18 -10 -7 0 -6 4 3 10 19 12 23 12 15 0z m2090
-25 c29 -3 230 -94 530 -239 83 -41 160 -77 173 -80 21 -7 33 -46 13 -46 -5 0
-51 19 -102 43 -52 24 -113 50 -136 57 -24 7 -43 16 -43 20 0 4 -28 20 -62 37
-376 186 -461 230 -423 217 11 -3 34 -8 50 -9z m3289 -74 c-3 -16 -1 -37 5
-48 11 -16 11 -15 5 6 -4 15 -2 21 4 17 6 -3 12 -1 15 6 2 7 2 0 -1 -17 -2
-16 -8 -34 -13 -39 -5 -6 -9 -26 -9 -45 0 -23 -3 -31 -8 -23 -12 18 -34 -61
-26 -93 4 -14 2 -25 -4 -25 -6 0 -13 -13 -17 -30 -4 -16 -11 -30 -17 -30 -14
0 -5 207 10 222 7 7 12 20 12 30 0 10 6 18 14 18 11 0 11 -8 0 -52 -25 -104
-26 -106 -10 -73 9 17 15 38 16 47 0 9 5 20 11 24 7 4 9 24 5 54 -4 26 -4 55
0 64 10 26 14 19 8 -13z m43 23 c-3 -3 -12 -4 -19 -1 -8 3 -5 6 6 6 11 1 17
-2 13 -5z m-5617 -19 c0 -2 -18 -14 -40 -25 -22 -11 -40 -17 -40 -13 0 6 40
27 78 42 1 1 2 -1 2 -4z m2260 -15 c0 -5 -5 -10 -11 -10 -5 0 -7 5 -4 10 3 6
8 10 11 10 2 0 4 -4 4 -10z m35 -18 c-3 -3 -11 0 -18 7 -9 10 -8 11 6 5 10 -3
15 -9 12 -12z m-1446 -104 c-1 -64 -4 -93 -9 -78 -7 24 -7 23 -11 -9 -3 -26
-12 -39 -33 -51 -35 -19 -45 -40 -19 -41 16 0 16 -1 -2 -8 -11 -5 -23 -7 -27
-4 -5 2 -8 -3 -8 -11 0 -9 -5 -16 -11 -16 -7 0 -9 10 -7 25 4 20 1 25 -14 25
-11 0 -16 -4 -12 -11 4 -8 0 -9 -15 -4 -24 7 -30 -12 -5 -22 11 -4 13 -13 8
-37 -6 -27 -5 -29 9 -17 9 7 22 11 28 9 7 -2 -2 -10 -20 -18 -21 -8 -30 -18
-27 -27 4 -8 1 -11 -5 -8 -6 4 -8 13 -5 20 6 17 -4 27 -18 16 -6 -5 -74 -47
-151 -94 -77 -46 -214 -131 -305 -187 -136 -85 -174 -104 -214 -108 -47 -5
-52 -3 -77 28 l-28 33 4 -30 c3 -25 -4 -37 -36 -69 -39 -38 -48 -39 -28 -3 5
11 15 17 22 13 7 -4 2 4 -10 18 -25 26 -31 84 -10 91 6 2 -3 4 -22 5 -18 0
-38 5 -43 10 -11 11 -98 -33 -98 -49 0 -13 18 -11 23 4 3 6 4 2 4 -10 -1 -21
-3 -21 -22 -9 -14 10 -27 11 -38 4 -9 -5 -17 -7 -17 -4 0 3 43 31 96 62 52 31
93 58 91 61 -3 2 -15 0 -26 -6 -17 -10 -20 -9 -15 4 4 8 10 15 16 15 5 0 24
10 41 23 29 21 97 50 97 42 0 -7 -71 -47 -87 -49 -17 -3 -32 -26 -16 -26 10 0
356 197 771 439 97 56 126 69 141 62 13 -7 18 -6 18 4 0 8 -7 11 -16 7 -9 -3
-13 -2 -9 3 9 10 131 83 141 84 4 1 7 -45 6 -101z m-974 72 c-3 -5 -12 -10
-18 -10 -7 0 -6 4 3 10 19 12 23 12 15 0z m751 -2 c5 -7 3 -8 -6 -3 -9 6 -12
4 -8 -6 3 -8 0 -23 -8 -33 -12 -17 -14 -18 -20 -2 -5 13 -9 14 -20 5 -8 -6
-12 -15 -9 -19 2 -4 -8 -12 -23 -19 -23 -10 -25 -10 -10 2 10 8 15 16 13 19
-7 7 16 25 35 30 8 2 21 11 28 21 15 20 18 21 28 5z m273 -25 c0 -25 -1 -26
-9 -8 -6 15 -9 6 -11 -35 l-3 -55 -3 49 c-2 27 -2 55 1 62 9 24 26 15 25 -13z
m-1124 -23 c-3 -5 -11 -10 -16 -10 -6 0 -7 5 -4 10 3 6 11 10 16 10 6 0 7 -4
4 -10z m152 -26 c-1 -1 -32 -18 -70 -38 -57 -32 -68 -35 -73 -21 -6 14 -9 14
-30 0 -26 -17 -34 -19 -34 -7 0 4 32 23 71 42 38 18 72 37 75 41 2 4 17 2 34
-4 16 -6 28 -12 27 -13z m2573 -14 c8 -5 11 -10 5 -10 -5 0 -17 5 -25 10 -8 5
-10 10 -5 10 6 0 17 -5 25 -10z m-2868 -32 c-9 -9 -12 -7 -12 12 0 19 3 21 12
12 9 -9 9 -15 0 -24z m1265 -35 c-2 -16 -4 -5 -4 22 0 28 2 40 4 28 2 -13 2
-35 0 -50z m-487 32 c0 -2 -10 -9 -22 -15 -22 -11 -22 -10 -4 4 21 17 26 19
26 11z m2270 -20 c10 -12 10 -15 -3 -15 -8 0 -17 7 -21 15 -3 8 -2 15 3 15 5
0 14 -7 21 -15z m-2905 -5 c-11 -17 -99 -58 -114 -52 -8 3 -11 0 -7 -7 5 -7 1
-9 -10 -4 -11 4 -15 2 -11 -4 4 -6 -2 -13 -13 -16 -17 -4 -20 0 -19 26 1 31 1
31 9 7 4 -14 8 -19 9 -12 1 6 8 12 17 12 8 0 12 5 8 11 -5 8 -1 8 13 0 15 -8
25 -7 39 5 11 9 14 13 9 10 -6 -2 -17 -1 -24 4 -10 6 -8 10 9 15 13 4 25 3 29
-4 5 -8 13 -7 27 4 22 17 38 20 29 5z m5802 -109 c-3 -9 -5 -5 -6 9 -1 20 -3
22 -11 10 -11 -17 -13 0 -3 26 6 15 8 14 15 -6 5 -13 7 -31 5 -39z m-5890 -7
c-3 -3 -12 -4 -19 -1 -8 3 -5 6 6 6 11 1 17 -2 13 -5z m5880 -61 c-3 -10 -5
-4 -5 12 0 17 2 24 5 18 2 -7 2 -21 0 -30z m-37 6 c0 -5 5 -7 12 -3 7 5 8 3 4
-5 -5 -7 -14 -10 -22 -7 -8 3 -14 -1 -14 -10 0 -10 6 -14 15 -10 11 4 15 -2
15 -23 0 -16 3 -38 7 -48 4 -12 0 -10 -15 7 l-21 25 3 -88 c1 -49 0 -105 -4
-125 -3 -20 -7 38 -8 131 -2 143 0 167 13 167 8 0 15 -5 15 -11z m-5923 -51
c-3 -8 -6 -5 -6 6 -1 11 2 17 5 13 3 -3 4 -12 1 -19z m5950 -20 c-3 -7 -5 -2
-5 12 0 14 2 19 5 13 2 -7 2 -19 0 -25z m-5611 7 c-11 -8 -25 -15 -30 -15 -6
1 0 7 14 15 32 19 40 18 16 0z m818 -3 c3 -5 -1 -9 -9 -9 -8 0 -12 4 -9 9 3 4
7 8 9 8 2 0 6 -4 9 -8z m-74 -6 c0 -2 -8 -10 -17 -17 -16 -13 -17 -12 -4 4 13
16 21 21 21 13z m-1056 -88 c6 -4 22 -8 35 -8 32 0 22 -9 -12 -12 -19 -2 -27
-8 -28 -23 -1 -14 -4 -11 -9 10 -7 25 -8 21 -7 -22 0 -29 -2 -56 -6 -60 -4 -3
-7 41 -6 98 1 92 2 99 11 64 6 -22 16 -43 22 -47z m236 52 c0 -5 -5 -10 -11
-10 -5 0 -7 5 -4 10 3 6 8 10 11 10 2 0 4 -4 4 -10z m-120 -3 c0 -2 -9 -12
-20 -22 -24 -21 -27 -14 -4 9 15 15 24 20 24 13z m5784 -78 c-8 -17 -9 -13 -9
21 0 34 1 38 9 21 5 -13 5 -29 0 -42z m-5824 -95 c0 -8 -19 -13 -24 -6 -3 5 1
9 9 9 8 0 15 -2 15 -3z m-36 -12 c3 -5 -1 -9 -9 -9 -8 0 -12 4 -9 9 3 4 7 8 9
8 2 0 6 -4 9 -8z m-43 -35 c-10 -9 -11 -8 -5 6 3 10 9 15 12 12 3 -3 0 -11 -7
-18z m5876 -39 c-3 -7 -5 -2 -5 12 0 14 2 19 5 13 2 -7 2 -19 0 -25z m-1421
-19 c40 -15 52 -24 43 -30 -20 -12 -23 -12 -48 12 -12 12 -33 22 -46 23 -13 0
-21 4 -18 9 6 10 5 10 69 -14z m-4282 -54 c-8 -13 -13 -29 -9 -35 4 -6 -5 -22
-19 -35 -25 -23 -38 -21 -14 3 6 6 13 22 15 34 2 12 11 30 20 40 23 25 26 22
7 -7z m4376 -20 c11 -13 10 -14 -4 -9 -9 3 -16 10 -16 15 0 13 6 11 20 -6z
m-4212 -9 c-10 -7 -15 -15 -12 -18 2 -3 -4 -8 -16 -11 -28 -7 -25 5 8 25 32
21 44 23 20 4z m-93 -66 c-3 -5 -12 -10 -18 -10 -7 0 -6 4 3 10 19 12 23 12
15 0z m-30 -30 c-3 -5 -12 -10 -18 -10 -7 0 -6 4 3 10 19 12 23 12 15 0z m135
-44 c-13 -15 -20 -32 -16 -41 4 -13 2 -14 -14 -5 -24 13 -43 13 -35 0 4 -6 10
-8 15 -5 5 3 12 1 15 -5 4 -6 1 -9 -7 -8 -7 2 -12 -4 -10 -13 1 -9 -18 -29
-45 -48 l-48 -33 45 41 c25 22 41 41 36 41 -5 0 -18 -8 -28 -17 -17 -15 -20
-15 -28 -3 -9 14 -11 13 -14 -9 -2 -20 -16 -23 -16 -4 0 12 7 24 17 27 15 6
15 8 -2 20 -15 11 -21 10 -39 -8 -12 -12 -21 -24 -19 -28 2 -4 -1 -10 -7 -13
-6 -4 -10 -3 -9 2 4 22 -4 23 -38 3 -35 -20 -36 -20 -13 -1 14 11 36 26 50 33
14 7 31 19 39 26 7 7 20 11 28 8 8 -3 12 -2 9 3 -7 11 55 52 66 45 5 -3 6 -10
2 -15 -3 -5 9 -1 28 11 47 28 67 26 38 -4z m4337 -32 c-7 -7 -61 13 -65 24 -3
9 8 7 32 -5 20 -9 34 -18 33 -19z m203 -43 c0 7 8 5 20 -6 11 -10 19 -20 17
-22 -6 -6 -97 31 -97 39 0 5 14 2 30 -7 21 -11 30 -12 30 -4z m-4690 -6 c-7
-8 -17 -15 -22 -15 -6 0 -5 7 2 15 7 8 17 15 22 15 6 0 5 -7 -2 -15z m-10 -29
c0 -3 -4 -8 -10 -11 -5 -3 -10 -1 -10 4 0 6 5 11 10 11 6 0 10 -2 10 -4z
m4805 -24 c-3 -3 -11 0 -18 7 -9 10 -8 11 6 5 10 -3 15 -9 12 -12z m-4947 -6
c-10 -7 -15 -16 -11 -19 3 -4 1 -7 -5 -7 -18 0 -14 18 6 29 24 15 30 13 10 -3z
m5058 -1 c16 -8 22 -15 14 -15 -18 1 -70 29 -54 30 7 0 25 -7 40 -15z m-4909
-8 c0 -8 -6 -14 -14 -14 -9 0 -10 4 -2 14 6 7 12 13 14 13 1 0 2 -6 2 -13z
m4968 -27 c3 -6 -1 -7 -9 -4 -18 7 -21 14 -7 14 6 0 13 -4 16 -10z m-5111 -79
c-10 -10 -21 -16 -24 -14 -3 3 4 11 14 19 28 20 33 17 10 -5z m-42 -90 c2 -33
-1 -47 -8 -44 -13 5 -24 61 -17 81 10 26 21 10 25 -37z m5913 -104 c23 -13 41
-31 43 -44 3 -20 3 -20 -47 4 -36 16 -51 30 -51 43 0 25 6 25 55 -3z m-1617
-92 c-3 -3 -9 2 -12 12 -6 14 -5 15 5 6 7 -7 10 -15 7 -18z m37 -4 c3 -5 1
-12 -4 -15 -5 -3 -11 1 -15 9 -6 16 9 21 19 6z m56 -28 c28 -17 40 -43 19 -43
-5 0 -10 6 -10 14 0 8 -5 18 -12 22 -8 5 -9 2 -4 -11 5 -15 4 -16 -9 -5 -8 7
-13 16 -10 20 3 5 -1 11 -7 13 -7 3 -9 6 -5 6 5 1 22 -7 38 -16z m82 -271 c-1
-5 6 -8 16 -5 22 6 43 -18 31 -37 -7 -11 -16 -9 -49 14 -44 31 -51 39 -24 29
12 -5 14 -3 8 7 -5 8 -3 11 6 8 8 -3 13 -10 12 -16z m132 -30 c-6 -6 -65 31
-65 40 0 5 15 -2 34 -14 19 -13 33 -24 31 -26z m-162 -3 c12 -7 34 -22 49 -34
21 -18 24 -25 15 -35 -7 -7 1 -4 17 6 25 16 26 19 10 24 -15 6 -16 7 -2 13 18
6 33 -19 17 -29 -6 -3 -3 -12 8 -21 10 -8 12 -11 4 -7 -9 5 -12 3 -7 -5 4 -6
15 -10 23 -9 9 2 18 -3 21 -11 3 -10 0 -12 -14 -7 -11 4 -23 8 -29 9 -5 1 -13
7 -17 12 -4 6 -15 10 -25 11 -32 2 -98 50 -100 73 -2 24 1 25 30 10z m241 -33
c17 -13 55 -35 84 -50 30 -15 52 -30 49 -32 -6 -6 -35 8 -129 63 -27 16 -48
31 -48 36 0 12 12 8 44 -17z m301 -135 c1 -12 -3 -20 -9 -18 -6 3 -10 10 -8
17 2 8 -5 11 -21 8 -19 -4 -23 -1 -21 16 1 12 3 22 3 24 1 1 13 -4 28 -11 15
-8 27 -24 28 -36z m26 36 c-1 -12 -15 -9 -19 4 -3 6 1 10 8 8 6 -3 11 -8 11
-12z"/>
<path d="M2657 9763 c-12 -11 -8 -23 9 -23 9 0 12 5 8 12 -5 8 -2 9 9 5 10 -3
17 -2 17 3 0 11 -33 14 -43 3z"/>
<path d="M6123 9613 c9 -2 23 -2 30 0 6 3 -1 5 -18 5 -16 0 -22 -2 -12 -5z"/>
<path d="M6320 9615 c0 -5 5 -17 10 -25 5 -8 10 -10 10 -5 0 6 -5 17 -10 25
-5 8 -10 11 -10 5z"/>
<path d="M6000 9589 c0 -6 -4 -7 -10 -4 -5 3 -10 1 -10 -4 0 -13 20 -14 38 -2
11 7 11 9 -2 14 -9 4 -16 2 -16 -4z"/>
<path d="M6062 9591 c-11 -7 -11 -9 2 -14 10 -4 16 -1 16 8 0 17 -1 17 -18 6z"/>
<path d="M6095 9580 c5 -15 1 -21 -17 -25 -27 -7 -116 -1 -125 8 -3 4 -14 2
-25 -4 -10 -5 -24 -7 -31 -3 -8 5 -9 4 -2 -4 6 -6 24 -14 42 -19 l32 -8 -24
-12 c-14 -6 -23 -7 -19 -2 3 5 -8 9 -24 9 -26 0 -29 -3 -25 -21 5 -19 3 -21
-20 -17 -20 4 -28 0 -37 -20 -10 -24 -11 -24 -25 -6 -15 20 -18 15 -18 -28 0
-10 -4 -15 -8 -12 -5 3 -9 0 -9 -5 0 -6 -6 -11 -14 -11 -8 0 -18 -5 -22 -12
-4 -6 -3 -8 2 -5 6 3 16 2 24 -4 11 -6 6 -9 -17 -9 -18 0 -33 -5 -33 -11 0 -6
-7 -9 -15 -5 -8 3 -15 2 -15 -3 0 -5 -9 -11 -20 -14 -13 -3 -18 -11 -14 -20 3
-8 1 -18 -5 -22 -6 -3 -11 1 -11 9 0 18 -38 32 -52 18 -5 -5 -7 -20 -3 -31 5
-18 13 -21 36 -17 20 3 29 1 26 -7 -2 -7 -13 -13 -25 -15 -24 -4 -31 -22 -8
-22 8 0 17 -7 20 -16 3 -8 2 -12 -4 -9 -6 3 -10 1 -10 -4 0 -6 12 -11 26 -11
15 0 32 -7 39 -16 10 -15 16 -15 51 -3 21 7 44 13 49 14 6 0 10 9 10 20 0 15
8 21 33 23 24 2 32 -1 32 -12 0 -9 -5 -16 -11 -16 -5 0 -7 -5 -4 -10 5 -8 11
-8 19 -1 16 13 26 4 26 -21 0 -11 5 -16 10 -13 6 4 8 11 4 16 -3 5 -1 16 6 24
9 10 7 16 -7 24 -21 11 -9 29 22 34 41 6 64 37 28 37 -31 0 8 20 42 21 19 1
23 3 11 6 -17 5 -16 6 5 19 13 7 32 17 42 20 10 4 17 17 17 30 0 30 -18 31
-22 2 -2 -13 -7 -21 -12 -20 -5 2 -12 -2 -16 -8 -6 -9 -14 -6 -29 9 -22 22
-20 41 3 41 8 0 19 7 26 15 11 13 6 15 -36 16 -27 1 -40 4 -29 6 11 3 24 12
30 20 15 20 125 24 117 5 -2 -7 -11 -11 -20 -7 -8 3 -23 3 -34 -1 -15 -4 -17
-9 -7 -20 6 -8 20 -14 31 -14 12 0 18 -6 16 -17 -2 -13 3 -18 18 -17 14 0 20
-4 17 -13 -3 -7 -9 -11 -13 -8 -5 3 -11 2 -13 -2 -7 -11 75 -10 91 0 14 10 17
31 2 22 -5 -3 0 9 13 28 12 19 25 33 30 30 4 -2 7 6 8 19 1 25 6 65 11 88 3
17 -2 20 -32 20 -13 0 -20 -7 -20 -20 0 -11 -5 -20 -11 -20 -6 0 -9 -6 -6 -12
2 -7 13 -13 25 -13 11 0 23 -3 26 -6 9 -8 -37 -5 -51 4 -6 4 -13 4 -16 0 -2
-5 -2 -1 1 7 14 49 14 50 -7 50 -12 0 -21 6 -21 15 0 8 -7 15 -16 15 -11 0
-14 -6 -9 -20z m-11 -55 c6 -15 -4 -22 -34 -26 -36 -4 -50 2 -50 21 0 17 7 20
39 20 26 0 41 -5 45 -15z m46 -10 c0 -2 -6 -8 -13 -14 -10 -8 -14 -7 -14 2 0
8 6 14 14 14 7 0 13 -1 13 -2z m20 -137 c0 -4 -4 -8 -9 -8 -6 0 -12 4 -15 8
-3 5 1 9 9 9 8 0 15 -4 15 -9z m-376 -39 c-33 -35 -36 -36 -21 -6 22 41 28 47
39 41 5 -4 -2 -18 -18 -35z m-37 -2 c-5 -15 -45 -19 -53 -4 -4 6 -4 9 1 5 4
-4 14 0 22 8 15 15 36 9 30 -9z m168 -37 c-3 -5 -12 -10 -20 -10 -8 0 -17 5
-20 10 -4 6 5 10 20 10 15 0 24 -4 20 -10z m-168 -22 c-3 -8 -6 -5 -6 6 -1 11
2 17 5 13 3 -3 4 -12 1 -19z m103 -18 c0 -5 -12 -10 -26 -10 -14 0 -23 4 -19
10 3 6 15 10 26 10 10 0 19 -4 19 -10z m-85 -19 c3 -5 2 -12 -3 -15 -5 -3 -9
1 -9 9 0 17 3 19 12 6z"/>
<path d="M6028 9513 c12 -2 30 -2 40 0 9 3 -1 5 -23 4 -22 0 -30 -2 -17 -4z"/>
<path d="M5857 9539 c7 -7 15 -10 18 -7 3 3 -2 9 -12 12 -14 6 -15 5 -6 -5z"/>
<path d="M5708 9463 c7 -3 16 -2 19 1 4 3 -2 6 -13 5 -11 0 -14 -3 -6 -6z"/>
<path d="M6215 9443 c-15 -12 -16 -14 -3 -10 9 3 19 1 21 -6 2 -7 8 -9 12 -5
4 3 3 13 -2 21 -7 14 -10 14 -28 0z"/>
<path d="M6186 9412 c-2 -4 -1 -14 5 -22 7 -12 9 -10 9 8 0 23 -5 28 -14 14z"/>
<path d="M6057 9334 c-8 -8 1 -24 14 -24 5 0 9 7 9 15 0 15 -12 20 -23 9z"/>
<path d="M6260 9333 c0 -7 5 -15 10 -18 6 -3 10 -11 10 -16 0 -6 -5 -7 -12 -3
-7 5 -8 3 -2 -7 4 -8 8 -32 9 -54 0 -50 21 -56 58 -19 32 32 32 30 6 73 l-21
35 -20 -25 c-11 -13 -17 -18 -13 -12 3 7 -1 23 -9 35 -9 12 -16 17 -16 11z"/>
<path d="M6100 9265 c0 -8 5 -15 10 -15 6 0 10 7 10 15 0 8 -4 15 -10 15 -5 0
-10 -7 -10 -15z"/>
<path d="M5520 9260 c0 -5 7 -10 15 -10 8 0 15 5 15 10 0 6 -7 10 -15 10 -8 0
-15 -4 -15 -10z"/>
<path d="M5390 9230 c0 -5 4 -10 9 -10 6 0 13 5 16 10 3 6 -1 10 -9 10 -9 0
-16 -4 -16 -10z"/>
<path d="M6246 9203 c-6 -14 -5 -15 5 -6 7 7 10 15 7 18 -3 3 -9 -2 -12 -12z"/>
<path d="M5156 9181 c-10 -11 -15 -25 -11 -30 11 -19 23 -12 27 19 5 36 6 35
-16 11z"/>
<path d="M5194 9186 c-3 -8 -4 -23 -2 -33 3 -11 6 -6 9 15 6 34 2 42 -7 18z"/>
<path d="M5312 9193 c-10 -4 -9 -10 5 -26 10 -12 12 -17 4 -12 -11 6 -13 4 -8
-8 4 -11 2 -14 -9 -10 -12 4 -12 8 -2 21 8 10 9 13 1 9 -6 -4 -13 -1 -16 5 -3
7 -5 4 -5 -7 -1 -28 -7 -53 -15 -61 -14 -14 -7 -44 13 -54 19 -10 20 -9 15 17
l-5 28 11 -25 c7 -14 12 -28 11 -32 -1 -4 7 -6 18 -5 21 1 29 17 9 17 -7 0 0
9 14 21 30 22 30 48 3 78 -11 12 -14 21 -7 26 6 3 11 12 10 18 0 9 -2 9 -6 0
-2 -7 -12 -13 -21 -13 -15 0 -15 2 -2 10 16 10 4 12 -18 3z"/>
<path d="M5394 9159 c25 -29 27 -49 5 -49 -6 0 -7 5 -4 11 8 11 -22 49 -38 49
-6 0 0 -11 13 -25 13 -14 20 -25 16 -25 -4 0 -1 -10 5 -22 11 -21 12 -21 30
13 18 34 26 66 10 41 -6 -10 -12 -7 -25 12 -9 14 -21 26 -27 26 -6 0 1 -14 15
-31z"/>
<path d="M5913 9162 c3 -15 1 -25 -9 -28 -8 -2 -22 -7 -31 -11 -10 -3 -26 -5
-36 -4 -16 2 -17 -1 -7 -19 6 -11 15 -18 21 -15 5 4 9 -3 9 -15 0 -12 -4 -18
-10 -15 -6 3 -7 -1 -3 -10 5 -13 7 -14 14 -3 6 9 9 5 9 -14 0 -20 4 -25 18
-23 9 2 22 4 29 4 7 1 19 13 27 28 12 24 12 31 -1 56 -8 16 -10 26 -4 23 19
-12 12 14 -10 42 -21 26 -22 26 -16 4z m-17 -58 c-22 -16 -36 -18 -36 -6 0 13
7 18 32 19 22 2 22 1 4 -13z"/>
<path d="M5100 9140 c0 -5 7 -10 16 -10 8 0 12 5 9 10 -3 6 -10 10 -16 10 -5
0 -9 -4 -9 -10z"/>
<path d="M5157 9124 c-4 -4 -7 -14 -7 -23 0 -11 3 -12 11 -4 6 6 10 16 7 23
-2 6 -7 8 -11 4z"/>
<path d="M5117 9114 c-4 -4 -7 -14 -7 -23 0 -11 3 -12 11 -4 6 6 10 16 7 23
-2 6 -7 8 -11 4z"/>
<path d="M5000 9090 c0 -5 4 -10 9 -10 6 0 13 5 16 10 3 6 -1 10 -9 10 -9 0
-16 -4 -16 -10z"/>
<path d="M6125 9090 c-3 -5 -5 -10 -3 -11 33 -8 38 -7 27 7 -14 17 -16 17 -24
4z"/>
<path d="M5421 9074 c0 -11 3 -14 6 -6 3 7 2 16 -1 19 -3 4 -6 -2 -5 -13z"/>
<path d="M5971 9081 c-10 -6 -10 -10 -1 -16 8 -5 6 -11 -6 -19 -11 -9 -13 -15
-6 -20 13 -8 23 7 27 40 1 13 2 24 1 24 0 0 -7 -4 -15 -9z"/>
<path d="M6095 9080 c3 -5 1 -19 -5 -31 -11 -19 -10 -20 9 -9 17 9 19 15 11
30 -6 11 -13 20 -16 20 -3 0 -2 -4 1 -10z"/>
<path d="M5361 9066 c-9 -11 -8 -15 5 -20 8 -3 17 -6 18 -6 1 0 2 9 3 20 2 23
-10 26 -26 6z"/>
<path d="M5060 9050 c0 -5 9 -10 20 -10 11 0 20 5 20 10 0 6 -9 10 -20 10 -11
0 -20 -4 -20 -10z"/>
<path d="M6122 9048 c-7 -7 -12 -18 -12 -26 0 -7 -4 -10 -10 -7 -6 4 -7 -1 -3
-11 3 -10 2 -15 -3 -12 -5 4 -9 -6 -9 -21 0 -24 3 -26 30 -23 38 5 65 29 65
56 0 17 2 18 10 6 5 -8 10 -10 10 -4 0 9 -52 54 -63 54 -1 0 -8 -5 -15 -12z"/>
<path d="M5140 9040 c8 -5 20 -10 25 -10 6 0 3 5 -5 10 -8 5 -19 10 -25 10 -5
0 -3 -5 5 -10z"/>
<path d="M5000 9025 c-7 -8 -17 -12 -23 -8 -5 3 -8 2 -4 -3 3 -5 -1 -20 -9
-34 l-13 -25 -1 25 c0 17 -3 21 -11 13 -17 -17 -10 -94 9 -101 7 -2 10 -8 6
-13 -9 -15 43 -10 56 6 7 8 15 13 19 11 4 -3 8 5 8 16 2 20 1 20 -12 2 -7 -11
-17 -16 -21 -12 -4 4 -2 13 4 21 7 8 7 18 2 27 -10 16 -3 33 11 25 5 -4 9 -2
9 4 0 5 -5 11 -12 13 -7 3 -8 10 -4 17 7 10 10 10 16 1 4 -7 10 -8 13 -3 3 5
-3 14 -13 21 -14 9 -21 8 -30 -3z m10 -10 c-6 -8 -9 -19 -5 -25 3 -5 1 -10 -4
-10 -15 0 -14 23 1 38 17 17 23 15 8 -3z"/>
<path d="M5265 9030 c3 -5 8 -10 11 -10 2 0 4 5 4 10 0 6 -5 10 -11 10 -5 0
-7 -4 -4 -10z"/>
<path d="M5530 8988 c25 -24 38 -29 25 -9 -3 6 -16 16 -28 22 -20 11 -20 9 3
-13z"/>
<path d="M5484 8991 c4 -6 -2 -28 -12 -49 -17 -35 -17 -40 -3 -49 9 -6 27 -9
41 -8 21 1 25 7 28 43 3 37 1 42 -28 57 -18 9 -29 12 -26 6z"/>
<path d="M5902 8991 c-11 -7 -11 -9 0 -14 9 -3 15 1 15 9 0 8 -1 14 -1 14 -1
0 -7 -4 -14 -9z"/>
<path d="M4680 8979 c0 -5 5 -7 10 -4 6 3 10 8 10 11 0 2 -4 4 -10 4 -5 0 -10
-5 -10 -11z"/>
<path d="M5020 8950 c0 -5 5 -10 11 -10 5 0 7 5 4 10 -3 6 -8 10 -11 10 -2 0
-4 -4 -4 -10z"/>
<path d="M6292 8924 c-7 -14 -16 -23 -20 -20 -4 2 -8 -12 -7 -32 0 -45 26 -54
61 -21 28 26 30 41 8 74 -21 31 -28 31 -42 -1z"/>
<path d="M4915 8931 c4 -8 2 -17 -6 -22 -9 -6 -10 -9 -2 -9 19 0 27 21 13 33
-10 9 -11 9 -5 -2z"/>
<path d="M4758 8909 c-24 -14 -23 -28 2 -22 11 3 20 12 20 19 0 16 0 16 -22 3z"/>
<path d="M5687 8860 c-21 -49 -22 -76 -2 -83 23 -9 58 26 60 61 1 17 -2 30 -6
29 -4 -1 -14 6 -21 16 -12 16 -15 14 -31 -23z"/>
<path d="M4713 8883 c-7 -3 -13 -9 -13 -14 0 -4 7 -6 15 -3 8 4 15 2 15 -4 0
-13 -24 -10 -42 6 -15 12 -28 7 -28 -12 0 -6 5 -4 11 4 9 13 10 13 6 0 -2 -8
-9 -16 -15 -16 -7 -1 -19 -2 -27 -3 -8 0 -12 -7 -9 -16 4 -8 1 -15 -5 -15 -15
0 26 -65 41 -65 7 -1 12 -7 10 -14 -1 -7 2 -10 8 -6 6 3 8 11 5 16 -4 5 1 9
10 9 10 0 13 -5 9 -12 -4 -7 -3 -9 1 -5 5 4 10 14 11 22 2 11 -4 12 -24 4 -25
-9 -26 -8 -8 6 11 8 28 15 38 15 10 0 18 3 19 8 7 69 -3 103 -28 95z m-56 -75
c-3 -8 -6 -5 -6 6 -1 11 2 17 5 13 3 -3 4 -12 1 -19z m77 3 c3 -5 -1 -11 -9
-14 -9 -4 -12 -1 -8 9 6 16 10 17 17 5z m-76 -52 c-3 -8 -7 -3 -11 10 -4 17
-3 21 5 13 5 -5 8 -16 6 -23z"/>
<path d="M5137 8863 c4 -10 2 -14 -5 -9 -6 3 -14 1 -18 -5 -5 -8 -3 -9 6 -4 9
6 10 2 5 -16 -5 -13 -11 -38 -15 -56 -7 -31 -7 -31 21 -21 39 13 52 33 46 67
-4 16 -3 31 1 34 4 2 1 2 -5 1 -7 -2 -13 1 -13 5 0 5 -7 11 -14 14 -11 4 -13
1 -9 -10z"/>
<path d="M5085 8800 c-3 -6 1 -7 9 -4 18 7 21 14 7 14 -6 0 -13 -4 -16 -10z"/>
<path d="M4425 8790 c-4 -6 -11 -7 -17 -4 -7 4 -8 2 -4 -5 6 -9 11 -9 22 0 14
11 18 19 10 19 -3 0 -8 -5 -11 -10z"/>
<path d="M5870 8745 c-24 -40 -23 -68 3 -73 43 -8 72 53 43 91 -18 23 -21 22
-46 -18z"/>
<path d="M4400 8744 c0 -11 -5 -26 -11 -34 -9 -13 -10 -12 -5 3 3 9 1 17 -4
17 -6 0 -10 -5 -10 -11 0 -6 -7 -9 -15 -5 -21 8 -31 -19 -34 -89 -2 -59 -2
-60 17 -40 10 11 19 25 19 30 0 6 3 20 7 32 6 18 4 22 -7 17 -21 -7 -30 12
-17 33 9 15 10 14 5 -7 -6 -24 -5 -24 9 -6 9 11 17 17 17 13 1 -4 2 -12 3 -18
0 -6 10 -17 21 -26 20 -15 20 -15 -3 -8 -21 6 -22 4 -16 -22 4 -15 8 -31 10
-35 5 -7 79 60 79 71 0 16 45 61 61 62 11 0 4 5 -15 11 -27 7 -32 12 -20 20
12 8 12 9 -1 6 -8 -3 -15 -18 -16 -36 -1 -18 -7 -38 -13 -45 -6 -8 -7 -18 -3
-22 4 -5 1 -5 -7 0 -9 5 -12 4 -7 -3 5 -8 1 -10 -9 -5 -12 4 -13 8 -5 13 6 4
12 11 13 16 1 5 5 8 10 7 11 -4 9 15 -3 22 -5 3 -10 12 -10 18 0 7 4 6 10 -3
12 -20 21 -9 13 18 -4 18 -8 20 -19 11 -11 -9 -18 -8 -29 1 -12 10 -15 9 -15
-6z"/>
<path d="M5297 8696 c-13 -38 -13 -47 -2 -56 18 -15 51 2 60 30 7 21 -17 70
-34 70 -5 0 -16 -20 -24 -44z"/>
<path d="M4803 8675 c-11 -50 -7 -65 18 -65 12 0 24 11 30 28 6 15 16 35 21
46 11 22 -5 46 -17 25 -5 -8 -4 -10 3 -5 7 4 12 2 12 -4 0 -7 -7 -9 -16 -6 -9
3 -18 6 -20 6 -3 0 -3 4 0 8 3 5 -1 9 -8 9 -7 0 -18 -19 -23 -42z"/>
<path d="M4187 8633 c5 -12 3 -14 -8 -8 -18 12 -49 14 -43 3 3 -4 2 -18 -1
-29 -5 -15 -10 -18 -18 -10 -14 14 -27 14 -27 0 0 -5 4 -8 9 -5 5 3 12 -1 15
-10 8 -21 8 -24 -5 -24 -5 0 -8 4 -5 8 3 5 -1 9 -8 9 -9 0 -12 -13 -11 -40 2
-32 -1 -41 -16 -44 -15 -4 -18 -11 -12 -27 4 -11 7 -31 8 -43 0 -38 15 -13 15
26 0 29 6 43 23 55 20 14 20 15 2 10 -15 -4 -14 -2 5 10 25 15 25 15 3 16 -13
0 -23 4 -23 10 0 6 9 6 23 1 25 -10 25 -39 -1 -58 -14 -12 -14 -13 1 -13 9 0
17 4 17 9 0 5 11 8 25 6 16 -1 25 3 25 11 0 8 -8 14 -17 15 -14 0 -15 2 -3 6
8 3 23 13 33 22 11 9 26 16 35 16 12 0 16 7 14 27 -2 19 2 28 15 31 10 2 3 3
-16 1 -26 -2 -34 2 -38 17 -3 10 -9 19 -14 19 -5 0 -5 -7 -2 -17z m22 -53 c0
-10 -3 -8 -9 5 -8 18 -9 18 -9 -5 -1 -27 -17 -50 -35 -50 -5 0 -2 6 9 13 12
10 16 22 13 40 -3 15 -1 24 3 21 5 -3 9 1 9 8 0 9 3 9 10 -2 5 -8 9 -22 9 -30z
m24 0 c3 -11 1 -20 -4 -20 -5 0 -9 9 -9 20 0 11 2 20 4 20 2 0 6 -9 9 -20z"/>
<path d="M4110 8622 c6 -13 14 -21 18 -18 3 4 -2 14 -12 24 -18 16 -18 16 -6
-6z"/>
<path d="M6085 8620 c-4 -11 -9 -18 -13 -16 -4 2 -8 -11 -9 -29 -3 -38 8 -49
41 -41 33 8 47 45 30 79 -17 32 -40 35 -49 7z"/>
<path d="M5470 8579 c-12 -23 -19 -47 -16 -55 9 -22 44 -16 61 10 15 22 15 27
0 55 -8 17 -18 31 -20 31 -3 0 -14 -18 -25 -41z"/>
<path d="M4524 8597 c10 -31 -3 -67 -22 -59 -14 5 -15 3 -5 -9 9 -11 9 -19 2
-26 -6 -6 -4 -10 8 -11 60 -3 86 28 58 71 -8 13 -12 27 -8 32 5 4 2 5 -6 0 -8
-4 -17 -2 -23 6 -8 11 -8 10 -4 -4z"/>
<path d="M4989 8583 c-18 -48 -16 -68 8 -71 31 -5 51 37 35 73 -15 32 -30 32
-43 -2z"/>
<path d="M4507 8573 c-4 -3 -7 -11 -7 -17 0 -6 5 -5 12 2 6 6 9 14 7 17 -3 3
-9 2 -12 -2z"/>
<path d="M4034 8549 c-8 -14 11 -33 25 -25 16 10 13 36 -3 36 -8 0 -18 -5 -22
-11z"/>
<path d="M3982 8513 c-13 -19 -21 -37 -19 -40 3 -3 10 5 17 16 6 13 16 19 23
15 7 -4 9 -4 5 1 -4 4 -3 14 3 21 5 7 6 14 2 17 -5 3 -19 -10 -31 -30z"/>
<path d="M4226 8518 c-3 -13 -2 -26 2 -30 4 -4 9 6 10 22 3 35 -3 39 -12 8z"/>
<path d="M4716 8466 c-9 -21 -16 -44 -16 -52 0 -22 20 -27 41 -8 22 20 25 53
5 79 -13 18 -15 17 -30 -19z"/>
<path d="M4273 8471 c0 -3 -6 -19 -16 -36 -9 -16 -16 -26 -17 -22 0 5 4 17 10
27 7 13 6 19 -5 24 -9 3 -19 -3 -25 -14 -6 -11 -8 -20 -5 -20 3 0 1 -9 -6 -21
-10 -19 -8 -20 10 -14 20 6 24 -1 20 -31 -2 -15 26 -22 40 -11 8 7 17 11 20 9
3 -2 7 2 9 10 3 11 2 11 -6 0 -6 -9 -9 7 -8 46 1 40 -2 59 -11 59 -6 0 -11 -3
-10 -6z"/>
<path d="M5655 8450 c-30 -58 -13 -94 30 -66 27 17 32 45 15 77 -15 27 -27 24
-45 -11z"/>
<path d="M5130 8451 c-13 -25 -13 -68 1 -76 15 -10 49 24 49 50 0 21 -17 45
-32 45 -4 0 -12 -9 -18 -19z"/>
<path d="M4306 8427 c3 -10 9 -15 12 -12 3 3 0 11 -7 18 -10 9 -11 8 -5 -6z"/>
<path d="M4150 8410 c6 -11 12 -20 14 -20 2 0 2 9 -1 20 -3 11 -9 20 -15 20
-5 0 -4 -9 2 -20z"/>
<path d="M4056 8364 c-8 -21 -8 -21 8 -21 8 0 11 8 8 19 -5 22 -8 23 -16 2z"/>
<path d="M4827 8308 c-14 -34 -15 -44 -4 -55 10 -11 17 -10 35 3 27 18 28 44
5 73 -18 21 -18 21 -36 -21z"/>
<path d="M4409 8317 c-9 -20 -15 -24 -21 -15 -5 8 -6 1 -2 -17 9 -41 21 -52
42 -39 22 14 27 54 8 79 -14 19 -15 19 -27 -8z"/>
<path d="M5859 8295 c-27 -51 -18 -72 25 -61 31 8 44 46 27 82 -15 34 -25 30
-52 -21z"/>
<path d="M4057 8323 c-4 -3 -7 -13 -7 -22 1 -13 3 -13 11 2 11 19 8 33 -4 20z"/>
<path d="M4130 8214 c-17 -44 -13 -66 12 -62 25 3 33 26 24 64 -8 31 -24 31
-36 -2z"/>
<path d="M4536 8205 c-25 -60 6 -91 40 -40 15 23 15 27 0 50 -9 14 -19 25 -21
25 -3 0 -11 -16 -19 -35z"/>
<path d="M6115 8210 c3 -5 8 -10 11 -10 2 0 4 5 4 10 0 6 -5 10 -11 10 -5 0
-7 -4 -4 -10z"/>
<path d="M6140 8211 c0 -6 4 -13 10 -16 6 -3 7 1 4 9 -7 18 -14 21 -14 7z"/>
<path d="M5239 8173 c-5 -16 -11 -33 -14 -39 -4 -14 14 -34 32 -34 7 0 20 11
29 25 15 23 15 27 0 50 -21 32 -34 32 -47 -2z"/>
<path d="M3695 8136 c1 -11 7 -22 14 -24 9 -3 11 3 7 19 -6 21 -5 21 9 -3 21
-37 30 -36 11 0 -17 33 -43 38 -41 8z"/>
<path d="M3892 8152 c-6 -2 -15 -21 -18 -43 -4 -21 -11 -36 -16 -33 -6 4 -5
-3 1 -15 13 -24 23 -28 15 -6 -5 11 -2 13 10 9 9 -3 16 -10 16 -15 0 -6 9 -1
21 10 11 10 20 30 19 43 -4 46 -1 53 15 32 8 -10 15 -14 15 -7 0 22 -44 37
-78 25z m3 -47 c-8 -22 -14 -32 -15 -23 0 20 19 72 25 67 2 -3 -2 -23 -10 -44z"/>
<path d="M4712 8114 c-27 -59 -5 -96 32 -55 19 21 15 51 -8 70 -10 8 -16 5
-24 -15z"/>
<path d="M4240 8084 c-13 -40 -3 -61 25 -51 23 9 29 35 15 63 -18 33 -26 30
-40 -12z"/>
<path d="M5884 8069 c-3 -6 -1 -16 5 -22 8 -8 11 -5 11 11 0 24 -5 28 -16 11z"/>
<path d="M4007 8004 c-18 -37 -15 -54 7 -54 24 0 38 28 31 60 -9 39 -17 38
-38 -6z"/>
<path d="M5025 8000 c-26 -50 -17 -88 18 -74 26 10 36 47 21 77 -8 15 -17 27
-19 27 -2 0 -11 -13 -20 -30z"/>
<path d="M3747 8007 c-3 -8 -2 -19 3 -26 5 -9 9 -7 13 8 6 23 -8 39 -16 18z"/>
<path d="M4382 7965 c-21 -46 -11 -72 22 -59 21 8 29 39 16 64 -14 27 -24 25
-38 -5z"/>
<path d="M3792 7950 c-29 -27 -29 -71 1 -96 12 -10 16 -12 10 -4 -10 11 -9 17
4 32 13 14 14 23 5 42 -7 17 -7 27 1 35 20 20 2 12 -21 -9z"/>
<path d="M4129 7883 c-17 -46 12 -73 41 -38 11 13 11 20 0 40 -17 32 -28 32
-41 -2z"/>
<path d="M5142 7865 c-19 -41 -15 -75 7 -75 22 0 51 25 51 43 -1 12 -34 57
-42 57 -3 0 -10 -11 -16 -25z"/>
<path d="M3902 7798 c-10 -37 -7 -48 12 -48 26 0 40 28 28 55 -16 34 -30 31
-40 -7z"/>
<path d="M4270 7800 c0 -3 -6 -26 -14 -51 -14 -44 -13 -45 8 -43 11 1 26 3 33
3 17 1 10 59 -10 78 -9 10 -17 15 -17 13z"/>
<path d="M5424 7742 c3 -6 -2 -15 -11 -21 -16 -9 -16 -10 -2 -11 20 0 33 27
17 36 -6 4 -8 3 -4 -4z"/>
<path d="M4011 7672 c-24 -45 -2 -94 26 -57 17 24 16 36 -1 60 -13 18 -14 18
-25 -3z"/>
<path d="M5095 7680 c-3 -6 1 -7 9 -4 18 7 21 14 7 14 -6 0 -13 -4 -16 -10z"/>
<path d="M4120 7559 c0 -5 -3 -8 -7 -6 -13 8 -9 -51 4 -64 15 -15 43 5 43 30
-1 28 -40 68 -40 40z"/>
<path d="M4242 7461 c-10 -9 -19 -31 -20 -48 -3 -27 0 -33 16 -33 10 0 26 8
35 18 13 15 14 19 1 36 -8 11 -14 25 -14 30 0 6 5 3 11 -7 11 -19 31 -14 23 7
-7 17 -31 16 -52 -3z"/>
<path d="M3980 7366 c-13 -36 -6 -59 17 -54 23 4 28 38 9 63 -14 19 -15 19
-26 -9z"/>
<path d="M4100 7239 c-11 -25 -11 -33 2 -45 13 -13 17 -12 33 6 15 17 16 24 7
45 -15 33 -27 32 -42 -6z"/>
<path d="M2383 7433 c9 -2 25 -2 35 0 9 3 1 5 -18 5 -19 0 -27 -2 -17 -5z"/>
<path d="M2298 7423 c7 -3 16 -2 19 1 4 3 -2 6 -13 5 -11 0 -14 -3 -6 -6z"/>
<path d="M2195 7405 c-53 -17 -34 -18 35 0 30 7 44 13 30 13 -14 0 -43 -5 -65
-13z"/>
<path d="M3148 7413 c6 -2 18 -2 25 0 6 3 1 5 -13 5 -14 0 -19 -2 -12 -5z"/>
<path d="M3198 7403 c7 -3 16 -2 19 1 4 3 -2 6 -13 5 -11 0 -14 -3 -6 -6z"/>
<path d="M2030 7350 c-8 -5 -10 -10 -5 -10 6 0 17 5 25 10 8 5 11 10 5 10 -5
0 -17 -5 -25 -10z"/>
<path d="M3390 7350 c8 -5 20 -10 25 -10 6 0 3 5 -5 10 -8 5 -19 10 -25 10 -5
0 -3 -5 5 -10z"/>
<path d="M3440 7330 c8 -5 20 -10 25 -10 6 0 3 5 -5 10 -8 5 -19 10 -25 10 -5
0 -3 -5 5 -10z"/>
<path d="M1955 7313 c-41 -22 -76 -50 -93 -75 -8 -11 10 -1 40 23 30 24 63 49
74 56 28 17 14 15 -21 -4z"/>
<path d="M3481 7316 c2 -2 15 -9 29 -15 24 -11 24 -11 6 3 -16 13 -49 24 -35
12z"/>
<path d="M3590 7256 c0 -2 8 -10 18 -17 15 -13 16 -12 3 4 -13 16 -21 21 -21
13z"/>
<path d="M3787 8303 c-12 -12 -7 -19 14 -20 17 -2 18 1 9 13 -14 16 -14 16
-23 7z"/>
<path d="M2395 4360 c-11 -5 -32 -9 -47 -9 -22 -1 -25 -4 -20 -23 5 -19 7 -20
10 -5 2 9 8 17 13 17 5 0 8 -5 7 -12 -4 -16 26 -21 68 -13 28 5 34 10 34 30 0
19 -5 25 -22 24 -13 0 -32 -4 -43 -9z m-5 -20 c0 -5 -5 -10 -11 -10 -5 0 -7 5
-4 10 3 6 8 10 11 10 2 0 4 -4 4 -10z m30 -6 c0 -8 -4 -12 -10 -9 -5 3 -10 10
-10 16 0 5 5 9 10 9 6 0 10 -7 10 -16z"/>
<path d="M2250 4330 c-10 -6 -11 -10 -2 -10 6 0 12 -9 12 -20 0 -11 7 -20 15
-20 18 0 20 16 3 23 -9 3 -7 10 7 21 l20 15 -20 1 c-11 0 -27 -5 -35 -10z"/>
<path d="M2215 4320 c3 -5 8 -10 11 -10 2 0 4 5 4 10 0 6 -5 10 -11 10 -5 0
-7 -4 -4 -10z"/>
<path d="M2150 4308 c0 -10 9 -9 35 2 17 8 16 8 -7 7 -16 -1 -28 -5 -28 -9z"/>
<path d="M2025 4289 c-22 -4 -56 -10 -75 -14 -19 -4 -55 -11 -80 -15 -25 -4
-37 -8 -27 -9 11 -1 17 -9 17 -26 0 -17 4 -23 14 -19 8 3 13 13 11 22 -1 9 0
12 2 5 5 -15 32 -25 45 -17 6 4 5 10 -3 15 -7 4 -10 11 -5 16 4 4 12 0 17 -10
6 -9 17 -17 26 -17 13 0 13 3 3 15 -7 9 -10 18 -6 22 3 4 12 -1 19 -10 8 -11
21 -14 39 -10 15 3 26 9 23 13 -2 4 6 6 19 5 17 -2 26 3 30 18 6 25 -2 37 -13
18 -5 -7 -10 -9 -12 -4 -2 4 -22 5 -44 2z m0 -29 c3 -5 1 -10 -4 -10 -6 0 -11
5 -11 10 0 6 2 10 4 10 3 0 8 -4 11 -10z"/>
<path d="M2155 4280 c3 -5 8 -10 11 -10 2 0 4 5 4 10 0 6 -5 10 -11 10 -5 0
-7 -4 -4 -10z"/>
<path d="M1725 4232 c-11 -8 -13 -47 -3 -57 3 -3 8 10 10 29 2 20 4 36 3 36 0
0 -4 -4 -10 -8z"/>
<path d="M1760 4216 c5 -13 6 -27 2 -32 -4 -4 1 -4 11 -1 10 4 25 7 33 7 8 0
14 5 14 11 0 6 -9 8 -20 4 -11 -4 -20 -2 -20 4 0 6 5 11 12 11 17 0 0 13 -22
17 -17 2 -18 -1 -10 -21z"/>
<path d="M504 3869 c-3 -5 -2 -13 1 -19 3 -5 -2 -10 -11 -10 -13 0 -15 -3 -7
-11 12 -12 49 6 57 27 5 14 -31 26 -40 13z"/>
<path d="M1185 2704 c-59 -40 -42 -44 35 -8 42 19 51 27 40 34 -20 13 -17 13
-75 -26z"/>
<path d="M740 2510 c-8 -5 -10 -10 -5 -10 6 0 17 5 25 10 8 5 11 10 5 10 -5 0
-17 -5 -25 -10z"/>
<path d="M197 2468 c2 -5 -1 -8 -7 -8 -6 0 -8 -4 -5 -10 3 -5 -2 -10 -12 -11
-13 0 -14 -2 -4 -6 8 -3 20 2 27 12 7 10 19 15 27 12 7 -3 14 0 14 6 0 7 -10
12 -23 12 -12 0 -20 -3 -17 -7z"/>
<path d="M623 2460 c-13 -5 -23 -12 -23 -15 0 -9 16 -5 36 10 22 16 19 18 -13
5z"/>
<path d="M150 815 c0 -8 5 -15 10 -15 6 0 10 7 10 15 0 8 -4 15 -10 15 -5 0
-10 -7 -10 -15z"/>
<path d="M1185 2430 c-22 -22 -45 -38 -53 -35 -7 2 -10 0 -7 -5 3 -6 1 -10 -6
-10 -7 0 -10 -3 -7 -6 8 -7 148 65 148 76 0 6 -23 20 -34 20 -1 0 -20 -18 -41
-40z"/>
<path d="M995 2327 c-16 -12 -31 -21 -32 -20 -2 2 -18 -6 -35 -17 -36 -22 -33
-26 7 -8 14 6 25 15 25 20 0 4 3 7 8 7 16 -3 28 2 52 21 35 27 12 25 -25 -3z"/>
<path d="M905 2300 c-3 -6 1 -7 9 -4 18 7 21 14 7 14 -6 0 -13 -4 -16 -10z"/>
<path d="M845 2266 c-26 -8 -34 -15 -25 -19 11 -4 10 -6 -5 -7 -54 -6 -96 -21
-88 -33 4 -6 -2 -8 -15 -5 -12 4 -20 2 -16 -3 5 -9 -8 -13 -36 -10 -9 1 -25
-8 -37 -19 -12 -11 -27 -20 -33 -20 -5 0 -10 -5 -10 -11 0 -5 -4 -8 -9 -5 -5
3 -14 0 -20 -7 -8 -11 -6 -13 12 -11 12 1 26 3 30 3 5 1 5 5 2 11 -3 5 0 7 8
4 16 -6 287 123 287 137 0 5 -1 9 -2 8 -2 -1 -21 -7 -43 -13z m-60 -46 c-3 -5
-14 -10 -23 -10 -15 0 -15 2 -2 10 20 13 33 13 25 0z"/>
<path d="M288 1983 c7 -3 16 -2 19 1 4 3 -2 6 -13 5 -11 0 -14 -3 -6 -6z"/>
<path d="M1435 2360 c3 -5 8 -10 11 -10 2 0 4 5 4 10 0 6 -5 10 -11 10 -5 0
-7 -4 -4 -10z"/>
<path d="M1206 2081 c-16 -16 -34 -27 -42 -24 -8 3 -17 -2 -20 -11 -3 -9 -11
-13 -18 -10 -6 4 -3 -1 6 -11 16 -17 19 -16 70 15 29 19 55 35 57 37 3 2 -2
10 -10 18 -13 14 -18 12 -43 -14z m-36 -35 c0 -3 -4 -8 -10 -11 -5 -3 -10 -1
-10 4 0 6 5 11 10 11 6 0 10 -2 10 -4z"/>
<path d="M1417 2069 c7 -7 15 -10 18 -7 3 3 -2 9 -12 12 -14 6 -15 5 -6 -5z"/>
<path d="M812 2041 c-11 -7 -10 -10 3 -15 23 -9 25 -8 25 9 0 17 -9 19 -28 6z"/>
<path d="M1094 2005 c-4 -8 -10 -12 -15 -9 -5 3 -9 0 -9 -6 0 -6 -5 -8 -12 -3
-21 13 -56 14 -64 2 -4 -8 0 -9 15 -4 12 4 21 2 21 -4 0 -6 -6 -11 -14 -11
-21 0 -127 -56 -119 -63 3 -4 -10 -7 -31 -7 -20 0 -35 -3 -33 -7 3 -5 -17 -8
-43 -9 -50 0 -130 -29 -130 -47 0 -5 -7 -7 -15 -3 -8 3 -15 1 -15 -4 0 -6 -6
-10 -14 -10 -8 0 -18 -5 -22 -12 -5 -8 -2 -9 10 -5 10 4 30 9 44 12 23 5 24 4
7 -4 -25 -11 -92 -81 -79 -82 5 -1 -2 -4 -16 -9 -21 -6 -22 -8 -8 -15 21 -8
82 21 328 160 41 23 100 55 130 72 96 53 120 68 120 76 0 13 -31 7 -36 -8z
m-294 -135 c0 -5 -7 -10 -15 -10 -8 0 -15 5 -15 10 0 6 7 10 15 10 8 0 15 -4
15 -10z"/>
<path d="M688 1981 c-16 -10 -25 -21 -20 -26 4 -4 -1 -5 -11 -2 -12 5 -16 3
-11 -5 5 -8 2 -9 -11 -4 -16 6 -16 4 -4 -10 13 -16 12 -16 -11 -4 -24 13 -25
12 -7 -7 9 -11 17 -27 17 -36 0 -18 18 -32 28 -22 3 3 0 10 -8 15 -8 5 -11 13
-6 17 5 4 11 2 13 -4 6 -18 30 -16 37 2 3 8 16 15 28 15 18 0 20 2 9 9 -8 5
-16 23 -17 40 -2 24 2 31 19 34 20 4 20 4 2 5 -11 0 -32 -7 -47 -17z m-6 -38
c-6 -3 -10 -9 -7 -13 3 -5 13 -6 22 -3 11 4 14 3 9 -5 -9 -14 -26 -15 -46 -2
-13 8 -12 11 5 24 11 8 22 12 25 9 3 -3 -1 -8 -8 -10z"/>
<path d="M865 1920 c-3 -5 -1 -10 4 -10 6 0 11 5 11 10 0 6 -2 10 -4 10 -3 0
-8 -4 -11 -10z"/>
<path d="M526 1895 c-16 -12 -17 -15 -4 -15 9 0 18 7 22 15 7 18 6 18 -18 0z"/>
<path d="M300 1780 c-9 -6 -10 -10 -3 -10 6 0 15 5 18 10 8 12 4 12 -15 0z"/>
<path d="M1406 1995 c-17 -13 -18 -15 -2 -21 9 -4 20 -4 23 0 4 3 1 6 -7 6
-10 0 -10 3 0 15 16 19 11 19 -14 0z"/>
<path d="M1377 1959 c7 -7 15 -10 18 -7 3 3 -2 9 -12 12 -14 6 -15 5 -6 -5z"/>
<path d="M1415 1930 c-3 -6 1 -7 9 -4 18 7 21 14 7 14 -6 0 -13 -4 -16 -10z"/>
<path d="M1197 1876 c-15 -12 -15 -14 -2 -19 8 -4 14 -1 12 6 -1 7 4 11 11 9
8 -1 11 2 7 8 -8 12 -6 12 -28 -4z"/>
<path d="M1248 1878 c10 -13 10 -17 0 -21 -9 -4 -9 -6 -1 -6 20 -2 24 16 5 30
-15 13 -16 12 -4 -3z"/>
<path d="M1041 1786 c-9 -11 -9 -16 1 -22 7 -4 10 -4 6 1 -4 4 -3 14 3 22 6 7
9 13 6 13 -2 0 -10 -6 -16 -14z"/>
<path d="M1160 1739 c0 -5 5 -7 10 -4 6 3 10 8 10 11 0 2 -4 4 -10 4 -5 0 -10
-5 -10 -11z"/>
<path d="M950 1730 c-18 -12 -2 -12 25 0 13 6 15 9 5 9 -8 0 -22 -4 -30 -9z"/>
<path d="M1210 1723 c0 -6 -4 -15 -10 -18 -6 -4 -7 1 -3 11 5 14 3 15 -16 5
-12 -7 -25 -19 -28 -27 -3 -8 -16 -14 -30 -14 -13 0 -22 -4 -18 -9 3 -6 -4
-15 -16 -22 -19 -9 -21 -9 -16 4 6 16 -29 32 -38 16 -3 -5 -21 -16 -40 -25
-19 -9 -35 -20 -35 -25 0 -5 -7 -6 -15 -3 -8 4 -15 1 -15 -5 0 -6 -9 -11 -19
-11 -11 0 -23 -4 -26 -10 -12 -19 -25 -10 -21 15 5 27 -3 32 -22 13 -10 -10
-16 -9 -28 4 -11 11 -13 18 -5 23 6 3 10 1 9 -6 -2 -6 3 -14 11 -17 8 -2 11 0
7 6 -12 19 15 24 34 7 23 -21 40 -12 40 20 0 12 7 26 16 29 24 9 26 8 15 -13
-12 -22 -3 -35 15 -20 10 8 11 16 4 30 -8 15 -7 17 5 13 8 -4 15 -1 15 5 0 26
-77 -6 -85 -36 -3 -13 -10 -23 -16 -23 -6 0 -8 4 -5 9 3 4 -9 8 -27 7 -35 -2
-87 -24 -87 -38 0 -4 -8 -8 -17 -8 -28 -1 -54 -25 -42 -37 8 -8 7 -13 -1 -18
-6 -4 -17 -2 -23 4 -9 9 -7 11 8 6 15 -5 17 -5 6 3 -10 7 -21 7 -34 0 -16 -8
-17 -12 -6 -20 11 -8 10 -9 -3 -4 -21 6 -48 -2 -48 -16 0 -5 6 -6 13 -3 6 4 3
-1 -8 -10 -14 -12 -16 -19 -7 -22 6 -3 12 -17 12 -31 -1 -20 -12 -36 -46 -60
-25 -19 -43 -36 -40 -40 3 -3 14 2 23 10 19 16 73 33 73 22 0 -18 -24 -83 -29
-80 -3 2 -12 -3 -20 -11 -35 -38 74 17 229 116 42 26 150 92 240 146 209 126
234 144 219 161 -13 16 -49 14 -49 -3z m-161 -74 c-12 -8 -11 -11 1 -19 9 -6
10 -10 3 -10 -6 0 -14 4 -17 9 -9 14 5 42 16 35 6 -4 5 -10 -3 -15z m95 -11
c-9 -14 -23 2 -17 18 4 12 8 13 14 3 4 -7 5 -17 3 -21z m-134 -18 c0 -5 -4
-10 -10 -10 -5 0 -10 5 -10 10 0 6 5 10 10 10 6 0 10 -4 10 -10z"/>
<path d="M1130 1714 c0 -8 -4 -13 -9 -9 -5 3 -12 1 -16 -5 -3 -5 3 -10 14 -10
12 0 21 2 21 4 0 2 3 11 6 20 3 9 1 16 -5 16 -6 0 -11 -7 -11 -16z"/>
<path d="M888 1702 c-28 -17 -36 -32 -18 -32 6 0 10 4 10 10 0 5 12 16 28 24
15 8 23 15 17 15 -5 0 -22 -7 -37 -17z"/>
<path d="M445 1440 c-3 -6 1 -7 9 -4 18 7 21 14 7 14 -6 0 -13 -4 -16 -10z"/>
<path d="M402 1403 c-7 -10 -10 -12 -7 -5 3 6 1 12 -4 12 -6 0 -11 -5 -11 -11
0 -5 -6 -7 -12 -3 -7 4 -9 3 -5 -1 18 -21 67 -9 67 16 0 15 -14 10 -28 -8z"/>
<path d="M407 1889 c7 -7 15 -10 18 -7 3 3 -2 9 -12 12 -14 6 -15 5 -6 -5z"/>
<path d="M480 1055 c-7 -9 -10 -18 -6 -22 3 -3 6 -1 6 6 0 7 4 10 8 7 5 -3 9
1 9 9 0 19 -2 19 -17 0z"/>
<path d="M485 1014 c-23 -23 -7 -38 18 -17 12 10 23 18 25 19 2 1 -4 4 -12 7
-9 4 -22 -1 -31 -9z"/>
<path d="M4701 157 c19 -13 38 -22 42 -20 5 3 -8 13 -27 24 -49 26 -56 24 -15
-4z"/>
<path d="M2195 9990 c-3 -5 -2 -10 4 -10 5 0 13 5 16 10 3 6 2 10 -4 10 -5 0
-13 -4 -16 -10z"/>
<path d="M2533 9945 c-39 -30 -74 -59 -78 -65 -6 -9 84 47 95 60 17 19 68 44
88 41 12 -1 22 2 22 8 0 28 -59 8 -127 -44z"/>
<path d="M2613 9965 c0 -8 4 -12 9 -9 5 3 6 10 3 15 -9 13 -12 11 -12 -6z"/>
<path d="M2409 9847 c-14 -12 -45 -39 -70 -59 -24 -21 -38 -38 -32 -38 13 0
35 16 102 77 40 35 40 53 0 20z"/>
<path d="M2249 9718 c0 -2 -2 -11 -4 -21 -3 -18 -3 -18 16 -1 10 9 19 19 19
21 0 3 -30 4 -31 1z"/>
<path d="M2160 9695 c-10 -12 -10 -15 4 -15 9 0 16 7 16 15 0 8 -2 15 -4 15
-2 0 -9 -7 -16 -15z"/>
<path d="M5870 7249 c0 -5 5 -7 10 -4 6 3 10 8 10 11 0 2 -4 4 -10 4 -5 0 -10
-5 -10 -11z"/>
<path d="M5590 7189 c0 -5 5 -7 10 -4 6 3 10 8 10 11 0 2 -4 4 -10 4 -5 0 -10
-5 -10 -11z"/>
<path d="M5855 7170 c3 -5 13 -10 21 -10 8 0 12 5 9 10 -3 6 -13 10 -21 10 -8
0 -12 -4 -9 -10z"/>
<path d="M5751 7154 c0 -11 3 -14 6 -6 3 7 2 16 -1 19 -3 4 -6 -2 -5 -13z"/>
<path d="M5840 7015 c0 -9 5 -15 11 -13 6 2 11 8 11 13 0 5 -5 11 -11 13 -6 2
-11 -4 -11 -13z"/>
<path d="M5768 6373 c7 -3 16 -2 19 1 4 3 -2 6 -13 5 -11 0 -14 -3 -6 -6z"/>
<path d="M5708 6363 c7 -3 16 -2 19 1 4 3 -2 6 -13 5 -11 0 -14 -3 -6 -6z"/>
<path d="M5638 6353 c7 -3 16 -2 19 1 4 3 -2 6 -13 5 -11 0 -14 -3 -6 -6z"/>
<path d="M2348 6263 c7 -3 16 -2 19 1 4 3 -2 6 -13 5 -11 0 -14 -3 -6 -6z"/>
<path d="M58 5171 c-3 -853 -1 -981 12 -983 10 -2 880 130 998 152 1 0 2 379
2 843 l0 842 -48 3 c-50 2 -888 108 -934 118 l-28 6 -2 -981z m755 612 c-7 -2
-21 -2 -30 0 -10 3 -4 5 12 5 17 0 24 -2 18 -5z m50 -250 c-23 -2 -64 -2 -90
0 -26 2 -7 3 42 3 50 0 71 -1 48 -3z m94 -9 c-3 -3 -12 -4 -19 -1 -8 3 -5 6 6
6 11 1 17 -2 13 -5z m-149 -71 c-16 -2 -40 -2 -55 0 -16 2 -3 4 27 4 30 0 43
-2 28 -4z m130 -10 c-16 -2 -40 -2 -55 0 -16 2 -3 4 27 4 30 0 43 -2 28 -4z
m-25 -80 c-29 -2 -78 -2 -110 0 -32 2 -8 3 52 3 61 0 87 -1 58 -3z m-10 -80
c-35 -2 -91 -2 -125 0 -35 2 -7 3 62 3 69 0 97 -1 63 -3z m37 -83 c10 -7 -24
-9 -110 -8 -80 1 -109 3 -80 7 78 11 174 12 190 1z m-37 -87 c-34 -2 -93 -2
-130 0 -37 2 -9 3 62 3 72 0 102 -1 68 -3z m12 -83 c-72 -12 -135 -12 -135 0
0 6 37 9 93 9 82 -2 87 -2 42 -9z m-157 -7 c-10 -2 -26 -2 -35 0 -10 3 -2 5
17 5 19 0 27 -2 18 -5z m177 -73 c-16 -4 -91 -10 -165 -12 -74 -3 -126 -3
-115 -1 98 18 341 30 280 13z m25 -79 c0 -11 -81 -20 -189 -21 -105 0 -99 10
11 20 123 11 178 11 178 1z m-330 -21 c-8 -5 -35 -9 -60 -8 l-45 1 50 7 c28 4
55 7 60 8 6 1 3 -3 -5 -8z m334 -61 c-3 -5 -23 -14 -46 -21 l-41 -12 34 -12
c34 -11 34 -11 -31 -17 -243 -23 -449 -31 -296 -12 31 4 56 11 56 16 0 4 20 7
46 5 25 -1 47 1 50 6 3 4 -54 8 -127 8 -73 0 -130 2 -128 4 3 4 217 29 334 39
70 7 154 4 149 -4z m-411 -56 c-7 -2 -19 -2 -25 0 -7 3 -2 5 12 5 14 0 19 -2
13 -5z m417 -30 c0 -6 -9 -15 -20 -18 -11 -3 -20 -11 -20 -17 0 -6 9 -8 20 -5
11 3 20 1 20 -4 0 -5 -17 -10 -37 -11 l-38 -1 39 -4 c34 -4 38 -7 33 -29 -2
-13 1 -24 6 -24 7 0 7 -3 2 -9 -6 -5 -41 -14 -80 -19 -64 -10 -65 -10 -20 -10
94 1 95 1 95 -31 0 -24 -5 -30 -32 -37 l-33 -8 33 -3 c28 -4 32 -8 32 -33 0
-26 -4 -30 -37 -36 l-38 -7 40 -11 39 -11 -26 -21 c-24 -18 -149 -46 -278 -60
-19 -3 -62 -9 -95 -14 -33 -5 -68 -7 -79 -4 -13 4 -16 3 -11 -6 5 -8 4 -11 -3
-6 -6 3 -62 1 -123 -6 -85 -9 -113 -10 -116 -1 -3 7 -11 9 -19 6 -8 -3 -14 0
-14 6 0 6 2 11 4 11 2 0 40 7 85 15 45 9 86 13 91 10 5 -3 11 -1 14 4 3 5 22
12 42 16 76 14 21 15 -97 1 -154 -17 -273 -21 -265 -8 8 14 58 25 65 14 3 -4
17 -5 31 -1 l25 7 -25 1 c-23 2 -22 3 10 17 39 17 110 32 185 40 59 6 129 23
122 30 -3 3 -69 -3 -147 -12 -138 -17 -142 -17 -178 2 l-36 19 35 3 c18 1 41
6 49 9 8 3 21 5 28 4 8 -1 19 2 25 7 17 13 58 22 51 11 -3 -5 2 -9 11 -9 9 0
13 5 10 10 -4 6 5 10 19 10 14 0 26 3 26 8 0 4 12 8 28 9 15 2 72 9 127 17
113 16 60 21 -65 6 -41 -5 -120 -6 -175 -2 -73 5 -89 8 -60 12 23 3 39 10 38
17 -3 12 3 13 117 33 36 6 88 15 115 20 l50 9 -48 -2 c-40 -2 -45 0 -31 10 14
10 11 11 -20 8 -20 -3 -52 -7 -71 -9 -34 -5 -48 6 -22 18 10 5 10 7 0 12 -30
14 -9 24 50 24 34 0 91 5 127 10 92 14 151 21 260 29 126 10 160 8 160 -6z
m-705 -153 c3 -5 -1 -10 -10 -10 -9 0 -13 5 -10 10 3 6 8 10 10 10 2 0 7 -4
10 -10z m63 -47 c-15 -2 -42 -2 -60 0 -18 2 -6 4 27 4 33 0 48 -2 33 -4z
m-228 -97 c0 -2 -7 -6 -15 -10 -8 -3 -15 -1 -15 4 0 6 7 10 15 10 8 0 15 -2
15 -4z m57 -12 c-3 -3 -12 -4 -19 -1 -8 3 -5 6 6 6 11 1 17 -2 13 -5z"/>
<path d="M570 4610 c0 -11 14 -11 50 0 22 7 21 8 -12 9 -21 1 -38 -3 -38 -9z"/>
<path d="M738 4543 c12 -2 32 -2 45 0 12 2 2 4 -23 4 -25 0 -35 -2 -22 -4z"/>
<path d="M663 4533 c9 -2 25 -2 35 0 9 3 1 5 -18 5 -19 0 -27 -2 -17 -5z"/>
<path d="M2241 6094 c0 -11 3 -14 6 -6 3 7 2 16 -1 19 -3 4 -6 -2 -5 -13z"/>
<path d="M2080 5950 c0 -5 6 -10 14 -10 8 0 18 5 21 10 3 6 -3 10 -14 10 -12
0 -21 -4 -21 -10z"/>
<path d="M2080 5920 c0 -5 5 -10 11 -10 5 0 7 5 4 10 -3 6 -8 10 -11 10 -2 0
-4 -4 -4 -10z"/>
<path d="M2073 5893 c9 -2 25 -2 35 0 9 3 1 5 -18 5 -19 0 -27 -2 -17 -5z"/>
<path d="M5540 5890 c-23 -6 -23 -7 -5 -13 11 -4 24 -6 30 -6 5 0 12 -8 16
-18 6 -13 8 -10 8 13 1 32 -5 35 -49 24z"/>
<path d="M2118 5853 c7 -3 16 -2 19 1 4 3 -2 6 -13 5 -11 0 -14 -3 -6 -6z"/>
<path d="M2043 5843 c9 -2 23 -2 30 0 6 3 -1 5 -18 5 -16 0 -22 -2 -12 -5z"/>
<path d="M4552 5759 c-28 -44 -1 -97 32 -63 12 11 13 21 4 44 -13 39 -21 43
-36 19z"/>
<path d="M5292 5685 c-16 -34 -15 -50 2 -64 18 -15 56 2 56 25 0 17 -29 64
-40 64 -4 0 -12 -11 -18 -25z"/>
<path d="M4856 5642 c-23 -45 13 -85 44 -47 10 12 10 21 0 45 -15 37 -25 38
-44 2z"/>
<path d="M4012 5623 c-25 -46 -6 -91 26 -59 14 14 14 19 0 48 -15 32 -15 32
-26 11z"/>
<path d="M4322 5615 c-7 -14 -12 -32 -12 -39 0 -16 27 -29 41 -20 13 8 11 47
-4 68 -12 17 -14 16 -25 -9z"/>
<path d="M3654 5595 c-8 -31 1 -55 20 -55 20 0 27 26 14 55 -14 32 -26 32 -34
0z"/>
<path d="M3212 5555 c-15 -34 1 -63 24 -44 17 14 18 30 1 53 -12 16 -14 16
-25 -9z"/>
<path d="M3429 5547 c-13 -29 -5 -61 14 -55 15 6 22 57 8 71 -7 7 -14 2 -22
-16z"/>
<path d="M5270 5533 c-48 -42 -79 -101 -80 -154 0 -19 12 -60 28 -90 22 -45
36 -58 79 -79 44 -21 52 -29 52 -53 1 -29 -3 -32 -61 -42 -21 -3 -38 -10 -38
-15 0 -6 71 -10 175 -10 l175 0 0 144 c0 80 -4 156 -10 171 -5 14 -12 37 -14
51 -6 30 -33 75 -44 72 -4 -1 -28 6 -54 16 -33 13 -63 17 -98 14 -27 -3 -50
-1 -50 3 0 17 -17 9 -60 -28z m144 -15 c-4 -7 24 -13 48 -10 3 1 9 -5 12 -13
6 -17 -34 -31 -61 -21 -10 4 -14 4 -11 0 14 -13 -13 -44 -45 -52 -28 -8 -30
-10 -12 -18 22 -9 71 -64 68 -76 -5 -14 6 -9 26 14 11 11 18 25 14 31 -3 5 5
3 18 -4 21 -11 22 -10 12 3 -10 12 -10 15 1 15 16 0 12 -40 -4 -45 -5 -2 -10
-13 -10 -25 0 -32 -15 -51 -34 -44 -9 4 -16 3 -16 -2 0 -10 -56 -24 -90 -22
-44 3 -50 4 -50 13 0 5 -5 6 -10 3 -6 -4 -9 -1 -8 7 2 7 -2 12 -9 11 -6 -1
-14 4 -17 13 -3 8 -2 12 4 9 6 -3 10 1 10 9 0 8 -10 18 -21 21 -19 6 -21 13
-17 60 6 75 42 121 92 119 20 -1 38 1 40 5 2 3 20 6 40 7 19 0 33 -3 30 -8z
m6 -148 c0 -5 -4 -10 -10 -10 -5 0 -10 5 -10 10 0 6 5 10 10 10 6 0 10 -4 10
-10z m3 -157 c-13 -2 -35 -2 -50 0 -16 2 -5 4 22 4 28 0 40 -2 28 -4z m88 -40
c13 -16 12 -17 -3 -4 -10 7 -18 15 -18 17 0 8 8 3 21 -13z m-21 -47 c0 -2 -11
-1 -25 2 -19 3 -25 11 -25 30 l0 25 25 -27 c14 -15 25 -28 25 -30z"/>
<path d="M5430 5490 c0 -5 5 -10 11 -10 5 0 7 5 4 10 -3 6 -8 10 -11 10 -2 0
-4 -4 -4 -10z"/>
<path d="M5286 5401 c-3 -5 6 -8 20 -8 19 0 22 2 13 8 -18 11 -26 11 -33 0z"/>
<path d="M5258 5364 c-38 -20 -36 -28 2 -9 17 9 30 18 30 20 0 7 -1 6 -32 -11z"/>
<path d="M4551 5492 c-6 -11 -11 -30 -11 -42 0 -16 5 -21 23 -18 27 4 34 35
14 62 -14 19 -15 19 -26 -2z"/>
<path d="M5076 5487 c-24 -35 -17 -62 14 -62 19 0 26 6 28 25 2 14 -3 34 -11
44 -14 19 -15 19 -31 -7z"/>
<path d="M4141 5452 c-15 -35 -8 -52 20 -52 23 0 26 36 6 64 -13 17 -14 16
-26 -12z"/>
<path d="M3821 5442 c-21 -49 0 -82 29 -47 11 13 11 22 -2 47 l-14 31 -13 -31z"/>
<path d="M2845 5440 c3 -5 8 -10 11 -10 2 0 4 5 4 10 0 6 -5 10 -11 10 -5 0
-7 -4 -4 -10z"/>
<path d="M3592 5433 c-23 -42 -5 -81 23 -52 11 11 11 20 1 44 -12 30 -13 30
-24 8z"/>
<path d="M2875 5407 c-8 -42 -3 -52 20 -44 19 8 19 37 1 62 -13 19 -15 17 -21
-18z"/>
<path d="M2917 5423 c3 -7 6 -13 8 -13 2 0 5 6 8 13 3 8 -1 14 -8 14 -7 0 -11
-6 -8 -14z"/>
<path d="M3095 5418 c-9 -36 0 -59 20 -52 19 8 19 34 1 60 -14 18 -15 18 -21
-8z"/>
<path d="M3332 5375 c-6 -13 -9 -32 -6 -40 8 -21 34 -19 35 3 4 51 -13 73 -29
37z"/>
<path d="M3965 5340 c-7 -33 -1 -50 20 -50 19 0 26 27 13 55 -15 33 -25 32
-33 -5z"/>
<path d="M4391 5341 c-16 -36 -8 -64 16 -59 23 4 28 47 10 72 -13 17 -14 17
-26 -13z"/>
<path d="M4767 5343 c-19 -37 -13 -63 14 -63 28 0 34 26 17 63 l-15 32 -16
-32z"/>
<path d="M3186 5264 c-10 -27 -7 -54 8 -54 18 0 26 22 19 49 -6 25 -18 27 -27
5z"/>
<path d="M3741 5256 c-14 -35 2 -64 25 -45 18 15 18 30 0 55 -14 18 -15 18
-25 -10z"/>
<path d="M4230 5258 c-15 -33 -6 -61 17 -56 23 4 28 38 9 63 -14 19 -15 19
-26 -7z"/>
<path d="M2775 5237 c0 -22 5 -33 18 -35 12 -3 17 3 17 20 0 13 -4 28 -8 33
-15 21 -28 12 -27 -18z"/>
<path d="M3459 5237 c-9 -20 -9 -31 -2 -38 25 -25 44 18 24 50 -8 12 -12 10
-22 -12z"/>
<path d="M4956 5233 c-19 -38 -12 -65 18 -61 26 4 33 44 13 72 -14 19 -15 19
-31 -11z"/>
<path d="M4564 5215 c-8 -32 1 -55 21 -55 22 0 30 27 17 56 -15 31 -30 31 -38
-1z"/>
<path d="M3881 5196 c-14 -34 -8 -56 13 -56 24 0 28 16 12 52 l-14 33 -11 -29z"/>
<path d="M3056 5188 c-10 -38 -7 -48 14 -48 11 0 20 6 20 13 0 23 -12 57 -20
57 -4 0 -10 -10 -14 -22z"/>
<path d="M3020 5165 c0 -8 2 -15 4 -15 2 0 6 7 10 15 3 8 1 15 -4 15 -6 0 -10
-7 -10 -15z"/>
<path d="M1248 5012 c6 -88 12 -93 12 -9 0 36 -4 68 -8 71 -5 3 -7 -25 -4 -62z"/>
<path d="M2777 4959 c-10 -36 12 -65 28 -38 9 13 -3 59 -14 59 -5 0 -11 -9
-14 -21z"/>
<path d="M3166 4962 c-4 -12 -14 -22 -22 -22 -7 0 -19 -9 -26 -20 -7 -11 -21
-20 -30 -20 -10 0 -18 -6 -18 -14 0 -8 -6 -17 -12 -19 -7 -3 -1 -6 15 -6 15
-1 27 4 27 12 0 9 2 9 8 0 5 -7 39 -11 100 -10 51 0 89 3 85 6 -5 3 -13 20
-18 36 -9 25 -16 30 -43 29 -17 0 -32 2 -32 6 0 3 -6 15 -14 25 -13 18 -14 18
-20 -3z"/>
<path d="M2975 4928 c-12 -28 -20 -31 -16 -6 0 3 -13 3 -29 -2 -30 -9 -79 -40
-80 -52 0 -10 179 -7 186 3 3 5 2 9 -3 8 -18 -3 -47 3 -35 8 14 6 16 59 2 68
-6 4 -17 -9 -25 -27z"/>
<path d="M3370 4938 c-13 -28 -8 -58 10 -58 17 0 23 27 12 57 l-9 28 -13 -27z"/>
<path d="M3604 4924 c-8 -30 10 -54 27 -37 11 11 2 63 -12 63 -5 0 -12 -12
-15 -26z"/>
<path d="M3880 4920 c-11 -27 -11 -33 0 -40 19 -12 30 -3 30 23 0 42 -16 51
-30 17z"/>
<path d="M4180 4911 c-16 -39 -1 -63 25 -41 18 15 19 31 2 54 -13 17 -14 16
-27 -13z"/>
<path d="M5080 4911 c-14 -34 -7 -51 20 -51 27 0 34 17 20 51 -16 37 -24 37
-40 0z"/>
<path d="M5490 4910 c-15 -36 -7 -60 20 -60 11 0 23 7 26 15 7 17 -14 75 -26
75 -4 0 -13 -13 -20 -30z"/>
<path d="M4456 4914 c-12 -32 -6 -54 14 -54 13 0 20 7 20 19 0 25 -10 51 -20
51 -4 0 -11 -7 -14 -16z"/>
<path d="M4783 4907 c-12 -26 0 -57 21 -57 22 0 28 31 11 56 -19 29 -19 29
-32 1z"/>
<path d="M2830 4810 c0 -28 3 -30 38 -30 20 0 121 -3 225 -7 186 -6 187 -6
187 16 0 14 6 21 20 21 15 0 20 -7 20 -25 0 -24 3 -25 54 -25 48 0 53 2 52 22
0 11 5 23 13 26 10 3 13 -2 9 -22 -4 -20 -1 -26 12 -26 10 0 32 -3 49 -6 30
-6 31 -6 31 30 0 20 -5 36 -11 36 -5 0 -7 -4 -4 -10 3 -5 1 -10 -4 -10 -6 0
-11 4 -11 10 0 5 -35 9 -83 8 -46 -1 -87 1 -92 4 -9 4 -32 4 -84 -1 -11 -1
-11 -4 -1 -16 10 -13 9 -15 -9 -15 -14 0 -21 6 -21 20 0 25 -27 27 -33 3 -4
-17 -5 -17 -6 0 -1 21 -21 23 -21 1 0 -9 -6 -14 -12 -11 -7 2 -12 10 -10 16 1
6 -8 11 -20 12 -13 0 -62 2 -110 4 -63 3 -88 1 -88 -7 0 -9 -3 -9 -12 0 -7 7
-27 12 -45 12 -30 0 -33 -3 -33 -30z m280 -5 c0 -8 -4 -15 -10 -15 -5 0 -10 7
-10 15 0 8 5 15 10 15 6 0 10 -7 10 -15z"/>
<path d="M3750 4771 c-14 -27 -7 -51 15 -51 17 0 20 36 6 59 -7 11 -11 9 -21
-8z"/>
<path d="M4060 4761 c-14 -27 -7 -51 15 -51 17 0 20 36 6 59 -7 11 -11 9 -21
-8z"/>
<path d="M4222 4760 c0 -14 2 -19 5 -12 2 6 2 18 0 25 -3 6 -5 1 -5 -13z"/>
<path d="M2735 4749 c-8 -24 10 -48 25 -33 10 10 2 54 -10 54 -5 0 -12 -9 -15
-21z"/>
<path d="M2881 4731 c-15 -27 -8 -51 14 -51 16 0 19 22 6 55 -8 19 -8 19 -20
-4z"/>
<path d="M4619 4727 c-11 -23 -10 -30 3 -44 32 -31 52 14 24 52 -14 19 -15 19
-27 -8z"/>
<path d="M3135 4701 c-7 -34 5 -58 24 -47 15 10 14 38 -3 61 -13 18 -14 17
-21 -14z"/>
<path d="M4950 4701 c-6 -17 -9 -35 -5 -40 8 -14 42 -14 50 -1 5 8 -20 70 -29
70 -2 0 -9 -13 -16 -29z"/>
<path d="M5246 4715 c-3 -8 -1 -15 4 -15 6 0 10 7 10 15 0 8 -2 15 -4 15 -2 0
-6 -7 -10 -15z"/>
<path d="M5280 4715 c0 -8 7 -15 15 -15 9 0 12 6 9 15 -4 8 -10 15 -15 15 -5
0 -9 -7 -9 -15z"/>
<path d="M3480 4676 c-8 -23 -8 -32 3 -43 12 -12 16 -12 26 1 10 12 9 20 -3
43 l-14 28 -12 -29z"/>
<path d="M3643 4663 c-9 -25 -9 -34 1 -43 23 -18 36 10 22 45 l-12 30 -11 -32z"/>
<path d="M2994 4655 c-3 -14 -4 -31 -1 -37 3 -10 -14 -13 -72 -11 -128 3 -13
-14 179 -26 238 -15 448 -22 350 -12 -87 10 -181 17 -333 27 -78 5 -105 10
-98 18 11 13 3 66 -10 66 -5 0 -11 -11 -15 -25z"/>
<path d="M3315 4651 c-7 -34 5 -58 24 -47 15 10 14 38 -3 61 -13 18 -14 17
-21 -14z"/>
<path d="M3894 4624 c-8 -30 10 -54 27 -37 13 13 4 63 -11 63 -5 0 -13 -12
-16 -26z"/>
<path d="M4466 4584 c-8 -30 5 -50 28 -41 16 7 11 40 -9 57 -10 8 -14 4 -19
-16z"/>
<path d="M2838 4545 c-3 -15 -1 -28 6 -30 25 -8 135 -11 124 -3 -9 5 -8 8 5 8
9 0 17 -5 17 -11 0 -8 16 -10 49 -6 26 3 52 2 57 -2 5 -5 79 -14 164 -20 85
-6 184 -14 220 -17 l65 -6 0 31 c0 29 -2 31 -40 32 -22 1 -50 3 -63 4 -17 2
-20 -1 -12 -10 8 -9 8 -15 0 -20 -7 -4 -14 1 -16 13 -5 16 -17 21 -66 26 -92
9 -160 8 -153 -4 3 -5 -1 -10 -9 -10 -10 0 -13 6 -10 15 5 12 -5 15 -57 16
-35 0 -73 2 -84 4 -11 2 -59 7 -106 11 l-86 6 -5 -27z m302 -20 c0 -8 -2 -15
-4 -15 -2 0 -6 7 -10 15 -3 8 -1 15 4 15 6 0 10 -7 10 -15z m360 -25 c0 -5 -4
-10 -9 -10 -6 0 -13 5 -16 10 -3 6 1 10 9 10 9 0 16 -4 16 -10z"/>
<path d="M4794 4545 c-8 -31 1 -55 20 -55 23 0 29 19 16 51 -15 36 -28 37 -36
4z"/>
<path d="M2790 4533 c0 -29 12 -24 17 7 2 11 -2 20 -7 20 -6 0 -10 -12 -10
-27z"/>
<path d="M5101 4538 c-8 -15 -10 -35 -7 -45 7 -17 8 -17 17 0 6 10 9 30 7 45
l-4 27 -13 -27z"/>
<path d="M5520 4491 c-15 -36 -4 -55 26 -49 26 5 28 30 6 58 l-18 23 -14 -32z"/>
<path d="M3731 4486 c-12 -31 -7 -46 15 -46 16 0 19 37 4 60 -7 11 -11 9 -19
-14z"/>
<path d="M2771 4454 c0 -11 3 -14 6 -6 3 7 2 16 -1 19 -3 4 -6 -2 -5 -13z"/>
<path d="M4041 4451 c-9 -17 -10 -26 -2 -34 18 -18 33 5 23 33 l-9 24 -12 -23z"/>
<path d="M6037 4443 c-6 -10 -9 -229 -3 -223 5 6 16 230 11 230 -2 0 -6 -3 -8
-7z"/>
<path d="M4629 4424 c0 -5 -2 -17 -4 -26 -2 -12 2 -15 13 -11 11 5 13 3 7 -7
-5 -9 -4 -11 3 -6 9 5 9 13 1 29 -15 28 -19 32 -20 21z"/>
<path d="M3591 4388 c-11 -28 14 -63 28 -39 10 15 3 48 -10 57 -5 3 -13 -5
-18 -18z"/>
<path d="M4966 4391 c-4 -7 -5 -15 -2 -18 9 -9 19 4 14 18 -4 11 -6 11 -12 0z"/>
<path d="M3397 4384 c-11 -11 -8 -52 4 -60 21 -12 31 12 17 40 -8 15 -17 24
-21 20z"/>
<path d="M3870 4360 c0 -5 5 -10 11 -10 5 0 7 5 4 10 -3 6 -8 10 -11 10 -2 0
-4 -4 -4 -10z"/>
<path d="M3090 4340 l-25 -8 28 -1 c15 -1 27 4 27 9 0 6 -1 10 -2 9 -2 -1 -14
-5 -28 -9z"/>
<path d="M4866 4341 c-18 -7 -18 -8 -2 -14 9 -4 14 -11 11 -17 -3 -6 1 -13 9
-16 9 -3 16 -13 16 -21 0 -8 4 -12 9 -9 10 6 -7 86 -18 85 -3 0 -15 -4 -25 -8z"/>
<path d="M3718 4322 c-23 -3 -28 -8 -28 -30 0 -18 -3 -23 -8 -14 -6 8 -9 2 -9
-18 0 -26 4 -30 29 -30 25 0 28 3 28 35 0 47 18 45 23 -2 3 -35 4 -35 5 9 2
52 -1 55 -40 50z"/>
<path d="M3805 4275 c0 -19 3 -35 8 -35 4 0 7 6 7 13 0 6 3 22 6 35 4 15 2 22
-7 22 -9 0 -14 -12 -14 -35z"/>
<path d="M3776 4269 c3 -38 14 -51 14 -16 0 15 0 30 1 34 0 4 -3 9 -8 10 -5 2
-8 -11 -7 -28z"/>
<path d="M4840 4275 c0 -8 4 -15 9 -15 5 0 14 -14 21 -30 7 -17 17 -33 22 -36
5 -3 -2 17 -16 45 -27 53 -36 62 -36 36z"/>
<path d="M6033 3960 l0 -255 8 180 c4 99 10 197 14 218 4 22 2 37 -4 37 -5 0
-12 17 -14 38 -2 20 -4 -78 -4 -218z"/>
<path d="M3235 4179 c-9 -28 16 -57 32 -37 12 15 0 58 -16 58 -5 0 -13 -10
-16 -21z"/>
<path d="M4851 4195 c0 -5 3 -27 8 -47 8 -32 6 -38 -8 -39 -10 0 -8 -4 8 -10
29 -11 38 -5 21 16 -7 8 -10 24 -7 34 3 11 -1 28 -9 38 -7 10 -13 14 -13 8z"/>
<path d="M8 4123 c7 -3 16 -2 19 1 4 3 -2 6 -13 5 -11 0 -14 -3 -6 -6z"/>
<path d="M2955 4107 c-13 -10 -15 -16 -6 -21 6 -4 18 -3 25 3 7 6 17 7 22 3 4
-4 2 1 -5 11 -16 20 -13 20 -36 4z"/>
<path d="M2791 4094 c0 -11 3 -14 6 -6 3 7 2 16 -1 19 -3 4 -6 -2 -5 -13z"/>
<path d="M3691 4094 c0 -11 3 -14 6 -6 3 7 2 16 -1 19 -3 4 -6 -2 -5 -13z"/>
<path d="M3904 4084 c-9 -34 10 -54 32 -32 13 12 14 20 5 37 -16 28 -29 27
-37 -5z"/>
<path d="M3011 4087 c-2 -28 -29 -74 -48 -81 -10 -4 -83 -11 -163 -16 -80 -5
-169 -12 -199 -14 -48 -4 -53 -3 -48 14 4 16 1 17 -26 9 -31 -9 -60 -29 -41
-29 6 0 15 5 22 12 9 9 15 8 24 -5 12 -16 27 -16 230 -3 120 8 222 17 227 21
6 3 50 -1 98 -9 48 -9 147 -20 218 -25 72 -5 207 -21 300 -35 241 -36 236 -36
231 -27 -3 5 5 7 17 5 142 -22 261 -37 353 -44 61 -5 135 -15 165 -24 30 -8
71 -17 91 -20 21 -3 57 -10 80 -15 39 -9 471 -81 560 -94 21 -3 40 -1 43 4 4
5 18 9 33 10 l27 1 -30 8 c-16 5 -176 31 -355 59 -179 28 -368 57 -420 66 -52
8 -284 44 -515 80 -231 36 -518 81 -639 100 -120 19 -220 35 -221 35 -2 0 -6
8 -8 18 -4 16 -5 16 -6 -1z"/>
<path d="M3603 4077 c-13 -28 5 -66 25 -53 16 10 15 38 -1 60 -12 17 -14 16
-24 -7z"/>
<path d="M2965 4060 c-3 -5 -2 -10 4 -10 5 0 13 5 16 10 3 6 2 10 -4 10 -5 0
-13 -4 -16 -10z"/>
<path d="M70 4055 c0 -15 18 -40 24 -34 3 3 -1 14 -9 25 -8 10 -14 15 -15 9z"/>
<path d="M2635 4050 c-3 -5 -1 -10 4 -10 6 0 11 5 11 10 0 6 -2 10 -4 10 -3 0
-8 -4 -11 -10z"/>
<path d="M2580 4030 c0 -11 4 -20 9 -20 5 0 7 9 4 20 -3 11 -7 20 -9 20 -2 0
-4 -9 -4 -20z"/>
<path d="M147 4033 c-23 -4 -26 -7 -16 -19 18 -21 49 -18 49 6 0 11 -1 19 -2
19 -2 -1 -16 -4 -31 -6z"/>
<path d="M2438 4023 c6 -2 18 -2 25 0 6 3 1 5 -13 5 -14 0 -19 -2 -12 -5z"/>
<path d="M4764 3975 c-8 -31 1 -55 20 -55 23 0 29 19 16 51 -15 36 -28 37 -36
4z"/>
<path d="M4412 3955 c-14 -31 -6 -55 18 -55 28 0 33 16 15 50 -8 16 -17 30
-19 30 -1 0 -8 -11 -14 -25z"/>
<path d="M5160 3920 c-11 -27 -11 -34 3 -47 19 -19 47 -10 47 14 0 10 -9 29
-19 42 l-18 23 -13 -32z"/>
<path d="M0 3891 c0 -44 8 -71 21 -71 5 0 9 7 9 15 0 8 12 22 28 30 24 14 24
16 4 11 -17 -3 -26 3 -37 25 -20 39 -25 37 -25 -10z"/>
<path d="M2310 3920 c0 -4 9 -10 20 -13 11 -3 20 -2 20 3 0 4 -9 10 -20 13
-11 3 -20 2 -20 -3z"/>
<path d="M1748 3763 c7 -3 16 -2 19 1 4 3 -2 6 -13 5 -11 0 -14 -3 -6 -6z"/>
<path d="M1885 3703 c11 -3 24 -9 30 -14 5 -5 21 -9 36 -9 15 0 29 -6 32 -12
2 -7 8 -9 13 -5 12 11 -16 27 -48 27 -15 0 -30 5 -33 10 -3 6 -16 9 -28 9 -20
-1 -20 -2 -2 -6z"/>
<path d="M6032 3670 c0 -19 2 -27 5 -17 2 9 2 25 0 35 -3 9 -5 1 -5 -18z"/>
<path d="M3813 3643 c20 -2 54 -2 75 0 20 2 3 4 -38 4 -41 0 -58 -2 -37 -4z"/>
<path d="M3703 3633 c15 -2 37 -2 50 0 12 2 0 4 -28 4 -27 0 -38 -2 -22 -4z"/>
<path d="M2510 3620 c-8 -5 -10 -10 -5 -10 6 0 17 5 25 10 8 5 11 10 5 10 -5
0 -17 -5 -25 -10z"/>
<path d="M4120 3621 c-15 -4 11 -7 65 -8 50 -1 125 -9 169 -18 107 -22 106
-13 -2 13 -86 22 -183 27 -232 13z"/>
<path d="M3850 3610 c36 -4 90 -8 120 -8 55 0 55 0 15 9 -22 4 -76 7 -120 7
l-80 -1 65 -7z"/>
<path d="M2448 3593 c7 -3 16 -2 19 1 4 3 -2 6 -13 5 -11 0 -14 -3 -6 -6z"/>
<path d="M2360 3570 c-13 -8 -13 -10 2 -10 9 0 20 5 23 10 8 13 -5 13 -25 0z"/>
<path d="M5090 3514 c0 -53 0 -53 38 -63 92 -24 465 -111 478 -111 11 0 14 16
14 71 0 64 -2 70 -17 63 -10 -4 -27 -7 -38 -7 -18 1 -274 55 -417 88 l-58 13
0 -54z"/>
<path d="M2318 3553 c7 -3 16 -2 19 1 4 3 -2 6 -13 5 -11 0 -14 -3 -6 -6z"/>
<path d="M2400 3520 c-18 -12 -2 -12 25 0 13 6 15 9 5 9 -8 0 -22 -4 -30 -9z"/>
<path d="M2118 3513 c7 -3 16 -2 19 1 4 3 -2 6 -13 5 -11 0 -14 -3 -6 -6z"/>
<path d="M2345 3503 c-34 -8 -38 -20 -5 -15 17 2 33 8 36 13 5 9 1 10 -31 2z"/>
<path d="M2020 3490 c-18 -12 -2 -12 25 0 13 6 15 9 5 9 -8 0 -22 -4 -30 -9z"/>
<path d="M1950 3465 c-19 -7 -28 -14 -20 -14 8 0 29 6 45 14 39 17 21 18 -25
0z"/>
<path d="M2145 3400 c-16 -7 -17 -9 -3 -9 9 -1 20 4 23 9 7 11 7 11 -20 0z"/>
<path d="M4268 3373 c6 -2 18 -2 25 0 6 3 1 5 -13 5 -14 0 -19 -2 -12 -5z"/>
<path d="M4002 3365 c4 -4 26 -11 48 -15 23 -4 38 -4 33 0 -10 11 -90 25 -81
15z"/>
<path d="M4250 3310 c8 -5 22 -10 30 -10 13 0 13 1 0 10 -8 5 -22 10 -30 10
-13 0 -13 -1 0 -10z"/>
<path d="M3950 3300 c0 -13 20 -13 40 0 12 8 9 10 -12 10 -16 0 -28 -4 -28
-10z"/>
<path d="M3813 3273 c9 -2 23 -2 30 0 6 3 -1 5 -18 5 -16 0 -22 -2 -12 -5z"/>
<path d="M3898 3263 c12 -2 30 -2 40 0 9 3 -1 5 -23 4 -22 0 -30 -2 -17 -4z"/>
<path d="M4005 3250 c40 -9 132 -13 124 -6 -2 2 -40 6 -84 9 -59 4 -69 3 -40
-3z"/>
<path d="M3725 3230 c-4 -6 -4 -10 -1 -10 2 0 11 -3 20 -6 9 -3 16 -2 16 4 0
14 -28 23 -35 12z"/>
<path d="M3898 3233 c7 -3 16 -2 19 1 4 3 -2 6 -13 5 -11 0 -14 -3 -6 -6z"/>
<path d="M4158 3233 c12 -2 30 -2 40 0 9 3 -1 5 -23 4 -22 0 -30 -2 -17 -4z"/>
<path d="M3812 3218 c3 -7 15 -15 28 -16 21 -4 22 -2 7 12 -19 19 -40 21 -35
4z"/>
<path d="M3978 3223 c7 -3 16 -2 19 1 4 3 -2 6 -13 5 -11 0 -14 -3 -6 -6z"/>
<path d="M4290 3214 c30 -8 60 -22 66 -30 6 -7 15 -14 19 -14 4 0 14 -8 22
-17 13 -16 14 -15 1 7 -18 30 -73 59 -125 65 -30 4 -27 2 17 -11z"/>
<path d="M3930 3210 c8 -5 24 -10 34 -10 26 0 18 6 -19 14 -22 5 -26 4 -15 -4z"/>
<path d="M4058 3203 c-24 -6 -23 -23 2 -23 11 0 20 7 20 15 0 8 -1 14 -2 14
-2 -1 -11 -3 -20 -6z"/>
<path d="M4840 3150 c19 -13 30 -13 30 0 0 6 -10 10 -22 10 -19 0 -20 -2 -8
-10z"/>
<path d="M3530 2615 c14 -16 26 -31 26 -33 1 -2 5 5 8 15 4 9 4 14 0 10 -4 -4
-19 3 -33 15 l-26 23 25 -30z"/>
<path d="M4392 2409 c-7 -10 -8 -19 -3 -19 13 0 33 28 23 33 -4 3 -13 -3 -20
-14z"/>
<path d="M4884 1116 c11 -9 28 -16 39 -16 10 0 16 -4 13 -8 -2 -4 3 -8 12 -9
9 -1 28 -4 42 -7 30 -8 -65 38 -100 48 -24 7 -24 6 -6 -8z"/>
<path d="M4972 1114 c10 -10 20 -15 24 -12 3 4 -5 12 -18 18 -22 12 -22 12 -6
-6z"/>
<path d="M4760 355 c7 -9 15 -13 17 -11 7 7 -7 26 -19 26 -6 0 -6 -6 2 -15z"/>
<path d="M4800 293 c0 -2 20 -13 45 -24 24 -11 47 -24 50 -29 8 -13 45 -13 45
-1 0 6 -9 8 -20 6 -12 -2 -24 3 -30 14 -8 16 -90 47 -90 34z"/>
<path d="M4987 277 c-3 -7 4 -19 14 -25 12 -8 19 -8 19 -2 0 5 5 10 11 10 5 0
7 -5 4 -11 -8 -13 24 -51 36 -43 5 3 6 10 3 16 -5 7 -1 9 9 5 31 -12 18 1 -33
32 -58 36 -56 35 -63 18z m68 -37 c3 -5 1 -10 -4 -10 -6 0 -11 5 -11 10 0 6 2
10 4 10 3 0 8 -4 11 -10z"/>
<path d="M5107 189 c7 -7 15 -10 18 -7 3 3 -2 9 -12 12 -14 6 -15 5 -6 -5z"/>
<path d="M6067 124 c-4 -4 -7 -30 -7 -58 0 -51 15 -55 23 -6 5 31 -6 74 -16
64z"/>
<path d="M4960 80 c20 -13 33 -13 25 0 -3 6 -14 10 -23 10 -15 0 -15 -2 -2
-10z"/>
</g>
</svg>
